#N canvas 484 37 747 670 10;
#X obj 16 7 inlet partitura;
#X obj 591 -33 inlet bema;
#X obj 591 -13 s bema-\$0;
#X obj 222 154 r bema-\$0;
#X msg 355 -39 arg1 - lugar da lista de samples \; arg2 - tamanho do
bema \; arg3 - nome do array \;;
#X obj 16 37 t l b;
#X msg 66 38 5 4 3 6;
#X obj 123 27 print a;
#X obj 133 47 print b;
#X obj 43 64 counter 0 1 11;
#X floatatom 43 91 5 0 0 0 - - -;
#X obj 17 122 gate 11 11 11 11 11 11 11 11 11 11;
#X obj 352 -63 bng 15 250 50 0 empty empty empty 17 7 0 10 -262144
-1 -1;
#X obj 372 -63 bng 15 250 50 0 empty empty empty 17 7 0 10 -262144
-1 -1;
#X obj 392 -63 bng 15 250 50 0 empty empty empty 17 7 0 10 -262144
-1 -1;
#X obj 412 -63 bng 15 250 50 0 empty empty empty 17 7 0 10 -262144
-1 -1;
#X obj 432 -63 bng 15 250 50 0 empty empty empty 17 7 0 10 -262144
-1 -1;
#X obj 452 -63 bng 15 250 50 0 empty empty empty 17 7 0 10 -262144
-1 -1;
#X obj 472 -63 bng 15 250 50 0 empty empty empty 17 7 0 10 -262144
-1 -1;
#X obj 492 -63 bng 15 250 50 0 empty empty empty 17 7 0 10 -262144
-1 -1;
#X obj 512 -63 bng 15 250 50 0 empty empty empty 17 7 0 10 -262144
-1 -1;
#X obj 532 -63 bng 15 250 50 0 empty empty empty 17 7 0 10 -262144
-1 -1;
#X obj 553 -63 bng 15 250 50 0 empty empty empty 17 7 0 10 -262144
-1 -1;
#X obj 432 154 r bema-\$0;
#X obj 642 154 r bema-\$0;
#X obj 222 284 r bema-\$0;
#X obj 432 284 r bema-\$0;
#X obj 642 284 r bema-\$0;
#X obj 222 414 r bema-\$0;
#X obj 432 414 r bema-\$0;
#X obj 642 414 r bema-\$0;
#X obj 432 24 r bema-\$0;
#X obj 642 24 r bema-\$0;
#X obj 154 564 outlet~;
#X obj 514 564 outlet~;
#X obj 187 -7 symbol \$1;
#X obj 187 -27 loadbang;
#X obj 567 24 r lcoll-\$0;
#X obj 357 24 r lcoll-\$0;
#X obj 187 13 s lcoll-\$0;
#X obj 147 154 r lcoll-\$0;
#X obj 357 154 r lcoll-\$0;
#X obj 567 154 r lcoll-\$0;
#X obj 147 284 r lcoll-\$0;
#X obj 357 284 r lcoll-\$0;
#X obj 567 284 r lcoll-\$0;
#X obj 147 414 r lcoll-\$0;
#X obj 357 414 r lcoll-\$0;
#X obj 567 414 r lcoll-\$0;
#X obj 37 182 part1~;
#X obj 247 52 part1~;
#X obj 457 52 part1~;
#X obj 247 182 part1~;
#X obj 457 182 part1~;
#X obj 457 312 part1~;
#X obj 247 312 part1~;
#X obj 37 312 part1~;
#X obj 37 442 part1~;
#X obj 247 442 part1~;
#X obj 457 442 part1~;
#X obj 14 284 dac~;
#X connect 0 0 5 0;
#X connect 1 0 2 0;
#X connect 3 0 49 4;
#X connect 5 0 11 1;
#X connect 5 1 9 0;
#X connect 6 0 5 0;
#X connect 9 0 10 0;
#X connect 10 0 11 0;
#X connect 11 0 49 0;
#X connect 11 1 56 0;
#X connect 11 2 57 0;
#X connect 11 3 58 0;
#X connect 11 4 55 0;
#X connect 11 5 59 0;
#X connect 11 6 54 0;
#X connect 11 7 52 0;
#X connect 11 8 53 0;
#X connect 11 9 50 0;
#X connect 11 10 51 0;
#X connect 23 0 52 4;
#X connect 24 0 53 4;
#X connect 25 0 56 4;
#X connect 26 0 55 4;
#X connect 27 0 54 4;
#X connect 28 0 57 4;
#X connect 29 0 58 4;
#X connect 30 0 59 4;
#X connect 31 0 50 4;
#X connect 32 0 51 4;
#X connect 35 0 39 0;
#X connect 36 0 35 0;
#X connect 37 0 51 3;
#X connect 38 0 50 3;
#X connect 40 0 49 3;
#X connect 41 0 52 3;
#X connect 42 0 53 3;
#X connect 43 0 56 3;
#X connect 44 0 55 3;
#X connect 45 0 54 3;
#X connect 46 0 57 3;
#X connect 47 0 58 3;
#X connect 48 0 59 3;
#X connect 49 0 33 0;
#X connect 49 1 34 0;
#X connect 50 0 33 0;
#X connect 50 1 34 0;
#X connect 51 0 33 0;
#X connect 51 1 34 0;
#X connect 52 0 33 0;
#X connect 52 1 34 0;
#X connect 53 0 33 0;
#X connect 53 1 34 0;
#X connect 54 0 33 0;
#X connect 54 1 34 0;
#X connect 55 0 33 0;
#X connect 55 1 34 0;
#X connect 56 0 33 0;
#X connect 56 1 34 0;
#X connect 57 0 33 0;
#X connect 57 1 34 0;
#X connect 58 0 33 0;
#X connect 58 1 34 0;
#X connect 59 0 33 0;
#X connect 59 1 34 0;
