#N canvas 780 135 471 454 10;
#X floatatom 103 198 20 0 0 0 - - -;
#X floatatom 103 115 10 0 0 0 - - -;
#X obj 103 170 tabread area1;
#X obj 103 372 sel 1 0;
#X obj 52 137 + 1;
#X obj 103 393 bng 15 250 50 0 empty empty empty 17 7 0 10 -262144
-1 -1;
#X floatatom 103 353 5 0 0 0 - - -;
#X msg 52 459 1;
#X obj 66 420 del 1;
#X obj 103 421 f;
#X obj 183 47 -;
#X obj 183 74 / 44.1;
#X obj 200 257 i;
#X obj 200 317 outlet diferença do tempo;
#X obj 103 472 outlet número em zero;
#X obj 103 61 inlet;
#X floatatom 118 134 10 0 0 0 - - -;
#X floatatom 183 116 5 0 0 0 - - -;
#X obj 103 445 t f f;
#X floatatom 130 325 5 0 0 0 - - -;
#X obj 103 324 &&;
#X obj 103 224 t f f;
#X floatatom 103 274 5 0 0 0 - - -;
#X obj 82 77 bng 15 250 50 0 empty empty empty 17 7 0 10 -262144 -1
-1;
#X obj 103 253 > -0.0001;
#X obj 130 295 < 0.0001;
#X connect 0 0 21 0;
#X connect 1 0 10 1;
#X connect 1 0 16 0;
#X connect 2 0 0 0;
#X connect 3 0 5 0;
#X connect 3 1 8 0;
#X connect 4 0 16 0;
#X connect 5 0 9 0;
#X connect 6 0 3 0;
#X connect 7 0 4 0;
#X connect 8 0 7 0;
#X connect 9 0 18 0;
#X connect 10 0 11 0;
#X connect 11 0 17 0;
#X connect 12 0 13 0;
#X connect 15 0 1 0;
#X connect 16 0 2 0;
#X connect 16 0 9 1;
#X connect 16 0 4 1;
#X connect 17 0 12 0;
#X connect 18 0 14 0;
#X connect 18 1 10 0;
#X connect 19 0 20 1;
#X connect 20 0 6 0;
#X connect 21 0 24 0;
#X connect 21 1 25 0;
#X connect 22 0 20 0;
#X connect 23 0 1 0;
#X connect 24 0 22 0;
#X connect 25 0 19 0;
#X coords 0 -1 1 1 120 53 1 100 100;
