#N canvas 673 177 450 589 10;
#X floatatom 100 143 5 0 0 0 - - -;
#X obj 100 500 outlet;
#X obj 151 501 outlet;
#X floatatom 101 250 5 0 0 0 - - -;
#X obj 100 172 t f f f f;
#X floatatom 151 250 5 0 0 0 - - -;
#X obj 151 283 sel 1;
#X obj 101 283 sel 1;
#X obj 151 315 f;
#X floatatom 151 474 5 0 0 0 - - -;
#X msg 178 443 100;
#X obj 101 315 f;
#X floatatom 101 474 5 0 0 0 - - -;
#X msg 128 443 100;
#X obj 101 345 - 200;
#X floatatom 101 376 5 0 0 0 - - -;
#X obj 101 409 * -1;
#X obj 103 100 hsl 151 15 0 200 0 0 empty empty empty -2 -8 0 10 -262144
-1 -1 0 1;
#X obj 100 56 inlet;
#X obj 100 220 > 100.1;
#X obj 151 220 < 99.9;
#X connect 0 0 4 0;
#X connect 3 0 7 0;
#X connect 4 0 19 0;
#X connect 4 1 11 1;
#X connect 4 2 20 0;
#X connect 4 3 8 1;
#X connect 5 0 6 0;
#X connect 6 0 8 0;
#X connect 6 1 10 0;
#X connect 7 0 11 0;
#X connect 7 1 13 0;
#X connect 8 0 9 0;
#X connect 9 0 2 0;
#X connect 10 0 9 0;
#X connect 11 0 14 0;
#X connect 12 0 1 0;
#X connect 13 0 12 0;
#X connect 14 0 15 0;
#X connect 15 0 16 0;
#X connect 16 0 12 0;
#X connect 17 0 0 0;
#X connect 18 0 17 0;
#X connect 19 0 3 0;
#X connect 20 0 5 0;
#X coords 0 -1 1 1 156 15 1 100 100;
