#N canvas 9 161 450 605 10;
#X floatatom 100 153 5 0 0 0 - - -;
#X obj 100 500 outlet;
#X obj 161 501 outlet;
#X floatatom 100 250 5 0 0 0 - - -;
#X obj 100 182 t f f f f;
#X floatatom 161 250 5 0 0 0 - - -;
#X obj 161 283 sel 1;
#X obj 100 283 sel 1;
#X obj 161 315 f;
#X floatatom 100 474 5 0 0 0 - - -;
#X msg 127 443 100;
#X obj 100 315 f;
#X floatatom 161 474 5 0 0 0 - - -;
#X msg 188 443 100;
#X obj 100 345 - 200;
#X floatatom 100 376 5 0 0 0 - - -;
#X obj 100 409 * -1;
#X obj 103 100 hsl 201 15 0 100 0 0 empty empty empty -2 -8 0 10 -262144
-1 -1 10000 1;
#X obj 100 56 inlet;
#X obj 100 115 bng 15 250 50 0 empty empty empty 17 7 0 10 -262144
-1 -1;
#X obj 195 115 bng 15 250 50 0 empty empty empty 17 7 0 10 -262144
-1 -1;
#X obj 291 115 bng 15 250 50 0 empty empty empty 17 7 0 10 -262144
-1 -1;
#X msg 120 78 0;
#X obj 100 220 > 50.1;
#X obj 161 220 < 49.9;
#X msg 150 78 50;
#X msg 180 78 100;
#X connect 0 0 4 0;
#X connect 3 0 7 0;
#X connect 4 0 23 0;
#X connect 4 1 11 1;
#X connect 4 2 24 0;
#X connect 4 3 8 1;
#X connect 5 0 6 0;
#X connect 6 0 8 0;
#X connect 6 1 13 0;
#X connect 7 0 11 0;
#X connect 7 1 10 0;
#X connect 8 0 12 0;
#X connect 9 0 1 0;
#X connect 10 0 9 0;
#X connect 11 0 14 0;
#X connect 12 0 2 0;
#X connect 13 0 12 0;
#X connect 14 0 15 0;
#X connect 15 0 16 0;
#X connect 16 0 9 0;
#X connect 17 0 0 0;
#X connect 18 0 17 0;
#X connect 19 0 22 0;
#X connect 20 0 25 0;
#X connect 21 0 26 0;
#X connect 22 0 17 0;
#X connect 23 0 3 0;
#X connect 24 0 5 0;
#X connect 25 0 17 0;
#X connect 26 0 17 0;
#X coords 0 -1 1 1 206 30 1 100 100;
