#N canvas 35 359 736 300 10;
#X floatatom 438 66 9 0 0 0 - - -;
#X floatatom 438 13 5 0 0 0 - - -;
#X obj 438 39 / 44.1;
#X obj 132 72 inlet;
#X obj 162 45 inlet;
#X obj 192 72 inlet;
#X obj 222 45 inlet;
#X obj 102 207 outlet~;
#X obj 132 123 bng 15 250 50 0 empty empty empty 0 -6 0 10 -262144
-1 -1;
#X obj 162 123 bng 15 250 50 0 empty empty empty 0 -6 0 10 -262144
-1 -1;
#X obj 192 123 bng 15 250 50 0 empty empty empty 0 -6 0 10 -262144
-1 -1;
#X obj 222 123 bng 15 250 50 0 empty empty empty 0 -6 0 10 -262144
-1 -1;
#X obj 102 45 inlet;
#X obj 102 123 bng 15 250 50 0 empty empty empty 0 -6 0 10 -262144
-1 -1;
#X msg 510 54 \; crossfade read ./crossfade.txt \; bumbo-li read ./bumbo-li.txt
\; bumbo read ./bumbo.txt \; clap read ./clap.txt \; chipof read ./chipof.txt
\; chipoa read ./chipoa.txt \;;
#X obj 510 29 bng 15 250 50 0 empty empty load_quando_necessário 0
-6 0 10 -262144 -1 -1;
#X msg 429 161 carregar o abstract bateria-fx-samples;
#X obj 252 75 inlet;
#X obj 252 123 bng 15 250 50 0 empty empty empty 0 -6 0 10 -262144
-1 -1;
#X obj 282 45 inlet;
#X obj 282 123 bng 15 250 50 0 empty empty empty 0 -6 0 10 -262144
-1 -1;
#X obj 312 75 inlet;
#X obj 312 123 bng 15 250 50 0 empty empty empty 0 -6 0 10 -262144
-1 -1;
#X obj 342 45 inlet;
#X obj 342 123 bng 15 250 50 0 empty empty empty 0 -6 0 10 -262144
-1 -1;
#X obj 372 75 inlet;
#X obj 372 123 bng 15 250 50 0 empty empty empty 0 -6 0 10 -262144
-1 -1;
#N canvas 99 49 997 677 kit-de-bateria-fx-com-disparos 0;
#X obj 19 196 line~;
#X obj 259 366 line~;
#X obj 159 246 line~;
#X obj 229 86 line~;
#X obj 259 312 inlet;
#X obj 19 142 inlet;
#X obj 159 192 inlet;
#X obj 229 32 inlet;
#X obj 566 579 outlet~;
#X obj 49 86 line~;
#X obj 49 32 inlet;
#X msg 91 32 351;
#X msg 301 312 229;
#X obj 259 420 *~ 0.5;
#X obj 359 226 line~;
#X obj 359 172 inlet;
#X msg 401 172 229;
#X obj 359 280 *~ 0.5;
#X obj 19 223 tabread4~ bateria-fx1;
#X obj 159 273 tabread4~ bateria-fx3;
#X obj 49 113 tabread4~ bateria-fx2;
#X obj 229 113 tabread4~ bateria-fx4;
#X obj 259 393 tabread4~ bateria-fx5;
#X obj 359 253 tabread4~ bateria-fx6;
#X obj 459 146 line~;
#X obj 459 92 inlet;
#X msg 501 92 229;
#X obj 459 200 *~ 0.5;
#X obj 459 173 tabread4~ bateria-fx7;
#X floatatom 366 65 9 0 0 0 - - -;
#X floatatom 366 12 5 0 0 0 - - -;
#X obj 366 38 / 44.1;
#X msg 19 169 0 \, 12829 291;
#X msg 159 219 0 \, 20274 460;
#X msg 259 339 0 \, 15297 347;
#X msg 359 199 0 \, 100821 2286;
#X obj 19 250 *~ 0.5;
#X obj 159 310 *~ 0.5;
#X obj 229 140 *~ 0.5;
#X obj 69 140 *~ 0.5;
#X obj 549 366 line~;
#X obj 549 312 inlet;
#X msg 591 312 229;
#X obj 549 420 *~ 0.5;
#X obj 649 226 line~;
#X obj 649 172 inlet;
#X msg 691 172 229;
#X obj 649 280 *~ 0.5;
#X obj 749 146 line~;
#X obj 749 92 inlet;
#X msg 791 92 229;
#X obj 749 200 *~ 0.5;
#X obj 549 393 tabread4~ bateria-fx8;
#X obj 649 253 tabread4~ bateria-fx9;
#X obj 750 173 tabread4~ bateria-fx10;
#X msg 49 60 0 \, 14069 319;
#X msg 229 59 0 \, 8782 200;
#X msg 459 119 0 \, 42374 961;
#X msg 549 339 0 \, 17510 397;
#X msg 649 199 0 \, 9341 212;
#X msg 749 119 0 \, 7425 168;
#X connect 0 0 18 0;
#X connect 1 0 22 0;
#X connect 2 0 19 0;
#X connect 3 0 21 0;
#X connect 4 0 34 0;
#X connect 5 0 32 0;
#X connect 6 0 33 0;
#X connect 7 0 56 0;
#X connect 9 0 20 0;
#X connect 10 0 55 0;
#X connect 13 0 8 0;
#X connect 14 0 23 0;
#X connect 15 0 35 0;
#X connect 17 0 8 0;
#X connect 18 0 36 0;
#X connect 19 0 37 0;
#X connect 20 0 39 0;
#X connect 21 0 38 0;
#X connect 22 0 13 0;
#X connect 23 0 17 0;
#X connect 24 0 28 0;
#X connect 25 0 57 0;
#X connect 27 0 8 0;
#X connect 28 0 27 0;
#X connect 30 0 31 0;
#X connect 31 0 29 0;
#X connect 32 0 0 0;
#X connect 33 0 2 0;
#X connect 34 0 1 0;
#X connect 35 0 14 0;
#X connect 36 0 8 0;
#X connect 37 0 8 0;
#X connect 38 0 8 0;
#X connect 39 0 8 0;
#X connect 40 0 52 0;
#X connect 41 0 58 0;
#X connect 43 0 8 0;
#X connect 44 0 53 0;
#X connect 45 0 59 0;
#X connect 47 0 8 0;
#X connect 48 0 54 0;
#X connect 49 0 60 0;
#X connect 51 0 8 0;
#X connect 52 0 43 0;
#X connect 53 0 47 0;
#X connect 54 0 51 0;
#X connect 55 0 9 0;
#X connect 56 0 3 0;
#X connect 57 0 24 0;
#X connect 58 0 40 0;
#X connect 59 0 44 0;
#X connect 60 0 48 0;
#X restore 102 180 pd kit-de-bateria-fx-com-disparos;
#X connect 1 0 2 0;
#X connect 2 0 0 0;
#X connect 3 0 8 0;
#X connect 4 0 9 0;
#X connect 5 0 10 0;
#X connect 6 0 11 0;
#X connect 8 0 27 1;
#X connect 9 0 27 2;
#X connect 10 0 27 3;
#X connect 11 0 27 4;
#X connect 12 0 13 0;
#X connect 13 0 27 0;
#X connect 17 0 18 0;
#X connect 18 0 27 5;
#X connect 19 0 20 0;
#X connect 20 0 27 6;
#X connect 21 0 22 0;
#X connect 22 0 27 7;
#X connect 23 0 24 0;
#X connect 24 0 27 8;
#X connect 25 0 26 0;
#X connect 26 0 27 9;
#X connect 27 0 7 0;
#X coords 0 -1 1 1 300 40 1 100 100;
