#N canvas 0 54 1280 746 10;
#X obj 26 -73 inlet partitura;
#X floatatom 45 3 5 0 0 0 - - -;
#X obj 37 142 s~ l-\$0-01;
#X msg 76 -51 1 4 3 6;
#X obj 166 -6 s \$0-03;
#X obj 156 -26 s \$0-02;
#X obj 147 -46 s \$0-01;
#X obj 37 65 r \$0-01;
#X obj 176 14 s \$0-04;
#X obj 186 34 s \$0-05;
#X obj 196 -46 s \$0-06;
#X obj 206 -26 s \$0-07;
#X obj 216 -6 s \$0-08;
#X obj 225 14 s \$0-09;
#X obj 235 34 s \$0-10;
#X obj 245 -46 s \$0-11;
#X obj 255 -26 s \$0-12;
#X obj 265 -6 s \$0-13;
#X obj 275 14 s \$0-14;
#X obj 285 34 s \$0-15;
#X obj 294 -46 s \$0-16;
#X obj 304 -26 s \$0-17;
#X obj 314 -6 s \$0-18;
#N canvas 67 101 931 526 left-right 1;
#X obj 47 422 outlet~;
#X obj 17 22 r~ l-\$0-01;
#X obj 97 22 r~ l-\$0-02;
#X obj 177 22 r~ l-\$0-03;
#X obj 17 52 r~ l-\$0-04;
#X obj 97 52 r~ l-\$0-05;
#X obj 177 52 r~ l-\$0-06;
#X obj 177 82 r~ l-\$0-09;
#X obj 97 82 r~ l-\$0-08;
#X obj 17 82 r~ l-\$0-07;
#X obj 17 112 r~ l-\$0-10;
#X obj 97 112 r~ l-\$0-11;
#X obj 177 112 r~ l-\$0-12;
#X obj 177 172 r~ l-\$0-18;
#X obj 177 142 r~ l-\$0-15;
#X obj 97 172 r~ l-\$0-17;
#X obj 97 142 r~ l-\$0-14;
#X obj 17 172 r~ l-\$0-16;
#X obj 17 142 r~ l-\$0-13;
#X obj 17 202 r~ l-\$0-19;
#X obj 97 202 r~ l-\$0-20;
#X obj 177 202 r~ l-\$0-21;
#X obj 17 232 r~ l-\$0-22;
#X obj 97 232 r~ l-\$0-23;
#X obj 177 232 r~ l-\$0-24;
#X obj 17 262 r~ l-\$0-25;
#X obj 97 262 r~ l-\$0-26;
#X obj 177 262 r~ l-\$0-27;
#X obj 17 292 r~ l-\$0-28;
#X obj 97 292 r~ l-\$0-29;
#X obj 177 292 r~ l-\$0-30;
#X obj 17 322 r~ l-\$0-31;
#X obj 97 322 r~ l-\$0-32;
#X obj 177 322 r~ l-\$0-33;
#X obj 17 352 r~ l-\$0-34;
#X obj 97 352 r~ l-\$0-35;
#X connect 1 0 0 0;
#X connect 2 0 0 0;
#X connect 3 0 0 0;
#X connect 4 0 0 0;
#X connect 5 0 0 0;
#X connect 6 0 0 0;
#X connect 7 0 0 0;
#X connect 8 0 0 0;
#X connect 9 0 0 0;
#X connect 10 0 0 0;
#X connect 11 0 0 0;
#X connect 12 0 0 0;
#X connect 13 0 0 0;
#X connect 14 0 0 0;
#X connect 15 0 0 0;
#X connect 16 0 0 0;
#X connect 17 0 0 0;
#X connect 18 0 0 0;
#X connect 19 0 0 0;
#X connect 20 0 0 0;
#X connect 21 0 0 0;
#X connect 22 0 0 0;
#X connect 23 0 0 0;
#X connect 24 0 0 0;
#X connect 25 0 0 0;
#X connect 26 0 0 0;
#X connect 27 0 0 0;
#X connect 28 0 0 0;
#X connect 29 0 0 0;
#X connect 30 0 0 0;
#X connect 31 0 0 0;
#X connect 32 0 0 0;
#X connect 33 0 0 0;
#X connect 34 0 0 0;
#X connect 35 0 0 0;
#X restore 940 57 pd left-right;
#X obj 89 65 r lodb-\$0;
#X obj 324 14 s \$0-19;
#X obj 334 34 s \$0-20;
#X obj 344 -46 s \$0-21;
#X obj 354 -26 s \$0-22;
#X obj 363 -6 s \$0-23;
#X obj 373 14 s \$0-24;
#X obj 383 34 s \$0-25;
#X obj 400 -46 s \$0-26;
#X obj 410 -26 s \$0-27;
#X obj 420 -6 s \$0-28;
#X obj 430 14 s \$0-29;
#X obj 439 34 s \$0-30;
#X obj 37 82 cam-grupo1-toca~;
#X obj 26 -52 t l l b;
#X obj 89 165 r lodb-\$0;
#X obj 89 265 r lodb-\$0;
#X obj 37 265 r \$0-03;
#X obj 37 342 s~ l-\$0-03;
#X obj 89 365 r lodb-\$0;
#X obj 37 365 r \$0-04;
#X obj 37 442 s~ l-\$0-04;
#X obj 89 465 r lodb-\$0;
#X obj 37 465 r \$0-05;
#X obj 37 542 s~ l-\$0-05;
#X obj 37 165 r \$0-02;
#X obj 37 242 s~ l-\$0-02;
#X obj 89 565 r lodb-\$0;
#X obj 37 565 r \$0-06;
#X obj 37 642 s~ l-\$0-06;
#X obj 219 65 r lodb-\$0;
#X obj 219 165 r lodb-\$0;
#X obj 219 265 r lodb-\$0;
#X obj 219 365 r lodb-\$0;
#X obj 219 465 r lodb-\$0;
#X obj 219 565 r lodb-\$0;
#X obj 167 65 r \$0-07;
#X obj 167 142 s~ l-\$0-07;
#X obj 167 165 r \$0-08;
#X obj 167 242 s~ l-\$0-08;
#X obj 167 265 r \$0-09;
#X obj 167 342 s~ l-\$0-09;
#X obj 167 365 r \$0-10;
#X obj 167 442 s~ l-\$0-10;
#X obj 167 542 s~ l-\$0-11;
#X obj 167 465 r \$0-11;
#X obj 167 642 s~ l-\$0-12;
#X obj 167 565 r \$0-12;
#X obj 339 65 r lodb-\$0;
#X obj 339 165 r lodb-\$0;
#X obj 339 265 r lodb-\$0;
#X obj 339 365 r lodb-\$0;
#X obj 339 465 r lodb-\$0;
#X obj 339 565 r lodb-\$0;
#X obj 287 65 r \$0-13;
#X obj 287 142 s~ l-\$0-13;
#X obj 287 165 r \$0-14;
#X obj 287 242 s~ l-\$0-14;
#X obj 287 265 r \$0-15;
#X obj 287 342 s~ l-\$0-15;
#X obj 287 365 r \$0-16;
#X obj 287 442 s~ l-\$0-16;
#X obj 287 465 r \$0-17;
#X obj 287 542 s~ l-\$0-17;
#X obj 287 565 r \$0-18;
#X obj 287 642 s~ l-\$0-18;
#X obj 459 65 r lodb-\$0;
#X obj 459 165 r lodb-\$0;
#X obj 459 265 r lodb-\$0;
#X obj 459 365 r lodb-\$0;
#X obj 459 465 r lodb-\$0;
#X obj 459 565 r lodb-\$0;
#X obj 407 65 r \$0-19;
#X obj 407 142 s~ l-\$0-19;
#X obj 407 165 r \$0-20;
#X obj 407 242 s~ l-\$0-20;
#X obj 407 265 r \$0-21;
#X obj 407 342 s~ l-\$0-21;
#X obj 407 365 r \$0-22;
#X obj 407 442 s~ l-\$0-22;
#X obj 407 465 r \$0-23;
#X obj 407 542 s~ l-\$0-23;
#X obj 407 565 r \$0-24;
#X obj 407 642 s~ l-\$0-24;
#X obj 579 65 r lodb-\$0;
#X obj 579 165 r lodb-\$0;
#X obj 579 265 r lodb-\$0;
#X obj 579 365 r lodb-\$0;
#X obj 579 465 r lodb-\$0;
#X obj 579 565 r lodb-\$0;
#X obj 527 65 r \$0-25;
#X obj 527 142 s~ l-\$0-25;
#X obj 527 165 r \$0-26;
#X obj 527 242 s~ l-\$0-26;
#X obj 527 265 r \$0-27;
#X obj 527 342 s~ l-\$0-27;
#X obj 527 365 r \$0-28;
#X obj 527 442 s~ l-\$0-28;
#X obj 527 465 r \$0-29;
#X obj 527 542 s~ l-\$0-29;
#X obj 527 565 r \$0-30;
#X obj 527 642 s~ l-\$0-30;
#X obj 709 65 r lodb-\$0;
#X obj 709 165 r lodb-\$0;
#X obj 709 265 r lodb-\$0;
#X obj 709 365 r lodb-\$0;
#X obj 709 465 r lodb-\$0;
#X obj 657 65 r \$0-31;
#X obj 657 142 s~ l-\$0-31;
#X obj 657 165 r \$0-32;
#X obj 657 242 s~ l-\$0-32;
#X obj 657 265 r \$0-33;
#X obj 657 365 r \$0-34;
#X obj 657 442 s~ l-\$0-34;
#X obj 657 465 r \$0-35;
#X obj 657 542 s~ l-\$0-35;
#X obj 147 -73 gate 35 35 35 35 35 35 35 35 35 35 35 35 35 35 35 35
35 35;
#X obj 460 -46 s \$0-31;
#X obj 491 -28 s \$0-32;
#X obj 511 -8 s \$0-33;
#X obj 561 7 s \$0-34;
#X obj 572 -19 s \$0-35;
#X obj 37 182 cam-grupo1-toca~;
#X obj 37 282 cam-grupo1-toca~;
#X obj 37 382 cam-grupo1-toca~;
#X obj 37 482 cam-grupo1-toca~;
#X obj 37 582 cam-grupo1-toca~;
#X obj 167 82 cam-grupo1-toca~;
#X obj 167 182 cam-grupo1-toca~;
#X obj 167 282 cam-grupo1-toca~;
#X obj 167 382 cam-grupo1-toca~;
#X obj 167 482 cam-grupo1-toca~;
#X obj 167 582 cam-grupo1-toca~;
#X obj 287 82 cam-grupo1-toca~;
#X obj 287 182 cam-grupo1-toca~;
#X obj 287 282 cam-grupo1-toca~;
#X obj 287 382 cam-grupo1-toca~;
#X obj 287 482 cam-grupo1-toca~;
#X obj 287 582 cam-grupo1-toca~;
#X obj 407 82 cam-grupo1-toca~;
#X obj 407 182 cam-grupo1-toca~;
#X obj 407 282 cam-grupo1-toca~;
#X obj 407 382 cam-grupo1-toca~;
#X obj 407 482 cam-grupo1-toca~;
#X obj 407 582 cam-grupo1-toca~;
#X obj 527 82 cam-grupo1-toca~;
#X obj 527 182 cam-grupo1-toca~;
#X obj 527 282 cam-grupo1-toca~;
#X obj 527 382 cam-grupo1-toca~;
#X obj 527 482 cam-grupo1-toca~;
#X obj 527 582 cam-grupo1-toca~;
#X obj 657 82 cam-grupo1-toca~;
#X obj 657 182 cam-grupo1-toca~;
#X obj 657 282 cam-grupo1-toca~;
#X obj 657 382 cam-grupo1-toca~;
#X obj 657 482 cam-grupo1-toca~;
#X obj 657 342 s~ l-\$0-33;
#X obj 45 -19 counter 0 1 35;
#X obj 877 532 outlet~;
#X obj 847 132 r~ l-\$0-01;
#X obj 927 132 r~ l-\$0-02;
#X obj 1007 132 r~ l-\$0-03;
#X obj 847 162 r~ l-\$0-04;
#X obj 927 162 r~ l-\$0-05;
#X obj 1007 162 r~ l-\$0-06;
#X obj 1007 192 r~ l-\$0-09;
#X obj 927 192 r~ l-\$0-08;
#X obj 847 192 r~ l-\$0-07;
#X obj 847 222 r~ l-\$0-10;
#X obj 927 222 r~ l-\$0-11;
#X obj 1007 222 r~ l-\$0-12;
#X obj 1007 282 r~ l-\$0-18;
#X obj 1007 252 r~ l-\$0-15;
#X obj 927 282 r~ l-\$0-17;
#X obj 927 252 r~ l-\$0-14;
#X obj 847 282 r~ l-\$0-16;
#X obj 847 252 r~ l-\$0-13;
#X obj 847 312 r~ l-\$0-19;
#X obj 927 312 r~ l-\$0-20;
#X obj 1007 312 r~ l-\$0-21;
#X obj 847 342 r~ l-\$0-22;
#X obj 927 342 r~ l-\$0-23;
#X obj 1007 342 r~ l-\$0-24;
#X obj 847 372 r~ l-\$0-25;
#X obj 927 372 r~ l-\$0-26;
#X obj 1007 372 r~ l-\$0-27;
#X obj 847 402 r~ l-\$0-28;
#X obj 927 402 r~ l-\$0-29;
#X obj 1007 402 r~ l-\$0-30;
#X obj 847 432 r~ l-\$0-31;
#X obj 927 432 r~ l-\$0-32;
#X obj 1007 432 r~ l-\$0-33;
#X obj 847 462 r~ l-\$0-34;
#X obj 927 462 r~ l-\$0-35;
#X connect 0 0 38 0;
#X connect 1 0 140 0;
#X connect 3 0 38 0;
#X connect 7 0 37 0;
#X connect 37 0 2 0;
#X connect 38 0 140 1;
#X connect 38 2 181 0;
#X connect 41 0 147 0;
#X connect 44 0 148 0;
#X connect 46 0 149 1;
#X connect 47 0 149 0;
#X connect 49 0 146 0;
#X connect 51 0 150 1;
#X connect 52 0 150 0;
#X connect 58 0 155 1;
#X connect 59 0 156 1;
#X connect 60 0 151 0;
#X connect 62 0 152 0;
#X connect 64 0 153 0;
#X connect 66 0 154 0;
#X connect 69 0 155 0;
#X connect 71 0 156 0;
#X connect 76 0 161 1;
#X connect 77 0 162 1;
#X connect 78 0 157 0;
#X connect 80 0 158 0;
#X connect 82 0 159 0;
#X connect 84 0 160 0;
#X connect 86 0 161 0;
#X connect 88 0 162 0;
#X connect 94 0 167 1;
#X connect 95 0 168 1;
#X connect 96 0 163 0;
#X connect 98 0 164 0;
#X connect 100 0 165 0;
#X connect 102 0 166 0;
#X connect 104 0 167 0;
#X connect 106 0 168 0;
#X connect 112 0 173 1;
#X connect 113 0 174 1;
#X connect 114 0 169 0;
#X connect 116 0 170 0;
#X connect 118 0 171 0;
#X connect 120 0 172 0;
#X connect 122 0 173 0;
#X connect 124 0 174 0;
#X connect 130 0 179 1;
#X connect 131 0 175 0;
#X connect 133 0 176 0;
#X connect 135 0 177 0;
#X connect 136 0 178 0;
#X connect 138 0 179 0;
#X connect 140 0 6 0;
#X connect 140 1 5 0;
#X connect 140 2 4 0;
#X connect 140 3 8 0;
#X connect 140 4 9 0;
#X connect 140 5 10 0;
#X connect 140 6 11 0;
#X connect 140 7 12 0;
#X connect 140 8 13 0;
#X connect 140 9 14 0;
#X connect 140 10 15 0;
#X connect 140 11 16 0;
#X connect 140 12 17 0;
#X connect 140 13 18 0;
#X connect 140 14 19 0;
#X connect 140 15 20 0;
#X connect 140 16 21 0;
#X connect 140 17 22 0;
#X connect 140 18 25 0;
#X connect 140 19 26 0;
#X connect 140 20 27 0;
#X connect 140 21 28 0;
#X connect 140 22 29 0;
#X connect 140 23 30 0;
#X connect 140 24 31 0;
#X connect 140 25 32 0;
#X connect 140 26 33 0;
#X connect 140 27 34 0;
#X connect 140 28 35 0;
#X connect 140 29 36 0;
#X connect 140 30 141 0;
#X connect 140 31 142 0;
#X connect 140 32 143 0;
#X connect 140 33 144 0;
#X connect 140 34 145 0;
#X connect 146 0 50 0;
#X connect 147 0 42 0;
#X connect 148 0 45 0;
#X connect 149 0 48 0;
#X connect 150 0 53 0;
#X connect 151 0 61 0;
#X connect 152 0 63 0;
#X connect 153 0 65 0;
#X connect 154 0 67 0;
#X connect 155 0 68 0;
#X connect 156 0 70 0;
#X connect 157 0 79 0;
#X connect 158 0 81 0;
#X connect 159 0 83 0;
#X connect 160 0 85 0;
#X connect 161 0 87 0;
#X connect 162 0 89 0;
#X connect 163 0 97 0;
#X connect 164 0 99 0;
#X connect 165 0 101 0;
#X connect 166 0 103 0;
#X connect 167 0 105 0;
#X connect 168 0 107 0;
#X connect 169 0 115 0;
#X connect 170 0 117 0;
#X connect 171 0 119 0;
#X connect 172 0 121 0;
#X connect 173 0 123 0;
#X connect 174 0 125 0;
#X connect 175 0 132 0;
#X connect 176 0 134 0;
#X connect 177 0 180 0;
#X connect 178 0 137 0;
#X connect 179 0 139 0;
#X connect 181 0 1 0;
#X connect 183 0 182 0;
#X connect 184 0 182 0;
#X connect 185 0 182 0;
#X connect 186 0 182 0;
#X connect 187 0 182 0;
#X connect 188 0 182 0;
#X connect 189 0 182 0;
#X connect 190 0 182 0;
#X connect 191 0 182 0;
#X connect 192 0 182 0;
#X connect 193 0 182 0;
#X connect 194 0 182 0;
#X connect 195 0 182 0;
#X connect 196 0 182 0;
#X connect 197 0 182 0;
#X connect 198 0 182 0;
#X connect 199 0 182 0;
#X connect 200 0 182 0;
#X connect 201 0 182 0;
#X connect 202 0 182 0;
#X connect 203 0 182 0;
#X connect 204 0 182 0;
#X connect 205 0 182 0;
#X connect 206 0 182 0;
#X connect 207 0 182 0;
#X connect 208 0 182 0;
#X connect 209 0 182 0;
#X connect 210 0 182 0;
#X connect 211 0 182 0;
#X connect 212 0 182 0;
#X connect 213 0 182 0;
#X connect 214 0 182 0;
#X connect 215 0 182 0;
#X connect 216 0 182 0;
#X connect 217 0 182 0;
