#N canvas 67 125 552 674 10;
#X obj 237 120 tgl 15 0 empty empty empty 17 7 0 10 -262144 -1 -1 0
1;
#X floatatom 102 154 5 0 100 2 vol - -;
#X floatatom 136 154 5 0 100 2 space - -;
#X floatatom 170 154 5 0 0 2 som - -;
#X floatatom 252 120 5 0 0 1 metro - -;
#X obj 305 355 metro 1000;
#X msg 305 377 1;
#X msg 238 34 100;
#X msg 248 14 200;
#X obj 255 355 r keyd;
#X obj 102 42 bng 15 250 50 0 empty empty empty 17 7 0 10 -262144 -1
-1;
#X obj 305 407 spigot;
#X obj 102 13 t b b b;
#X obj 105 120 hsl 128 15 30 300 0 0 empty empty empty -2 -8 0 10 -262144
-1 -1 0 1;
#X obj 223 238 * 1;
#X floatatom 320 131 5 0 0 2 *-vel - -;
#X msg 121 42 1;
#X obj 102 -11 inlet carrega;
#X obj 365 311 spigot;
#X msg 425 260 0;
#X obj 398 235 sel 0;
#X obj 162 28 * 100;
#X floatatom 398 291 5 0 0 0 - - -;
#X msg 398 260 1;
#X floatatom 338 382 5 0 0 0 - - -;
#X obj 262 565 * 100;
#X obj 100 171 bng 15 250 50 0 empty empty empty 17 7 0 10 -262144
-1 -1;
#X msg 61 173 1;
#X symbolatom 115 172 34 0 0 0 - - -;
#X obj 134 424 unpack s f f s;
#X obj 134 365 f;
#X floatatom 204 154 5 0 0 2 veloc - -;
#X obj 134 392 coll ./load-samples.txt;
#C restore;
#X obj 87 497 pack f f f f f s;
#X obj 193 318 unpack s f f s;
#X obj 193 286 coll ./load-samples.txt;
#C restore;
#X obj 305 435 t f b;
#X obj 166 260 t f f;
#X obj 87 544 space1~ 50;
#X obj 343 102 tgl 15 0 empty empty empty 17 7 0 10 -262144 -1 -1 0
1;
#X obj 87 517 cam-grupo1~ ./sons-contato/load-samples.txt;
#X msg 217 69 3000;
#X msg 167 79 9;
#X msg 58 74 150;
#X obj 338 218 t f f;
#X obj 343 -30 inlet bema;
#X obj 223 199 inlet velocidade y;
#X obj 272 540 inlet volume size;
#X obj 338 193 inlet on-off;
#X obj 194 -31 inlet space;
#X obj 413 -30 inlet som;
#X obj 87 604 outlet~;
#X obj 181 604 outlet~;
#X obj 241 604 outlet~;
#X obj 241 150 hsl 110 20 30 6000 0 0 empty empty empty -2 -8 0 10
-262144 -1 -1 0 1;
#X obj 124 305 * -1;
#X obj 124 334 + 100;
#X connect 0 0 5 0;
#X connect 0 0 20 0;
#X connect 1 0 33 1;
#X connect 2 0 55 0;
#X connect 3 0 37 0;
#X connect 4 0 5 1;
#X connect 5 0 6 0;
#X connect 6 0 11 0;
#X connect 7 0 4 0;
#X connect 8 0 4 0;
#X connect 9 0 6 0;
#X connect 10 0 42 0;
#X connect 10 0 43 0;
#X connect 10 0 41 0;
#X connect 11 0 36 0;
#X connect 12 0 10 0;
#X connect 12 1 16 0;
#X connect 13 0 4 0;
#X connect 14 0 31 0;
#X connect 15 0 14 1;
#X connect 16 0 0 0;
#X connect 17 0 12 0;
#X connect 18 0 33 0;
#X connect 19 0 22 0;
#X connect 20 0 23 0;
#X connect 20 1 19 0;
#X connect 21 0 2 0;
#X connect 22 0 18 1;
#X connect 23 0 22 0;
#X connect 24 0 11 1;
#X connect 25 0 1 0;
#X connect 26 0 27 0;
#X connect 27 0 36 0;
#X connect 29 1 33 4;
#X connect 29 3 33 5;
#X connect 30 0 32 0;
#X connect 31 0 33 3;
#X connect 32 0 29 0;
#X connect 33 0 40 0;
#X connect 34 0 28 0;
#X connect 35 0 34 0;
#X connect 36 0 33 0;
#X connect 36 1 30 0;
#X connect 37 0 30 1;
#X connect 37 1 35 0;
#X connect 38 0 51 0;
#X connect 38 1 52 0;
#X connect 39 0 38 1;
#X connect 40 0 38 0;
#X connect 40 0 53 0;
#X connect 41 0 54 0;
#X connect 42 0 3 0;
#X connect 43 0 13 0;
#X connect 44 0 24 0;
#X connect 44 1 18 0;
#X connect 45 0 15 0;
#X connect 46 0 14 0;
#X connect 47 0 25 0;
#X connect 48 0 44 0;
#X connect 49 0 21 0;
#X connect 50 0 3 0;
#X connect 54 0 15 0;
#X connect 55 0 56 0;
#X connect 56 0 33 2;
#X connect 56 0 38 2;
#X coords 0 -1 1 1 260 90 1 100 100;
