#N canvas 586 106 610 693 10;
#X floatatom 135 137 5 0 0 3 n.som - -;
#X obj 147 382 line~;
#X obj 120 275 unpack s f f s;
#X msg 201 382 set \$1;
#X floatatom 203 137 5 0 0 3 vel - -;
#X floatatom -7 334 5 0 0 2 - - -;
#X floatatom 20 486 15 0 0 0 - - -;
#X obj 20 558 / 500;
#X floatatom 20 588 10 0 0 0 - - -;
#X obj 20 464 / 96;
#X obj -7 381 unpack s f f s;
#X obj 120 226 f;
#X floatatom 169 137 5 0 100 3 vol - -;
#X obj 135 204 t f f;
#X floatatom 271 137 7 0 0 3 dur-orig - -;
#X obj 317 138 tgl 15 0 empty empty orig 17 7 0 10 -262144 -1 -1 0
1;
#X symbolatom 102 120 43 0 0 0 - - -;
#X obj 116 137 bng 15 250 50 0 empty empty empty 17 7 0 10 -262144
-1 -1;
#X msg 105 346 0;
#X obj 146 567 outlet~;
#X obj 239 567 outlet~;
#X obj 317 153 tgl 15 0 empty inve-0 inv 17 7 0 10 -262144 -1 -1 0
1;
#X obj 147 332 pack f f f;
#X msg 147 360 \$1 \, \$2 \$3;
#X obj 101 137 bng 15 250 50 0 empty empty empty 17 7 0 10 -262144
-1 -1;
#N canvas 67 83 450 300 inversor-\$0 0;
#X obj 158 105 + 1;
#X obj 158 138 gate 2;
#X obj 158 185 t b b;
#X msg 158 215 0;
#X obj 208 185 t b b;
#X msg 235 215 0;
#X obj 150 66 inlet;
#X obj 158 279 outlet;
#X obj 235 279 outlet;
#X obj 191 66 inlet;
#X obj 172 254 f;
#X obj 202 254 f;
#X obj 191 103 t b f f;
#X connect 0 0 1 0;
#X connect 1 0 2 0;
#X connect 1 1 4 0;
#X connect 2 0 3 0;
#X connect 2 1 11 0;
#X connect 3 0 7 0;
#X connect 4 0 10 0;
#X connect 4 1 5 0;
#X connect 5 0 8 0;
#X connect 6 0 0 0;
#X connect 9 0 12 0;
#X connect 10 0 7 0;
#X connect 11 0 8 0;
#X connect 12 0 1 1;
#X connect 12 1 10 1;
#X connect 12 2 11 1;
#X restore 147 305 pd inversor-\$0;
#X obj 295 305 * \$2;
#X floatatom 41 438 5 0 0 0 - - -;
#X obj 47 505 r bema;
#X floatatom 47 532 5 0 0 0 - - -;
#X obj 80 177 t b b b b b b;
#X obj 295 202 switch 1;
#X obj 295 229 sel 0;
#X obj 295 274 f;
#X obj 203 211 t b f;
#X obj 393 112 inlet;
#X obj 316 253 r bema-\$0;
#X obj 393 142 s bema-\$0;
#X obj 120 253 coll \$1;
#C restore;
#X obj -7 359 coll \$1;
#C restore;
#X obj 146 404 tabread4~ \$3;
#X obj 146 432 gatt~ 50;
#X obj 145 537 hip~ 10;
#X obj 239 537 hip~ 10;
#X obj 309 567 outlet~;
#X obj 308 537 hip~ 10;
#X obj 279 58 sel 1;
#X obj 279 -75 inlet on-off;
#X obj 169 10 * 100;
#X obj 169 -15 inlet volume size;
#X floatatom 237 137 5 0 6 3 *-vel - -;
#X obj 123 31 inlet velocidade y;
#X obj 146 477 space1~;
#X obj 279 -9 del 1;
#X obj 279 -53 if-last-3-is-zero red;
#X obj 279 -31 t b f;
#X obj 279 13 f;
#X obj 279 35 no-repet;
#X obj 93 -49 inlet space x;
#X obj 49 72 + 100;
#X obj 52 46 * -100;
#X obj 264 177 t f f;
#X obj 41 414 * 1;
#X floatatom 106 5 5 0 0 0 - - -;
#X floatatom 179 57 5 0 0 0 - - -;
#X obj 348 -2 * -1.5;
#X obj 347 27 + 1.5;
#X obj 123 58 * 2;
#X obj 463 112 inlet;
#X connect 0 0 13 0;
#X connect 1 0 40 0;
#X connect 2 1 25 1;
#X connect 2 3 3 0;
#X connect 3 0 40 0;
#X connect 4 0 34 0;
#X connect 5 0 39 0;
#X connect 6 0 7 0;
#X connect 6 0 26 1;
#X connect 7 0 8 0;
#X connect 8 0 14 0;
#X connect 9 0 6 0;
#X connect 10 0 16 0;
#X connect 10 1 9 0;
#X connect 10 2 62 0;
#X connect 11 0 38 0;
#X connect 12 0 41 1;
#X connect 13 0 11 1;
#X connect 13 1 5 0;
#X connect 14 0 31 1;
#X connect 15 0 31 0;
#X connect 17 0 18 0;
#X connect 18 0 1 0;
#X connect 21 0 25 0;
#X connect 22 0 23 0;
#X connect 23 0 1 0;
#X connect 24 0 30 0;
#X connect 25 0 22 0;
#X connect 25 1 22 1;
#X connect 26 0 22 2;
#X connect 27 0 9 1;
#X connect 28 0 29 0;
#X connect 29 0 7 1;
#X connect 30 2 11 0;
#X connect 30 3 21 0;
#X connect 30 4 21 0;
#X connect 31 0 32 0;
#X connect 32 0 33 0;
#X connect 32 1 33 0;
#X connect 33 0 26 0;
#X connect 34 0 31 0;
#X connect 34 1 33 1;
#X connect 35 0 37 0;
#X connect 38 0 2 0;
#X connect 39 0 10 0;
#X connect 40 0 41 0;
#X connect 41 0 45 0;
#X connect 41 0 52 0;
#X connect 42 0 19 0;
#X connect 43 0 20 0;
#X connect 45 0 44 0;
#X connect 46 0 24 0;
#X connect 47 0 54 0;
#X connect 48 0 12 0;
#X connect 49 0 48 0;
#X connect 50 0 67 1;
#X connect 51 0 64 0;
#X connect 51 0 67 0;
#X connect 52 0 42 0;
#X connect 52 1 43 0;
#X connect 53 0 56 0;
#X connect 54 0 55 0;
#X connect 55 0 53 0;
#X connect 55 1 56 1;
#X connect 56 0 57 0;
#X connect 57 0 46 0;
#X connect 58 0 60 0;
#X connect 59 0 52 2;
#X connect 60 0 59 0;
#X connect 62 0 27 0;
#X connect 63 0 67 0;
#X connect 64 0 65 0;
#X connect 65 0 66 0;
#X connect 67 0 4 0;
#X connect 68 0 0 0;
#X coords 0 -1 1 1 264 70 1 100 100;
