#N canvas 67 100 1007 699 10;
#X floatatom 102 134 5 0 100 2 vol - -;
#X floatatom 136 134 5 0 100 2 space - -;
#X floatatom 170 134 5 0 0 2 som - -;
#X obj 102 42 bng 15 250 50 0 empty empty empty 17 7 0 10 -262144 -1
-1;
#X obj 102 13 t b b b;
#X obj 102 -11 inlet carrega;
#X obj 162 28 * 100;
#X obj 272 25 * 100;
#X obj 100 151 bng 15 250 50 0 empty empty empty 17 7 0 10 -262144
-1 -1;
#X msg 61 153 1;
#X symbolatom 115 152 34 0 0 0 - - -;
#X obj 134 424 unpack s f f s;
#X obj 134 365 f;
#X floatatom 204 134 5 0 0 2 veloc - -;
#X obj 134 392 coll ./load-samples.txt;
#C restore;
#X obj 193 328 unpack s f f s;
#X obj 193 296 coll ./load-samples.txt;
#C restore;
#X obj 166 270 t f f;
#X obj 87 544 space1~ 50;
#X obj 249 135 tgl 15 0 empty empty space-aleat -10 -10 0 10 -262144
-1 -1 0 1;
#X msg 217 69 3000;
#X msg 167 79 9;
#X msg 58 74 150;
#X obj 338 278 t f f;
#X obj 443 -30 inlet bema;
#X obj 223 179 inlet velocidade y;
#X obj 272 0 inlet volume size;
#X obj 338 193 inlet on-off;
#X obj 513 -30 inlet som;
#X obj 87 604 outlet~;
#X obj 181 604 outlet~;
#X obj 241 604 outlet~;
#X obj 194 -31 inlet space x;
#X msg 807 385 set \$1;
#X obj 751 490 outlet~;
#X obj 752 407 tabread4~ \$3;
#X obj 215 469 s area-\$0;
#X obj 817 363 r area-\$0;
#X symbolatom 866 393 10 0 0 0 - - -;
#X obj 668 428 print a;
#X obj 442 484 /;
#X obj 442 430 t b f;
#X msg 442 457 1;
#X obj 457 356 * 1000;
#X obj 442 383 /;
#X floatatom 442 404 5 0 0 0 - - -;
#X floatatom 442 508 5 0 0 0 - - -;
#X obj 396 607 phasor~;
#X obj 396 639 *~;
#X obj 306 477 t f f;
#X msg 121 42 0;
#X obj 338 239 no-repet;
#X obj 365 304 sel 1;
#X msg 481 453 0;
#X floatatom 407 244 5 0 0 0 - - -;
#X obj 365 327 t b b;
#X obj 416 324 bng 15 250 50 0 empty empty empty 17 7 0 10 -262144
-1 -1;
#X obj 338 216 if-last-3-is-zero red;
#X floatatom 299 518 5 0 0 0 - - -;
#X obj 443 244 bng 15 250 50 0 empty empty empty 17 7 0 10 -262144
-1 -1;
#X obj 752 452 gatte~ 50;
#X msg 474 243 1;
#X msg 484 253 0;
#X floatatom 576 401 5 0 0 0 - - -;
#X floatatom 576 484 5 0 0 0 - - -;
#X obj 576 425 * 20;
#X obj 576 457 / 5;
#X obj 223 245 * 20;
#X obj 396 583 *~;
#X obj 395 546 line~;
#X msg 395 521 \$1 20;
#X floatatom 268 230 5 0 0 0 - - -;
#X obj 223 201 * -1;
#X obj 223 223 + 1;
#X obj 112 216 * -1;
#X obj 223 273 / 6;
#X obj 109 242 + 100;
#X connect 0 0 60 1;
#X connect 1 0 74 0;
#X connect 2 0 17 0;
#X connect 3 0 21 0;
#X connect 3 0 22 0;
#X connect 3 0 20 0;
#X connect 4 0 3 0;
#X connect 4 1 50 0;
#X connect 5 0 4 0;
#X connect 6 0 1 0;
#X connect 7 0 0 0;
#X connect 8 0 9 0;
#X connect 11 1 49 0;
#X connect 11 3 36 0;
#X connect 12 0 14 0;
#X connect 13 0 70 0;
#X connect 14 0 11 0;
#X connect 15 0 10 0;
#X connect 15 2 43 0;
#X connect 16 0 15 0;
#X connect 17 0 12 1;
#X connect 17 1 16 0;
#X connect 18 0 29 0;
#X connect 18 1 30 0;
#X connect 19 0 18 1;
#X connect 21 0 2 0;
#X connect 23 0 60 2;
#X connect 23 1 52 0;
#X connect 25 0 71 0;
#X connect 25 0 72 0;
#X connect 26 0 7 0;
#X connect 27 0 57 0;
#X connect 28 0 2 0;
#X connect 32 0 6 0;
#X connect 33 0 35 0;
#X connect 35 0 60 0;
#X connect 37 0 33 0;
#X connect 37 0 38 0;
#X connect 40 0 46 0;
#X connect 41 0 42 0;
#X connect 41 1 40 1;
#X connect 42 0 40 0;
#X connect 43 0 44 1;
#X connect 44 0 45 0;
#X connect 45 0 41 0;
#X connect 46 0 68 1;
#X connect 47 0 48 0;
#X connect 48 0 35 0;
#X connect 49 0 48 1;
#X connect 49 0 58 0;
#X connect 49 1 44 0;
#X connect 51 0 23 0;
#X connect 52 0 55 0;
#X connect 52 0 56 0;
#X connect 53 0 47 1;
#X connect 54 0 23 0;
#X connect 55 0 12 0;
#X connect 55 1 53 0;
#X connect 57 0 51 0;
#X connect 59 0 54 0;
#X connect 60 0 34 0;
#X connect 60 0 18 0;
#X connect 60 0 31 0;
#X connect 61 0 54 0;
#X connect 62 0 54 0;
#X connect 63 0 65 0;
#X connect 65 0 66 0;
#X connect 66 0 64 0;
#X connect 67 0 75 0;
#X connect 68 0 47 0;
#X connect 69 0 68 0;
#X connect 70 0 69 0;
#X connect 72 0 73 0;
#X connect 73 0 67 0;
#X connect 74 0 76 0;
#X connect 75 0 13 0;
#X connect 76 0 18 2;
#X coords 0 -1 1 1 230 70 1 100 100;
