#N canvas 461 129 724 670 10;
#X obj 103 285 line~;
#X msg 157 285 set \$1;
#X floatatom 137 130 5 0 0 3 dura dura-samp-#0 -;
#X floatatom 103 130 5 0 100 3 vol vol-#0 -;
#X obj 43 65 inlet;
#X obj 118 115 bng 15 250 50 0 empty empty empty 17 7 0 10 -262144
-1 -1;
#X msg 72 264 0;
#X obj 83 65 inlet;
#X obj 101 390 outlet~;
#X obj -139 6 inlet;
#X obj 103 115 bng 15 250 50 0 empty empty empty 17 7 0 10 -262144
-1 -1;
#X obj -110 62 s vol-\$0;
#X obj -51 162 s dura-samp-\$0;
#X obj -81 89 s space-fim\$0;
#X obj 43 91 sel 1 0;
#X obj 8 6 r bema-\$0;
#N canvas 776 107 492 477 desempacotamentacao-\$0 0;
#X obj 70 251 outlet;
#X obj 88 18 outlet vol;
#X obj 70 -37 inlet;
#X obj 143 99 outlet dura-samp;
#X obj 106 45 outlet space-fim;
#X obj 162 126 outlet tamanho sample;
#X obj 199 186 outlet aray;
#X obj 70 -5 unpack f f f f f s;
#X connect 2 0 7 0;
#X connect 7 0 0 0;
#X connect 7 1 1 0;
#X connect 7 2 4 0;
#X connect 7 3 3 0;
#X connect 7 4 5 0;
#X connect 7 5 6 0;
#X restore -139 35 pd desempacotamentacao-\$0;
#X obj 102 307 tabread4~ \$3;
#X obj 185 325 r vol-dura-\$0;
#X obj 102 352 gatt~ 50;
#X obj -22 139 s tamanho-\$0;
#X obj 8 112 s area-\$0;
#X obj 167 263 r area-\$0;
#X msg 103 263 0 \, \$1 \$2;
#X obj 118 170 r tamanho-\$0;
#X obj 103 203 f;
#X floatatom -119 97 5 0 0 0 - - -;
#X floatatom -109 135 5 0 0 0 - - -;
#X floatatom -99 162 5 0 0 0 - - -;
#X floatatom -71 190 5 0 0 0 - - -;
#X symbolatom 216 293 10 0 0 0 - - -;
#X obj 18 328 print a;
#X obj 103 235 pack f f;
#X connect 0 0 17 0;
#X connect 1 0 17 0;
#X connect 2 0 32 1;
#X connect 3 0 19 1;
#X connect 4 0 14 0;
#X connect 5 0 6 0;
#X connect 6 0 0 0;
#X connect 7 0 5 0;
#X connect 9 0 16 0;
#X connect 10 0 25 0;
#X connect 14 0 10 0;
#X connect 14 1 5 0;
#X connect 16 0 14 0;
#X connect 16 1 11 0;
#X connect 16 2 13 0;
#X connect 16 3 12 0;
#X connect 16 4 20 0;
#X connect 16 5 21 0;
#X connect 17 0 19 0;
#X connect 18 0 19 2;
#X connect 19 0 8 0;
#X connect 22 0 1 0;
#X connect 22 0 30 0;
#X connect 23 0 0 0;
#X connect 24 0 25 1;
#X connect 25 0 32 0;
#X connect 26 0 11 0;
#X connect 27 0 13 0;
#X connect 28 0 12 0;
#X connect 29 0 20 0;
#X connect 32 0 23 0;
#X coords 0 -1 1 1 110 60 1 100 100;
