#N canvas 170 241 769 496 10;
#X obj 132 317 *~;
#X obj 147 169 osc~;
#X floatatom 147 144 5 0 0 0 - - -;
#X obj 172 317 *~;
#X obj 187 169 osc~;
#X floatatom 187 144 5 0 0 0 - - -;
#X obj 212 317 *~;
#X obj 227 169 osc~;
#X floatatom 227 144 5 0 0 0 - - -;
#X obj 252 317 *~;
#X obj 267 169 osc~;
#X floatatom 267 144 5 0 0 0 - - -;
#X obj 307 143 bng 15 250 50 0 empty empty bicho1 0 -6 0 10 -262144
-1 -1;
#X floatatom 107 144 5 0 100 2 volume - -;
#X obj 132 356 gatt~;
#X obj 347 143 bng 15 250 50 0 empty empty peidinho 0 -6 0 10 -262144
-1 -1;
#X obj 307 113 bng 15 250 50 0 empty empty bicho2 0 -6 0 10 -262144
-1 -1;
#X obj 187 119 hradio 15 1 1 5 empty empty empty 0 -6 0 10 -262144
-1 -1 2;
#X obj 132 270 gate~;
#X obj 172 290 gate~;
#X obj 212 270 gate~;
#X obj 252 290 gate~;
#X obj 132 384 gat~;
#N canvas 454 299 450 414 controleRM 0;
#X obj 42 46 sel 0 1 2 3 4;
#X obj 42 19 inlet;
#X obj 42 243 outlet;
#X obj 84 243 outlet;
#X obj 127 243 outlet;
#X obj 169 243 outlet;
#X obj 212 243 outlet;
#X obj 42 211 route osc1 osc2 osc3 osc4 RM-divisor;
#X msg 42 75 osc1 0 \, osc2 0 \, osc3 0 \, osc4 0 \, RM-divisor 0;
#X msg 57 95 osc1 1 \, osc2 0 \, osc3 0 \, osc4 0 \, RM-divisor 1;
#X msg 72 115 osc1 1 \, osc2 1 \, osc3 0 \, osc4 0 \, RM-divisor 0.75
;
#X msg 87 135 osc1 1 \, osc2 1 \, osc3 1 \, osc4 0 \, RM-divisor 0.6
;
#X msg 102 155 osc1 1 \, osc2 1 \, osc3 1 \, osc4 1 \, RM-divisor 0.5
;
#X connect 0 0 8 0;
#X connect 0 1 9 0;
#X connect 0 2 10 0;
#X connect 0 3 11 0;
#X connect 0 4 12 0;
#X connect 1 0 0 0;
#X connect 7 0 2 0;
#X connect 7 1 3 0;
#X connect 7 2 4 0;
#X connect 7 3 5 0;
#X connect 7 4 6 0;
#X connect 8 0 7 0;
#X connect 9 0 7 0;
#X connect 10 0 7 0;
#X connect 11 0 7 0;
#X connect 12 0 7 0;
#X restore 177 210 pd controleRM;
#X obj 147 67 route osc1 osc2 osc3 osc4;
#X msg 347 33 osc1 300 \, osc2 500 \, osc3 633 \, osc4 850;
#X msg 337 13 osc1 50 \, osc2 100 \, osc3 133 \, osc4 150;
#X msg 327 -7 osc1 50 \, osc2 100 \, osc3 82 \, osc4 68;
#X obj 285 197 inlet~;
#X obj 87 57 r lob;
#X msg 77 82 100;
#X obj 296 385 pre-switch;
#X obj 296 412 switch~;
#X obj 132 412 gate~;
#X obj 132 441 outlet~;
#X obj 296 358 r t-RM;
#X obj 361 108 bng 15 250 50 0 empty empty fase_0 17 7 0 10 -262144
-1 -1;
#X msg 337 168 0;
#X connect 0 0 14 0;
#X connect 1 0 0 1;
#X connect 2 0 1 0;
#X connect 3 0 14 0;
#X connect 4 0 3 1;
#X connect 5 0 4 0;
#X connect 6 0 14 0;
#X connect 7 0 6 1;
#X connect 8 0 7 0;
#X connect 9 0 14 0;
#X connect 10 0 9 1;
#X connect 11 0 10 0;
#X connect 12 0 26 0;
#X connect 13 0 14 1;
#X connect 14 0 22 0;
#X connect 15 0 25 0;
#X connect 16 0 27 0;
#X connect 17 0 23 0;
#X connect 18 0 0 0;
#X connect 19 0 3 0;
#X connect 20 0 6 0;
#X connect 21 0 9 0;
#X connect 22 0 33 0;
#X connect 23 0 18 1;
#X connect 23 1 19 1;
#X connect 23 2 20 1;
#X connect 23 3 21 1;
#X connect 23 4 22 1;
#X connect 24 0 2 0;
#X connect 24 1 5 0;
#X connect 24 2 8 0;
#X connect 24 3 11 0;
#X connect 25 0 24 0;
#X connect 26 0 24 0;
#X connect 27 0 24 0;
#X connect 28 0 18 0;
#X connect 28 0 19 0;
#X connect 28 0 20 0;
#X connect 28 0 21 0;
#X connect 29 0 30 0;
#X connect 30 0 13 0;
#X connect 31 0 32 0;
#X connect 33 0 34 0;
#X connect 35 0 31 0;
#X connect 35 0 33 1;
#X connect 36 0 37 0;
#X connect 37 0 10 1;
#X connect 37 0 7 1;
#X connect 37 0 4 1;
#X connect 37 0 1 1;
#X coords 0 -1 1 1 300 60 1 100 100;
