#N canvas 25 148 1026 717 10;
#X declare -lib iemmatrix;
#X declare -lib Gem;
#X obj -88 28 import iemmatrix;
#X obj 35 27 import Gem;
#X obj -329 212 pix_texture;
#X obj -329 274 square 1.5;
#X obj -329 253 rotateXYZ 0 180 0;
#X obj -329 232 translateXYZ -2.4 -2.4 0.1;
#X text -333 299 Show color detection output;
#X obj -86 120 pix_colordetect;
#X obj -158 282 pix_texture;
#X obj -158 323 rotateXYZ 0 180 0;
#X obj -158 253 pix_equal;
#X msg -139 224 255 0 0 255;
#X obj -26 284 pix_texture;
#X obj -26 325 rotateXYZ 0 180 0;
#X obj -26 183 separator;
#X obj -26 255 pix_equal;
#X obj 111 288 pix_texture;
#X obj 111 329 rotateXYZ 0 180 0;
#X obj 111 187 separator;
#X obj 111 259 pix_equal;
#X obj 243 288 pix_texture;
#X obj 243 329 rotateXYZ 0 180 0;
#X obj 243 187 separator;
#X obj 243 259 pix_equal;
#X obj 375 290 pix_texture;
#X obj 375 331 rotateXYZ 0 180 0;
#X obj 375 189 separator;
#X obj 375 261 pix_equal;
#X obj 512 294 pix_texture;
#X obj 512 335 rotateXYZ 0 180 0;
#X obj 512 193 separator;
#X obj 512 265 pix_equal;
#X msg -139 204 255 0 0 0;
#X msg 130 210 0 0 255 0;
#X msg 130 230 0 0 255 255;
#X msg 262 210 255 255 0 0;
#X msg 262 230 255 255 0 255;
#X msg 394 212 0 0 0 0;
#X msg 394 232 0 0 0 255;
#X msg 531 216 255 255 255 0;
#X msg 531 236 255 255 255 255;
#X obj -158 344 square 0.7;
#X obj 512 356 square 0.7;
#X obj 377 352 square 0.7;
#X obj 244 350 square 0.7;
#X obj 111 350 square 0.7;
#X obj -24 346 square 0.7;
#X obj -158 302 translateXYZ -0.2 -3.2 0.1;
#X obj -26 304 translateXYZ 1 -3.2 0.1;
#X obj 111 308 translateXYZ 2 -3.2 0.1;
#X obj 243 308 translateXYZ 3.3 -3.2 0.1;
#X obj 375 310 translateXYZ -3.2 0 0.1;
#X obj 512 314 translateXYZ -3.2 1.5 0.1;
#X msg -15 230 0 255 0 0 255;
#X msg -7 206 0 254 0 0;
#X obj -158 160 pix_separator;
#X obj -274 184 separator;
#X obj -158 184 separator;
#X obj -26 161 pix_separator;
#X obj 111 161 pix_separator;
#X obj 243 162 pix_separator;
#X obj 375 162 pix_separator;
#X obj 511 163 pix_separator;
#X obj -86 65 inlet;
#X obj 24 65 inlet bang para iniciar;
#X obj 164 104 bng 15 250 50 0 empty empty empty 17 7 0 10 -262144
-1 -1;
#X connect 2 0 5 0;
#X connect 4 0 3 0;
#X connect 5 0 4 0;
#X connect 7 0 55 0;
#X connect 7 0 56 0;
#X connect 7 0 58 0;
#X connect 7 0 59 0;
#X connect 7 0 60 0;
#X connect 7 0 61 0;
#X connect 7 0 62 0;
#X connect 8 0 47 0;
#X connect 9 0 41 0;
#X connect 10 0 8 0;
#X connect 11 0 10 2;
#X connect 12 0 48 0;
#X connect 13 0 46 0;
#X connect 14 0 15 0;
#X connect 15 0 12 0;
#X connect 16 0 49 0;
#X connect 17 0 45 0;
#X connect 18 0 19 0;
#X connect 19 0 16 0;
#X connect 20 0 50 0;
#X connect 21 0 44 0;
#X connect 22 0 23 0;
#X connect 23 0 20 0;
#X connect 24 0 51 0;
#X connect 25 0 43 0;
#X connect 26 0 27 0;
#X connect 27 0 24 0;
#X connect 28 0 52 0;
#X connect 29 0 42 0;
#X connect 30 0 31 0;
#X connect 31 0 28 0;
#X connect 32 0 10 1;
#X connect 33 0 19 1;
#X connect 34 0 19 2;
#X connect 35 0 23 1;
#X connect 36 0 23 2;
#X connect 37 0 27 1;
#X connect 38 0 27 2;
#X connect 39 0 31 1;
#X connect 40 0 31 2;
#X connect 47 0 9 0;
#X connect 48 0 13 0;
#X connect 49 0 17 0;
#X connect 50 0 21 0;
#X connect 51 0 25 0;
#X connect 52 0 29 0;
#X connect 53 0 15 2;
#X connect 54 0 15 1;
#X connect 55 0 57 0;
#X connect 56 0 2 0;
#X connect 57 0 10 0;
#X connect 58 0 14 0;
#X connect 59 0 18 0;
#X connect 60 0 22 0;
#X connect 61 0 26 0;
#X connect 62 0 30 0;
#X connect 63 0 7 0;
#X connect 64 0 65 0;
#X connect 65 0 32 0;
#X connect 65 0 11 0;
#X connect 65 0 54 0;
#X connect 65 0 53 0;
#X connect 65 0 33 0;
#X connect 65 0 34 0;
#X connect 65 0 35 0;
#X connect 65 0 36 0;
#X connect 65 0 37 0;
#X connect 65 0 38 0;
#X connect 65 0 39 0;
#X connect 65 0 40 0;
#X coords 0 -1 1 1 80 20 1 100 100;
