#N canvas 548 132 715 561 10;
#X declare -lib iemmatrix;
#X obj 112 256 import iemmatrix;
#X obj -8 244 pix_equal;
#X floatatom 194 118 5 0 0 0 - - -;
#X text 232 276 number of;
#X text 218 293 detected objects;
#X obj 194 78 mtx_size;
#X floatatom 103 118 3 0 100 3 threshold - -;
#X obj 103 157 / 100;
#X msg 103 178 threshold \$1;
#X floatatom 164 118 3 0 100 3 blobsize - -;
#X obj 193 157 / 100;
#X msg 193 178 blobSize \$1;
#X floatatom 39 452 5 0 0 1 x - -;
#X floatatom 66 472 5 0 0 1 y - -;
#X floatatom 93 452 5 0 0 1 size - -;
#X obj -8 163 pix_separator;
#X msg 164 79 60;
#X msg 103 77 50;
#X floatatom 166 452 5 0 0 1 x - -;
#X floatatom 193 472 5 0 0 1 y - -;
#X floatatom 220 452 5 0 0 1 size - -;
#X obj 137 120 bng 15 250 50 0 empty empty empty 17 7 0 10 -262144
-1 -1;
#X floatatom 296 452 5 0 0 1 x - -;
#X floatatom 323 472 5 0 0 1 y - -;
#X floatatom 350 452 5 0 0 1 size - -;
#X obj 79 320 t a a a a;
#N canvas 691 132 494 415 showobject1 0;
#X obj 216 -3 inlet;
#X obj 183 102 inlet;
#X obj 183 135 spigot;
#X text 206 -25 mtx_size;
#X text 173 84 matrix;
#X obj 82 117 inlet;
#X text 70 96 gem_list;
#X obj 216 74 trigger f f f;
#X obj 183 222 outlet x;
#X obj 270 195 outlet size;
#X obj 195 195 outlet y;
#X obj 291 168 outlet on/off;
#X obj 291 99 sel 0;
#X msg 291 126 0;
#X msg 318 146 1;
#N canvas 67 155 658 547 showblob2-\$0 0;
#X obj 226 215 inlet blobinformation;
#X obj 159 285 unpack 0 0 0 0 0 0 0 0;
#X obj 159 314 outlet weightedX;
#X obj 177 334 outlet weightedY;
#X obj 195 354 outlet weightedSize;
#X obj 214 383 outlet minX;
#X obj 232 403 outlet minY;
#X obj 251 428 outlet maxX;
#X obj 269 448 outlet maxY;
#X obj 288 476 outlet size;
#X obj 523 107 inlet;
#X msg 159 256 \$1 \$2 \$3 \$4 \$5 \$6 \$7 \$8;
#X msg 159 207 row \$1;
#X floatatom 159 187 5 0 0 0 - - -;
#X obj 159 232 matrix;
#X obj 159 145 delay 300;
#X obj 436 148 gemhead 70;
#X msg 479 249 \$4 \$6 \$5 \$7 \$1 \$2;
#X obj 159 165 f 1;
#N canvas 106 214 710 500 rectangle-\$0 0;
#X obj 57 82 inlet;
#X obj 396 -1 inlet;
#X obj 57 311 rectangle;
#X obj 186 63 +;
#X obj 225 64 +;
#X text 219 94 0..2;
#X text 221 114 -1..+1;
#X obj 510 214 -;
#X obj 547 215 -;
#X obj 193 92 - 1;
#X obj 547 246 * -4;
#X obj 581 15 inlet;
#X obj 497 274 *;
#X obj 532 274 *;
#X obj 164 93 - 1;
#X obj 510 246 * -4;
#X obj 57 175 translateXYZ 0 0 0.1;
#X obj 193 115 * -4;
#X obj 57 198 rotateXYZ 0 180 0;
#X obj 163 116 * -4;
#X obj 57 234 separator;
#X obj 248 176 separator;
#X obj 57 289 alpha;
#X obj 57 268 color 1 1 1 0.5;
#X obj 246 310 circle 0.06;
#X obj 245 281 alpha;
#X obj 245 260 color 1 1 1 0.5;
#X obj 24 353 separator;
#X obj 22 464 alpha;
#X obj 23 493 circle 0.2;
#X obj 57 126 separator;
#X obj 22 443 color 0.8 1 0.8 0.5;
#X obj 25 413 rotateXYZ 0 180 0;
#X obj 25 390 translateXYZ -4 0 0.1;
#X text 91 354 debug \, etc;
#X msg 581 247 1;
#X obj 389 26 unpack 0 0 0 0 0 0;
#X obj 247 211 translateXYZ 0 0 0.1;
#X obj 247 234 rotateXYZ 0 180 0;
#X obj 301 84 - 0.5;
#X obj 352 81 - 0.5;
#X obj 294 116 * -8;
#X obj 324 115 * -8;
#X text 339 131 centroid of object;
#X text 132 38 center of bounding box;
#X connect 0 0 30 0;
#X connect 0 0 21 0;
#X connect 1 0 36 0;
#X connect 3 0 14 0;
#X connect 4 0 9 0;
#X connect 7 0 15 0;
#X connect 8 0 10 0;
#X connect 9 0 17 0;
#X connect 10 0 13 1;
#X connect 11 0 35 0;
#X connect 12 0 2 1;
#X connect 13 0 2 2;
#X connect 14 0 19 0;
#X connect 15 0 12 1;
#X connect 16 0 18 0;
#X connect 17 0 16 2;
#X connect 18 0 20 0;
#X connect 19 0 16 1;
#X connect 20 0 23 0;
#X connect 21 0 37 0;
#X connect 22 0 2 0;
#X connect 23 0 22 0;
#X connect 25 0 24 0;
#X connect 26 0 25 0;
#X connect 28 0 29 0;
#X connect 30 0 16 0;
#X connect 31 0 28 0;
#X connect 32 0 31 0;
#X connect 33 0 32 0;
#X connect 35 0 13 0;
#X connect 35 0 12 0;
#X connect 36 0 3 0;
#X connect 36 0 7 0;
#X connect 36 1 3 1;
#X connect 36 1 7 1;
#X connect 36 2 4 0;
#X connect 36 2 8 0;
#X connect 36 3 4 1;
#X connect 36 3 8 1;
#X connect 36 4 39 0;
#X connect 36 5 40 0;
#X connect 37 0 38 0;
#X connect 38 0 26 0;
#X connect 39 0 41 0;
#X connect 40 0 42 0;
#X connect 41 0 37 1;
#X connect 42 0 37 2;
#X restore 436 272 pd rectangle-\$0;
#X connect 0 0 14 1;
#X connect 1 0 2 0;
#X connect 1 1 3 0;
#X connect 1 2 4 0;
#X connect 1 3 5 0;
#X connect 1 4 6 0;
#X connect 1 5 7 0;
#X connect 1 6 8 0;
#X connect 1 7 9 0;
#X connect 10 0 15 0;
#X connect 10 0 19 2;
#X connect 11 0 1 0;
#X connect 12 0 14 0;
#X connect 13 0 12 0;
#X connect 14 0 11 0;
#X connect 14 0 17 0;
#X connect 15 0 18 0;
#X connect 16 0 19 0;
#X connect 17 0 19 1;
#X connect 18 0 13 0;
#X restore 183 168 pd showblob2-\$0;
#X connect 0 0 7 0;
#X connect 1 0 2 0;
#X connect 2 0 15 0;
#X connect 7 0 2 1;
#X connect 7 1 15 1;
#X connect 7 2 12 0;
#X connect 12 0 13 0;
#X connect 12 1 14 0;
#X connect 13 0 11 0;
#X connect 14 0 11 0;
#X connect 15 0 8 0;
#X connect 15 1 10 0;
#X connect 15 7 9 0;
#X restore 39 425 pd showobject1;
#N canvas 691 132 494 415 showobject2 0;
#X obj 216 -3 inlet;
#X obj 183 102 inlet;
#X obj 183 135 spigot;
#X text 206 -25 mtx_size;
#X text 173 84 matrix;
#X obj 82 117 inlet;
#X text 70 96 gem_list;
#X obj 216 74 trigger f f f;
#X obj 183 222 outlet x;
#X obj 270 195 outlet size;
#X obj 195 195 outlet y;
#X obj 291 168 outlet on/off;
#X obj 291 99 sel 0;
#X msg 291 126 0;
#X msg 318 146 1;
#N canvas 67 161 658 547 showblob2-\$0 0;
#X obj 226 215 inlet blobinformation;
#X obj 159 285 unpack 0 0 0 0 0 0 0 0;
#X obj 159 314 outlet weightedX;
#X obj 177 334 outlet weightedY;
#X obj 195 354 outlet weightedSize;
#X obj 214 383 outlet minX;
#X obj 232 403 outlet minY;
#X obj 251 428 outlet maxX;
#X obj 269 448 outlet maxY;
#X obj 288 476 outlet size;
#X obj 523 107 inlet;
#X msg 159 256 \$1 \$2 \$3 \$4 \$5 \$6 \$7 \$8;
#X msg 159 207 row \$1;
#X floatatom 159 187 5 0 0 0 - - -;
#X obj 159 232 matrix;
#X obj 159 145 delay 300;
#X obj 436 148 gemhead 70;
#X msg 479 249 \$4 \$6 \$5 \$7 \$1 \$2;
#X obj 159 165 f 2;
#N canvas 108 208 710 500 rectangle-\$0 0;
#X obj 57 82 inlet;
#X obj 396 -1 inlet;
#X obj 57 311 rectangle;
#X obj 186 63 +;
#X obj 225 64 +;
#X text 219 94 0..2;
#X text 221 114 -1..+1;
#X obj 510 214 -;
#X obj 547 215 -;
#X obj 193 92 - 1;
#X obj 547 246 * -4;
#X obj 581 15 inlet;
#X obj 497 274 *;
#X obj 532 274 *;
#X obj 164 93 - 1;
#X obj 510 246 * -4;
#X obj 57 175 translateXYZ 0 0 0.1;
#X obj 193 115 * -4;
#X obj 57 198 rotateXYZ 0 180 0;
#X obj 163 116 * -4;
#X obj 57 234 separator;
#X obj 248 176 separator;
#X obj 57 289 alpha;
#X obj 57 268 color 1 1 1 0.5;
#X obj 246 310 circle 0.06;
#X obj 245 281 alpha;
#X obj 245 260 color 1 1 1 0.5;
#X obj 24 353 separator;
#X obj 22 464 alpha;
#X obj 23 493 circle 0.2;
#X obj 57 126 separator;
#X obj 22 443 color 0.8 1 0.8 0.5;
#X obj 25 413 rotateXYZ 0 180 0;
#X obj 25 390 translateXYZ -4 0 0.1;
#X text 91 354 debug \, etc;
#X msg 581 247 1;
#X obj 389 26 unpack 0 0 0 0 0 0;
#X obj 247 211 translateXYZ 0 0 0.1;
#X obj 247 234 rotateXYZ 0 180 0;
#X obj 301 84 - 0.5;
#X obj 352 81 - 0.5;
#X obj 294 116 * -8;
#X obj 324 115 * -8;
#X text 339 131 centroid of object;
#X text 132 38 center of bounding box;
#X connect 0 0 30 0;
#X connect 0 0 21 0;
#X connect 1 0 36 0;
#X connect 3 0 14 0;
#X connect 4 0 9 0;
#X connect 7 0 15 0;
#X connect 8 0 10 0;
#X connect 9 0 17 0;
#X connect 10 0 13 1;
#X connect 11 0 35 0;
#X connect 12 0 2 1;
#X connect 13 0 2 2;
#X connect 14 0 19 0;
#X connect 15 0 12 1;
#X connect 16 0 18 0;
#X connect 17 0 16 2;
#X connect 18 0 20 0;
#X connect 19 0 16 1;
#X connect 20 0 23 0;
#X connect 21 0 37 0;
#X connect 22 0 2 0;
#X connect 23 0 22 0;
#X connect 25 0 24 0;
#X connect 26 0 25 0;
#X connect 28 0 29 0;
#X connect 30 0 16 0;
#X connect 31 0 28 0;
#X connect 32 0 31 0;
#X connect 33 0 32 0;
#X connect 35 0 13 0;
#X connect 35 0 12 0;
#X connect 36 0 3 0;
#X connect 36 0 7 0;
#X connect 36 1 3 1;
#X connect 36 1 7 1;
#X connect 36 2 4 0;
#X connect 36 2 8 0;
#X connect 36 3 4 1;
#X connect 36 3 8 1;
#X connect 36 4 39 0;
#X connect 36 5 40 0;
#X connect 37 0 38 0;
#X connect 38 0 26 0;
#X connect 39 0 41 0;
#X connect 40 0 42 0;
#X connect 41 0 37 1;
#X connect 42 0 37 2;
#X restore 436 272 pd rectangle-\$0;
#X connect 0 0 14 1;
#X connect 1 0 2 0;
#X connect 1 1 3 0;
#X connect 1 2 4 0;
#X connect 1 3 5 0;
#X connect 1 4 6 0;
#X connect 1 5 7 0;
#X connect 1 6 8 0;
#X connect 1 7 9 0;
#X connect 10 0 15 0;
#X connect 10 0 19 2;
#X connect 11 0 1 0;
#X connect 12 0 14 0;
#X connect 13 0 12 0;
#X connect 14 0 11 0;
#X connect 14 0 17 0;
#X connect 15 0 18 0;
#X connect 16 0 19 0;
#X connect 17 0 19 1;
#X connect 18 0 13 0;
#X restore 183 168 pd showblob2-\$0;
#X connect 0 0 7 0;
#X connect 1 0 2 0;
#X connect 2 0 15 0;
#X connect 7 0 2 1;
#X connect 7 1 15 1;
#X connect 7 2 12 0;
#X connect 12 0 13 0;
#X connect 12 1 14 0;
#X connect 13 0 11 0;
#X connect 14 0 11 0;
#X connect 15 0 8 0;
#X connect 15 1 10 0;
#X connect 15 7 9 0;
#X restore 166 425 pd showobject2;
#N canvas 687 144 494 415 showobject3 0;
#X obj 216 -3 inlet;
#X obj 183 102 inlet;
#X obj 183 135 spigot;
#X text 206 -25 mtx_size;
#X text 173 84 matrix;
#X obj 82 117 inlet;
#X text 70 96 gem_list;
#X obj 216 74 trigger f f f;
#X obj 183 222 outlet x;
#X obj 270 195 outlet size;
#X obj 195 195 outlet y;
#X obj 291 168 outlet on/off;
#X obj 291 99 sel 0;
#X msg 291 126 0;
#X msg 318 146 1;
#N canvas 67 173 658 547 showblob2-\$0 0;
#X obj 226 215 inlet blobinformation;
#X obj 159 285 unpack 0 0 0 0 0 0 0 0;
#X obj 159 314 outlet weightedX;
#X obj 177 334 outlet weightedY;
#X obj 195 354 outlet weightedSize;
#X obj 214 383 outlet minX;
#X obj 232 403 outlet minY;
#X obj 251 428 outlet maxX;
#X obj 269 448 outlet maxY;
#X obj 288 476 outlet size;
#X obj 523 107 inlet;
#X msg 159 256 \$1 \$2 \$3 \$4 \$5 \$6 \$7 \$8;
#X msg 159 207 row \$1;
#X floatatom 159 187 5 0 0 0 - - -;
#X obj 159 232 matrix;
#X obj 159 145 delay 300;
#X obj 436 148 gemhead 70;
#X msg 479 249 \$4 \$6 \$5 \$7 \$1 \$2;
#N canvas 104 220 710 500 rectangle-\$0 0;
#X obj 57 82 inlet;
#X obj 396 -1 inlet;
#X obj 57 311 rectangle;
#X obj 186 63 +;
#X obj 225 64 +;
#X text 219 94 0..2;
#X text 221 114 -1..+1;
#X obj 510 214 -;
#X obj 547 215 -;
#X obj 193 92 - 1;
#X obj 547 246 * -4;
#X obj 581 15 inlet;
#X obj 497 274 *;
#X obj 532 274 *;
#X obj 164 93 - 1;
#X obj 510 246 * -4;
#X obj 57 175 translateXYZ 0 0 0.1;
#X obj 193 115 * -4;
#X obj 57 198 rotateXYZ 0 180 0;
#X obj 163 116 * -4;
#X obj 57 234 separator;
#X obj 248 176 separator;
#X obj 57 289 alpha;
#X obj 57 268 color 1 1 1 0.5;
#X obj 246 310 circle 0.06;
#X obj 245 281 alpha;
#X obj 245 260 color 1 1 1 0.5;
#X obj 24 353 separator;
#X obj 22 464 alpha;
#X obj 23 493 circle 0.2;
#X obj 57 126 separator;
#X obj 22 443 color 0.8 1 0.8 0.5;
#X obj 25 413 rotateXYZ 0 180 0;
#X obj 25 390 translateXYZ -4 0 0.1;
#X text 91 354 debug \, etc;
#X msg 581 247 1;
#X obj 389 26 unpack 0 0 0 0 0 0;
#X obj 247 211 translateXYZ 0 0 0.1;
#X obj 247 234 rotateXYZ 0 180 0;
#X obj 301 84 - 0.5;
#X obj 352 81 - 0.5;
#X obj 294 116 * -8;
#X obj 324 115 * -8;
#X text 339 131 centroid of object;
#X text 132 38 center of bounding box;
#X connect 0 0 30 0;
#X connect 0 0 21 0;
#X connect 1 0 36 0;
#X connect 3 0 14 0;
#X connect 4 0 9 0;
#X connect 7 0 15 0;
#X connect 8 0 10 0;
#X connect 9 0 17 0;
#X connect 10 0 13 1;
#X connect 11 0 35 0;
#X connect 12 0 2 1;
#X connect 13 0 2 2;
#X connect 14 0 19 0;
#X connect 15 0 12 1;
#X connect 16 0 18 0;
#X connect 17 0 16 2;
#X connect 18 0 20 0;
#X connect 19 0 16 1;
#X connect 20 0 23 0;
#X connect 21 0 37 0;
#X connect 22 0 2 0;
#X connect 23 0 22 0;
#X connect 25 0 24 0;
#X connect 26 0 25 0;
#X connect 28 0 29 0;
#X connect 30 0 16 0;
#X connect 31 0 28 0;
#X connect 32 0 31 0;
#X connect 33 0 32 0;
#X connect 35 0 13 0;
#X connect 35 0 12 0;
#X connect 36 0 3 0;
#X connect 36 0 7 0;
#X connect 36 1 3 1;
#X connect 36 1 7 1;
#X connect 36 2 4 0;
#X connect 36 2 8 0;
#X connect 36 3 4 1;
#X connect 36 3 8 1;
#X connect 36 4 39 0;
#X connect 36 5 40 0;
#X connect 37 0 38 0;
#X connect 38 0 26 0;
#X connect 39 0 41 0;
#X connect 40 0 42 0;
#X connect 41 0 37 1;
#X connect 42 0 37 2;
#X restore 436 272 pd rectangle-\$0;
#X obj 159 165 f 3;
#X connect 0 0 14 1;
#X connect 1 0 2 0;
#X connect 1 1 3 0;
#X connect 1 2 4 0;
#X connect 1 3 5 0;
#X connect 1 4 6 0;
#X connect 1 5 7 0;
#X connect 1 6 8 0;
#X connect 1 7 9 0;
#X connect 10 0 15 0;
#X connect 10 0 18 2;
#X connect 11 0 1 0;
#X connect 12 0 14 0;
#X connect 13 0 12 0;
#X connect 14 0 11 0;
#X connect 14 0 17 0;
#X connect 15 0 19 0;
#X connect 16 0 18 0;
#X connect 17 0 18 1;
#X connect 19 0 13 0;
#X restore 183 168 pd showblob2-\$0;
#X connect 0 0 7 0;
#X connect 1 0 2 0;
#X connect 2 0 15 0;
#X connect 7 0 2 1;
#X connect 7 1 15 1;
#X connect 7 2 12 0;
#X connect 12 0 13 0;
#X connect 12 1 14 0;
#X connect 13 0 11 0;
#X connect 14 0 11 0;
#X connect 15 0 8 0;
#X connect 15 1 10 0;
#X connect 15 7 9 0;
#X restore 296 425 pd showobject3;
#X text -47 242 Green;
#X obj 79 398 spigot;
#X obj 112 371 > 0;
#X obj 206 398 spigot;
#X obj 239 371 > 1;
#X obj 336 398 spigot;
#X obj 194 330 t f f f f f f;
#X obj 369 371 > 2;
#X obj -8 136 inlet;
#X obj 39 495 outlet;
#X obj 66 515 outlet;
#X obj 93 495 outlet;
#X obj 120 515 outlet;
#X obj 166 495 outlet;
#X obj 193 515 outlet;
#X obj 220 495 outlet;
#X obj 247 515 outlet;
#X obj 296 495 outlet;
#X obj 323 515 outlet;
#X obj 350 495 outlet;
#X obj 377 515 outlet;
#X obj 137 46 inlet;
#X obj -8 293 pix_multiblob 3;
#X msg 17 195 255 0 0 0;
#X msg 43 218 255 0 0 255;
#X connect 1 0 51 0;
#X connect 2 0 35 0;
#X connect 5 0 2 0;
#X connect 6 0 7 0;
#X connect 7 0 8 0;
#X connect 8 0 51 0;
#X connect 9 0 10 0;
#X connect 10 0 11 0;
#X connect 11 0 51 0;
#X connect 12 0 38 0;
#X connect 13 0 39 0;
#X connect 14 0 40 0;
#X connect 15 0 1 0;
#X connect 16 0 9 0;
#X connect 17 0 6 0;
#X connect 18 0 42 0;
#X connect 19 0 43 0;
#X connect 20 0 44 0;
#X connect 21 0 52 0;
#X connect 21 0 53 0;
#X connect 21 0 17 0;
#X connect 21 0 16 0;
#X connect 22 0 46 0;
#X connect 23 0 47 0;
#X connect 24 0 48 0;
#X connect 25 0 30 0;
#X connect 25 1 32 0;
#X connect 25 2 34 0;
#X connect 25 3 5 0;
#X connect 26 0 12 0;
#X connect 26 1 13 0;
#X connect 26 2 14 0;
#X connect 26 3 41 0;
#X connect 27 0 18 0;
#X connect 27 1 19 0;
#X connect 27 2 20 0;
#X connect 27 3 45 0;
#X connect 28 0 22 0;
#X connect 28 1 23 0;
#X connect 28 2 24 0;
#X connect 28 3 49 0;
#X connect 30 0 26 1;
#X connect 31 0 30 1;
#X connect 32 0 27 1;
#X connect 33 0 32 1;
#X connect 34 0 28 1;
#X connect 35 0 26 2;
#X connect 35 1 31 0;
#X connect 35 2 27 2;
#X connect 35 3 33 0;
#X connect 35 4 28 2;
#X connect 35 5 36 0;
#X connect 36 0 34 1;
#X connect 37 0 15 0;
#X connect 50 0 21 0;
#X connect 51 1 25 0;
#X connect 52 0 1 1;
#X connect 53 0 1 2;
#X coords 0 -1 1 1 130 50 1 100 100;
