#N canvas 279 101 873 602 10;
#X obj 76 323 metro;
#X floatatom 103 117 5 0 0 3 bpm - -;
#X obj 139 118 tgl 15 0 empty empty empty 17 7 0 10 -262144 -1 -1 0
1;
#X obj 103 182 / 60;
#X obj 103 264 / 1;
#X floatatom 103 290 5 0 0 0 - - -;
#X obj 103 213 t b f;
#X msg 103 238 250;
#X obj 76 380 +;
#X floatatom 76 407 5 0 0 0 - - -;
#X obj -9 292 sel 0 1;
#X obj 29 233 t f f;
#X obj -9 346 s zero;
#X obj 10 320 s hum;
#X obj 126 326 r zero;
#X msg 116 355 0;
#X msg 76 356 1;
#X obj 172 462 +;
#X floatatom 172 489 5 0 0 0 - - -;
#X msg 172 438 1;
#X obj 116 466 sel 4 1;
#X obj 76 440 t f f;
#X obj 173 514 t f f;
#X obj 210 549 sel 8;
#X msg 204 438 0;
#X obj 214 405 r zero;
#X obj 76 552 sprintf %d%s;
#X obj 76 515 f;
#X obj 76 474 t b f;
#X obj 76 581 outlet;
#X floatatom 159 117 5 0 0 3 loko - -;
#X obj 268 572 outlet;
#X obj 268 538 * 4;
#X connect 0 0 16 0;
#X connect 1 0 3 0;
#X connect 2 0 11 0;
#X connect 3 0 6 0;
#X connect 4 0 5 0;
#X connect 5 0 0 1;
#X connect 5 0 32 0;
#X connect 6 0 7 0;
#X connect 6 1 4 1;
#X connect 7 0 4 0;
#X connect 8 0 9 0;
#X connect 9 0 8 1;
#X connect 9 0 21 0;
#X connect 10 0 12 0;
#X connect 10 1 13 0;
#X connect 11 0 10 0;
#X connect 11 1 0 0;
#X connect 14 0 15 0;
#X connect 15 0 8 1;
#X connect 16 0 8 0;
#X connect 17 0 18 0;
#X connect 18 0 17 1;
#X connect 18 0 22 0;
#X connect 19 0 17 0;
#X connect 20 0 15 0;
#X connect 20 1 19 0;
#X connect 21 0 28 0;
#X connect 21 1 20 0;
#X connect 22 0 27 1;
#X connect 22 1 23 0;
#X connect 23 0 24 0;
#X connect 24 0 17 1;
#X connect 25 0 24 0;
#X connect 26 0 29 0;
#X connect 26 0 30 0;
#X connect 27 0 26 0;
#X connect 28 0 27 0;
#X connect 28 1 26 1;
#X connect 32 0 31 0;
#X coords 0 -1 1 1 100 50 1 100 100;
