#N canvas 0 0 450 405 10;
#X obj 180 30 inlet;
#X obj 180 78 * 0.00787402;
#X obj 180 321 outlet;
#X obj 180 107 * 100;
#X floatatom 295 70 5 0 0 0 - - -;
#X obj 180 54 t f f;
#X obj 180 161 i;
#X connect 0 0 4 0;
#X connect 0 0 5 0;
#X connect 1 0 3 0;
#X connect 3 0 6 0;
#X connect 5 1 1 0;
#X connect 6 0 2 0;
