#N canvas 336 229 715 454 10;
#X obj 191 174 metro;
#X obj 304 132 tgl 15 0 empty empty empty 0 -6 0 10 -262144 -1 -1 0
1;
#X floatatom 163 133 5 0 0 2 time - -;
#X obj 191 214 random 101;
#X obj 123 319 cos~;
#X obj 184 326 cos~;
#X obj 428 234 snapshot~;
#X obj 428 206 metro;
#X obj 428 182 tgl 15 0 empty lb empty 0 -6 0 10 -262144 -1 -1 0 1
;
#X obj 361 236 snapshot~;
#X floatatom 424 295 20 0 0 0 - - -;
#X floatatom 492 320 10 0 0 0 - - -;
#X floatatom 81 235 5 0 0 0 - - -;
#X obj 443 376 +;
#X floatatom 434 415 20 0 0 0 - - -;
#X obj 123 243 pack;
#X obj 123 269 line~;
#X obj 304 58 inlet;
#X obj 189 58 inlet;
#X obj 108 383 *~;
#X obj 169 383 *~;
#X obj 47 70 inlet~;
#X floatatom 123 133 5 0 100 2 local - -;
#X obj 149 58 inlet;
#X obj 230 98 f \$1;
#X obj 230 69 loadbang;
#X obj 169 415 outlet~;
#X obj 107 415 outlet~;
#X obj 229 415 outlet;
#X obj 57 90 inlet~;
#X obj 123 208 * 0.0025;
#X obj 183 295 +~ 0.749999;
#X obj 124 98 f \$2;
#X connect 0 0 3 0;
#X connect 1 0 0 0;
#X connect 2 0 0 1;
#X connect 2 0 15 1;
#X connect 3 0 22 0;
#X connect 4 0 9 0;
#X connect 4 0 19 1;
#X connect 5 0 6 0;
#X connect 5 0 20 1;
#X connect 6 0 11 0;
#X connect 7 0 6 0;
#X connect 7 0 9 0;
#X connect 8 0 7 0;
#X connect 9 0 10 0;
#X connect 10 0 13 0;
#X connect 11 0 13 1;
#X connect 13 0 14 0;
#X connect 15 0 16 0;
#X connect 16 0 4 0;
#X connect 16 0 31 0;
#X connect 17 0 1 0;
#X connect 18 0 2 0;
#X connect 19 0 27 0;
#X connect 20 0 26 0;
#X connect 21 0 19 0;
#X connect 22 0 28 0;
#X connect 22 0 30 0;
#X connect 23 0 22 0;
#X connect 24 0 2 0;
#X connect 25 0 24 0;
#X connect 25 0 32 0;
#X connect 29 0 20 0;
#X connect 30 0 12 0;
#X connect 30 0 15 0;
#X connect 31 0 5 0;
#X connect 32 0 22 0;
#X coords 0 454 1 453 100 50 0;
