#N canvas 464 229 741 570 10;
#X floatatom 291 100 6 0 0 0 - - -;
#X obj 195 342 outlet;
#X obj 242 492 outlet;
#X obj 215 273 gate;
#X msg 115 72 1;
#X obj 215 313 t f f;
#X obj 129 272 outlet;
#X msg 215 173 0;
#X floatatom 287 312 5 0 0 0 - - -;
#X obj 150 76 bng 15 250 50 0 empty empty empty 17 7 0 10 -262144 -1
-1;
#X obj 178 293 gate;
#X obj 236 233 f;
#X obj 236 253 t f f;
#X obj 215 153 delay 100;
#X obj 236 42 inlet;
#X obj 115 52 inlet;
#X obj 215 72 f \$1;
#X obj 215 22 loadbang;
#X obj 215 293 pipe \$1;
#X floatatom 264 75 5 0 0 0 - - -;
#X obj 128 213 gate;
#X obj 115 243 pipe \$1;
#X obj 275 101 tgl 15 0 empty empty empty 17 7 0 10 -262144 -1 -1 0
1;
#X obj 115 125 t f f b b f f f;
#X obj 215 132 - 50;
#X obj 242 463 line;
#X msg 242 443 \$1 50;
#X text 284 159 \$1 tempo de delay \$2 valor para ajustar o inlet (extensao
- valor a multiplicar para criar o intervalo \$3 soma para o valor
do inlet e fator multiplicador para a definicao da fundamental;
#X obj 242 380 ajusta-freq1 \$3 \$4;
#X obj 242 342 * \$2;
#X connect 3 0 18 0;
#X connect 4 0 23 0;
#X connect 5 0 1 0;
#X connect 5 1 8 0;
#X connect 5 1 29 0;
#X connect 7 0 3 0;
#X connect 10 0 18 0;
#X connect 11 0 12 0;
#X connect 12 0 3 1;
#X connect 12 1 5 0;
#X connect 13 0 7 0;
#X connect 14 0 19 0;
#X connect 14 0 11 0;
#X connect 15 0 4 0;
#X connect 15 0 9 0;
#X connect 16 0 24 0;
#X connect 17 0 16 0;
#X connect 18 0 5 0;
#X connect 18 0 10 1;
#X connect 20 0 21 0;
#X connect 21 0 20 1;
#X connect 21 0 6 0;
#X connect 22 0 10 0;
#X connect 22 0 20 0;
#X connect 23 0 21 0;
#X connect 23 1 6 0;
#X connect 23 2 13 0;
#X connect 23 3 11 0;
#X connect 23 4 3 0;
#X connect 23 5 22 0;
#X connect 24 0 13 0;
#X connect 25 0 2 0;
#X connect 26 0 25 0;
#X connect 28 0 26 0;
#X connect 29 0 28 0;
#X coords 0 -1 1 1 230 17 1 100 100;
