#N canvas 484 191 741 570 10;
#X floatatom 222 363 5 0 0 0 - - -;
#X obj 175 342 outlet;
#X obj 222 492 outlet;
#X obj 195 273 gate;
#X msg 95 72 1;
#X obj 195 313 t f f;
#X obj 109 272 outlet;
#X msg 195 173 0;
#X floatatom 267 312 5 0 0 0 - - -;
#X obj 130 76 bng 15 250 50 0 empty empty empty 17 7 0 10 -262144 -1
-1;
#X obj 158 293 gate;
#X obj 216 233 f;
#X obj 216 253 t f f;
#X obj 195 153 delay 100;
#X obj 216 42 inlet;
#X obj 95 52 inlet;
#X obj 222 343 * \$2;
#X obj 195 72 f \$1;
#X obj 195 22 loadbang;
#X obj 195 293 pipe \$1;
#X obj 222 472 + \$3;
#X floatatom 244 75 5 0 0 0 - - -;
#X obj 108 213 gate;
#X obj 95 243 pipe \$1;
#X obj 295 101 tgl 15 0 empty empty empty 17 7 0 10 -262144 -1 -1 0
1;
#X obj 95 125 t f f b b f f f;
#X obj 195 132 - 50;
#X obj 222 443 line;
#X msg 222 423 \$1 50;
#X obj 222 392 * \$3;
#X text 264 159 \$1 tempo de delay \$2 valor para ajustar o inlet (extensao
- valor multiplicador pela serie harmonica \$3 soma para o valor do
inlet e fator multiplicador para a criacao da fundamental;
#X connect 0 0 29 0;
#X connect 3 0 19 0;
#X connect 4 0 25 0;
#X connect 5 0 1 0;
#X connect 5 1 8 0;
#X connect 5 1 16 0;
#X connect 7 0 3 0;
#X connect 10 0 19 0;
#X connect 11 0 12 0;
#X connect 12 0 3 1;
#X connect 12 1 5 0;
#X connect 13 0 7 0;
#X connect 14 0 21 0;
#X connect 14 0 11 0;
#X connect 15 0 4 0;
#X connect 15 0 9 0;
#X connect 16 0 0 0;
#X connect 17 0 26 0;
#X connect 18 0 17 0;
#X connect 19 0 5 0;
#X connect 19 0 10 1;
#X connect 20 0 2 0;
#X connect 22 0 23 0;
#X connect 23 0 22 1;
#X connect 23 0 6 0;
#X connect 24 0 10 0;
#X connect 24 0 22 0;
#X connect 25 0 23 0;
#X connect 25 1 6 0;
#X connect 25 2 13 0;
#X connect 25 3 11 0;
#X connect 25 4 3 0;
#X connect 25 5 24 0;
#X connect 26 0 13 0;
#X connect 27 0 20 0;
#X connect 28 0 27 0;
#X connect 29 0 28 0;
#X coords 0 -1 1 1 210 17 1 100 100;
