#N canvas 239 229 741 570 10;
#X floatatom 117 116 10 0 0 0 - - -;
#X obj 195 382 outlet;
#X obj 242 532 outlet;
#X obj 215 313 gate;
#X msg 115 72 1;
#X obj 215 353 t f f;
#X obj 119 312 outlet;
#X msg 215 213 0;
#X floatatom 287 352 5 0 0 0 - - -;
#X obj 150 76 bng 15 250 50 0 empty empty empty 17 7 0 10 -262144 -1
-1;
#X obj 178 333 gate;
#X obj 236 273 f;
#X obj 236 293 t f f;
#X obj 215 193 delay 100;
#X obj 236 42 inlet;
#X obj 115 52 inlet;
#X obj 215 72 f \$1;
#X obj 215 22 loadbang;
#X obj 215 333 pipe \$1;
#X floatatom 264 75 5 0 0 0 - - -;
#X obj 118 253 gate;
#X obj 105 283 pipe \$1;
#X obj 101 117 tgl 15 0 empty empty empty 17 7 0 10 -262144 -1 -1 1
1;
#X obj 215 172 - 50;
#X obj 242 503 line;
#X msg 242 483 \$1 50;
#X obj 242 420 ajusta-freq1 \$3 \$4;
#X obj 242 382 * \$2;
#X text 284 199 \$1 tempo de delay \$2 valor para ajustar o inlet \$3
intervalo-ambito (de baixo para cima) \$4 fundamental em relacao ao
sample original;
#X obj 105 165 t f f b b f f f b;
#X connect 3 0 18 0;
#X connect 4 0 29 0;
#X connect 5 0 1 0;
#X connect 5 1 8 0;
#X connect 5 1 27 0;
#X connect 7 0 3 0;
#X connect 10 0 18 0;
#X connect 11 0 12 0;
#X connect 12 0 3 1;
#X connect 12 1 5 0;
#X connect 13 0 7 0;
#X connect 14 0 19 0;
#X connect 14 0 11 0;
#X connect 15 0 4 0;
#X connect 15 0 9 0;
#X connect 16 0 23 0;
#X connect 17 0 16 0;
#X connect 18 0 5 0;
#X connect 18 0 10 1;
#X connect 20 0 21 0;
#X connect 21 0 20 1;
#X connect 21 0 6 0;
#X connect 22 0 10 0;
#X connect 22 0 20 0;
#X connect 23 0 13 0;
#X connect 24 0 2 0;
#X connect 25 0 24 0;
#X connect 26 0 25 0;
#X connect 26 1 0 0;
#X connect 27 0 26 0;
#X connect 29 0 21 0;
#X connect 29 1 6 0;
#X connect 29 2 13 0;
#X connect 29 3 11 0;
#X connect 29 4 3 0;
#X connect 29 5 22 0;
#X coords 0 -1 1 1 200 34 1 100 100;
