#N canvas 157 258 493 300 10;
#X obj 126 -9 inlet~;
#X obj 327 60 sig~;
#X floatatom 141 121 7 0 0 3 del-t - -;
#X obj 326 229 outlet~;
#X floatatom 222 121 5 0 100 3 vol - -;
#X floatatom 189 121 5 0 100 3 fb - -;
#X obj 67 41 loadbang;
#X obj 326 180 hip~ 10;
#X obj 220 5 inlet;
#X obj 120 154 bng 15 250 50 0 empty empty 90 0 21 0 10 -262144 -1
-1;
#X obj 160 154 bng 15 250 50 0 empty empty 100 0 21 0 10 -262144 -1
-1;
#X obj 180 154 bng 15 250 50 0 empty empty 105 0 21 0 10 -262144 -1
-1;
#X obj 200 154 bng 15 250 50 0 empty empty 110 0 21 0 10 -262144 -1
-1;
#X msg 26 215 90;
#X msg 66 215 100;
#X msg 86 215 105;
#X msg 106 215 110;
#X obj 140 154 bng 15 250 50 0 empty empty 97 0 21 0 10 -262144 -1
-1;
#X msg 46 215 97;
#X obj 100 154 bng 15 250 50 0 empty empty 70 0 21 0 10 -262144 -1
-1;
#X msg 6 215 70;
#X obj 220 154 bng 15 250 50 0 empty empty 115 0 21 0 10 -262144 -1
-1;
#X msg 126 215 115;
#X msg 67 92 40;
#X obj 261 5 inlet;
#X obj 301 5 inlet;
#X obj 326 157 vd~ dela-\$0;
#X obj 326 203 gatt~ 50;
#X obj 176 43 gatt~ 50;
#X obj 101 121 tgl 30 0 empty empty empty 17 7 0 10 -262144 -1 -1 1
1;
#X obj 341 5 inlet;
#X obj 141 97 f \$1;
#X obj 126 18 gate~ 50;
#X obj 189 97 f \$2;
#X obj 127 75 delwrite~ dela-\$0 \$3;
#X obj 327 80 gate~ 50;
#X obj 242 102 tgl 15 0 empty empty empty 17 7 0 10 -262144 -1 -1 0
1;
#X msg 364 53 1;
#X msg 390 53 0;
#X obj 347 130 gate~ 50;
#X msg 384 103 1;
#X msg 410 103 0;
#X obj 347 110 inlet~;
#X obj 389 9 sel 0 1;
#X obj 67 71 t b b b b;
#X connect 0 0 32 0;
#X connect 1 0 35 0;
#X connect 2 0 1 0;
#X connect 4 0 27 1;
#X connect 5 0 28 1;
#X connect 6 0 44 0;
#X connect 7 0 27 0;
#X connect 7 0 28 0;
#X connect 8 0 31 0;
#X connect 9 0 13 0;
#X connect 10 0 14 0;
#X connect 11 0 15 0;
#X connect 12 0 16 0;
#X connect 13 0 5 0;
#X connect 14 0 5 0;
#X connect 15 0 5 0;
#X connect 16 0 5 0;
#X connect 17 0 18 0;
#X connect 18 0 5 0;
#X connect 19 0 20 0;
#X connect 20 0 5 0;
#X connect 21 0 22 0;
#X connect 22 0 5 0;
#X connect 23 0 4 0;
#X connect 24 0 33 0;
#X connect 25 0 4 0;
#X connect 26 0 7 0;
#X connect 27 0 3 0;
#X connect 28 0 34 0;
#X connect 29 0 32 1;
#X connect 30 0 29 0;
#X connect 31 0 2 0;
#X connect 32 0 34 0;
#X connect 33 0 5 0;
#X connect 35 0 26 0;
#X connect 36 0 43 0;
#X connect 37 0 35 1;
#X connect 38 0 35 1;
#X connect 39 0 26 0;
#X connect 40 0 39 1;
#X connect 41 0 39 1;
#X connect 42 0 39 0;
#X connect 43 0 37 0;
#X connect 43 0 41 0;
#X connect 43 1 38 0;
#X connect 43 1 40 0;
#X connect 44 0 23 0;
#X connect 44 1 31 0;
#X connect 44 2 33 0;
#X connect 44 3 37 0;
#X coords 0 -1 1 1 160 80 1 100 100;
