#N canvas 25 394 450 300 10;
#X obj 112 23 inlet~;
#X obj 313 62 sig~;
#X floatatom 142 103 5 0 0 3 del-t - -;
#X obj 312 161 outlet~;
#X obj 312 135 gatt~;
#X floatatom 208 103 5 0 100 3 vol - -;
#X floatatom 175 103 5 0 100 3 fb - -;
#X obj 162 25 gatt~;
#X obj 53 53 loadbang;
#X obj 312 112 hip~ 10;
#X obj 267 17 inlet;
#X obj 122 130 bng 15 250 50 0 empty empty 90 0 21 0 10 -262144 -1
-1;
#X obj 162 130 bng 15 250 50 0 empty empty 100 0 21 0 10 -262144 -1
-1;
#X obj 182 130 bng 15 250 50 0 empty empty 105 0 21 0 10 -262144 -1
-1;
#X obj 202 130 bng 15 250 50 0 empty empty 110 0 21 0 10 -262144 -1
-1;
#X msg 122 197 90;
#X msg 162 197 100;
#X msg 182 197 105;
#X msg 202 197 110;
#X obj 142 130 bng 15 250 50 0 empty empty 97 0 21 0 10 -262144 -1
-1;
#X msg 142 197 97;
#X obj 102 130 bng 15 250 50 0 empty empty 70 0 21 0 10 -262144 -1
-1;
#X msg 102 197 70;
#X obj 222 130 bng 15 250 50 0 empty empty 115 0 21 0 10 -262144 -1
-1;
#X msg 222 197 115;
#X msg 53 74 40;
#X obj 317 17 inlet;
#X obj 357 17 inlet;
#X obj 312 89 vd~ dela-\$0;
#X obj 113 57 delwrite~ dela-\$0 60000;
#X connect 0 0 29 0;
#X connect 1 0 28 0;
#X connect 2 0 1 0;
#X connect 4 0 3 0;
#X connect 5 0 4 1;
#X connect 6 0 7 1;
#X connect 7 0 29 0;
#X connect 8 0 25 0;
#X connect 9 0 4 0;
#X connect 9 0 7 0;
#X connect 10 0 2 0;
#X connect 11 0 15 0;
#X connect 12 0 16 0;
#X connect 13 0 17 0;
#X connect 14 0 18 0;
#X connect 15 0 6 0;
#X connect 16 0 6 0;
#X connect 17 0 6 0;
#X connect 18 0 6 0;
#X connect 19 0 20 0;
#X connect 20 0 6 0;
#X connect 21 0 22 0;
#X connect 22 0 6 0;
#X connect 23 0 24 0;
#X connect 24 0 6 0;
#X connect 25 0 5 0;
#X connect 26 0 6 0;
#X connect 27 0 5 0;
#X connect 28 0 9 0;
#X coords 0 -1 1 1 140 60 1 100 100;
