#N canvas 334 456 631 331 10;
#X obj 126 -59 inlet~;
#X obj 362 80 sig~;
#X floatatom 141 121 7 0 0 3 del-t - -;
#X obj 316 179 outlet~;
#X floatatom 227 121 5 0 100 3 vol - -;
#X floatatom 189 121 5 0 100 3 fb - -;
#X obj 67 1 loadbang;
#X obj 316 130 hip~ 10;
#X obj 271 -65 inlet;
#X obj 120 154 bng 15 250 50 0 empty empty 90 0 21 0 10 -262144 -1
-1;
#X obj 160 154 bng 15 250 50 0 empty empty 100 0 21 0 10 -262144 -1
-1;
#X obj 180 154 bng 15 250 50 0 empty empty 105 0 21 0 10 -262144 -1
-1;
#X obj 200 154 bng 15 250 50 0 empty empty 110 0 21 0 10 -262144 -1
-1;
#X msg 46 195 90;
#X msg 86 195 100;
#X msg 106 195 105;
#X msg 126 195 110;
#X obj 140 154 bng 15 250 50 0 empty empty 97 0 21 0 10 -262144 -1
-1;
#X msg 66 195 97;
#X obj 100 154 bng 15 250 50 0 empty empty 70 0 21 0 10 -262144 -1
-1;
#X msg 26 195 70;
#X obj 220 154 bng 15 250 50 0 empty empty 115 0 21 0 10 -262144 -1
-1;
#X msg 146 195 115;
#X obj 321 -65 inlet;
#X obj 361 -65 inlet;
#X obj 316 153 gatt~ 50;
#X obj 176 -7 gatt~ 50;
#X obj 101 121 tgl 30 0 empty empty empty 17 7 0 10 -262144 -1 -1 1
1;
#X obj 401 -65 inlet;
#X obj 141 77 f \$1;
#X obj 189 77 f \$2;
#X obj 206 -59 inlet~;
#X obj 127 25 delwrite~ delaL-\$0 \$3;
#X obj 316 107 vd~ delaL-\$0;
#X obj 416 130 hip~ 10;
#X obj 416 153 gatt~ 50;
#X obj 416 179 outlet~;
#X obj 416 107 vd~ delaR-\$0;
#X obj 276 -8 gatt~ 50;
#X obj 277 25 delwrite~ delaR-\$0 \$3;
#X obj 126 -32 gate~ 200;
#X obj 206 -32 gate~ 200;
#X obj 317 78 line~;
#X msg 317 51 \$1 200;
#X obj 101 77 f \$5;
#X obj 227 77 f \$4;
#X obj 67 31 t b b b b b;
#X connect 0 0 40 0;
#X connect 2 0 43 0;
#X connect 4 0 25 1;
#X connect 4 0 35 1;
#X connect 5 0 26 1;
#X connect 5 0 38 1;
#X connect 6 0 46 0;
#X connect 7 0 25 0;
#X connect 7 0 26 0;
#X connect 8 0 29 0;
#X connect 9 0 13 0;
#X connect 10 0 14 0;
#X connect 11 0 15 0;
#X connect 12 0 16 0;
#X connect 13 0 5 0;
#X connect 14 0 5 0;
#X connect 15 0 5 0;
#X connect 16 0 5 0;
#X connect 17 0 18 0;
#X connect 18 0 5 0;
#X connect 19 0 20 0;
#X connect 20 0 5 0;
#X connect 21 0 22 0;
#X connect 22 0 5 0;
#X connect 23 0 30 0;
#X connect 24 0 4 0;
#X connect 25 0 3 0;
#X connect 26 0 32 0;
#X connect 27 0 40 1;
#X connect 27 0 41 1;
#X connect 28 0 44 0;
#X connect 29 0 2 0;
#X connect 30 0 5 0;
#X connect 31 0 41 0;
#X connect 33 0 7 0;
#X connect 34 0 35 0;
#X connect 34 0 38 0;
#X connect 35 0 36 0;
#X connect 37 0 34 0;
#X connect 38 0 39 0;
#X connect 40 0 32 0;
#X connect 41 0 39 0;
#X connect 42 0 33 0;
#X connect 42 0 37 0;
#X connect 43 0 42 0;
#X connect 44 0 27 0;
#X connect 45 0 4 0;
#X connect 46 0 45 0;
#X connect 46 2 44 0;
#X connect 46 3 30 0;
#X connect 46 4 29 0;
#X coords 0 -1 1 1 200 80 1 100 100;
