#N canvas 671 210 450 415 10;
#X floatatom 111 77 5 0 0 2 x1 - -;
#X floatatom 71 77 5 0 0 2 x2 - -;
#X obj 71 137 t f f;
#X obj 71 167 *;
#X obj 71 227 sqrt;
#X floatatom 71 257 5 0 0 2 distância - -;
#X floatatom 201 77 5 0 0 2 y2 - -;
#X floatatom 161 77 5 0 0 2 y2 - -;
#X obj 161 137 t f f;
#X obj 161 167 *;
#X obj 71 107 -;
#X obj 161 107 -;
#X obj 71 197 +;
#X floatatom 86 287 5 0 0 2 raio - -;
#X floatatom 71 347 5 0 0 1 dentro-fora - -;
#X obj 71 317 <=;
#X obj 111 37 f \$1;
#X obj 201 37 f \$2;
#X obj 131 7 loadbang;
#X obj 111 227 f \$3;
#X obj 71 -13 inlet x-movel;
#X obj 161 -13 inlet y-movel;
#X obj 251 -13 inlet raio;
#X text 249 36 arg1-x da detecção arg2-y da detecção arg3-raio
;
#X connect 0 0 10 1;
#X connect 1 0 10 0;
#X connect 2 0 3 0;
#X connect 2 1 3 1;
#X connect 3 0 12 0;
#X connect 4 0 5 0;
#X connect 5 0 15 0;
#X connect 6 0 11 1;
#X connect 7 0 11 0;
#X connect 8 0 9 0;
#X connect 8 1 9 1;
#X connect 9 0 12 1;
#X connect 10 0 2 0;
#X connect 11 0 8 0;
#X connect 12 0 4 0;
#X connect 13 0 15 1;
#X connect 15 0 14 0;
#X connect 16 0 0 0;
#X connect 17 0 6 0;
#X connect 18 0 17 0;
#X connect 18 0 16 0;
#X connect 18 0 19 0;
#X connect 19 0 13 0;
#X connect 20 0 1 0;
#X connect 21 0 7 0;
#X connect 22 0 19 0;
