#N canvas 611 540 450 300 10;
#X obj 86 10 loadbang;
#X obj 209 141 send pd;
#X msg 209 80 dsp 1;
#X msg 20 136 \; pd-dsp-on-at-start.pd vis 0;
#X obj 151 49 t b b;
#X connect 0 0 4 0;
#X connect 2 0 1 0;
#X connect 4 0 3 0;
#X connect 4 1 2 0;
