#N canvas 30 166 450 320 10;
#X obj 74 229 lop~;
#X obj 74 72 inlet~;
#X floatatom 95 172 5 0 0 3 - - -;
#X floatatom 209 133 5 0 0 3 - - -;
#X obj 73 259 hip~;
#X obj 95 193 * 10;
#X obj 73 284 outlet~;
#X obj 123 43 r lod;
#X msg 123 70 2000;
#X obj 104 134 hsl 100 15 10 1000 1 0 empty empty hip 70 10 0 10 -262144
-1 -1 0 1;
#X obj 104 114 hsl 100 15 10 2000 1 0 empty empty lop 70 10 0 10 -262144
-1 -1 0 1;
#X floatatom 209 113 5 0 0 0 - - -;
#X connect 0 0 4 0;
#X connect 1 0 0 0;
#X connect 2 0 5 0;
#X connect 3 0 4 1;
#X connect 4 0 6 0;
#X connect 5 0 11 0;
#X connect 7 0 8 0;
#X connect 8 0 10 0;
#X connect 9 0 3 0;
#X connect 10 0 2 0;
#X connect 11 0 0 1;
#X coords 0 -1 1 1 142 52 1 100 100;
