#N canvas 172 313 450 300 10;
#X obj 91 76 inlet~;
#X obj 92 307 *~;
#X obj 153 100 tgl 17 0 \$0-nada \$0-ligador empty 0 -6 0 10 -262144
-1 -1 0 1;
#X obj 92 334 outlet~;
#X obj 108 213 line~;
#X obj 153 76 inlet;
#X obj 108 264 -~ 1;
#X obj 108 240 cos~;
#X obj 108 285 *~ -1;
#X obj 108 125 * 0.25;
#X obj 108 191 pack f f;
#X obj 135 169 f \$1;
#X obj 108 147 t f b;
#X connect 0 0 1 0;
#X connect 1 0 3 0;
#X connect 2 0 9 0;
#X connect 4 0 7 0;
#X connect 5 0 2 0;
#X connect 6 0 8 0;
#X connect 7 0 6 0;
#X connect 8 0 1 1;
#X connect 9 0 12 0;
#X connect 10 0 4 0;
#X connect 11 0 10 1;
#X connect 12 0 10 0;
#X connect 12 1 11 0;
#X coords 0 -1 1 1 70 17 1 100 100;
