#N canvas 10 73 450 300 10;
#X obj 91 76 inlet~;
#X obj 92 197 *~;
#X obj 92 224 outlet~;
#X obj 106 171 line~;
#X msg 106 144 \$1 50;
#X floatatom 135 102 5 0 100 0 - - -;
#X obj 135 76 inlet;
#X obj 106 122 * 0.01;
#X connect 0 0 1 0;
#X connect 1 0 2 0;
#X connect 3 0 1 1;
#X connect 4 0 3 0;
#X connect 5 0 7 0;
#X connect 6 0 5 0;
#X connect 7 0 4 0;
#X coords 0 -1 1 1 69 18 1 100 100;
