#N canvas 10 73 471 313 10;
#X obj 91 76 inlet~;
#X obj 92 257 *~;
#X obj 92 284 outlet~;
#X obj 106 231 line~;
#X floatatom 157 102 5 0 100 0 - - -;
#X obj 157 76 inlet;
#X obj 106 122 * 0.01;
#X obj 106 205 pack f f;
#X obj 133 178 f \$1;
#X obj 106 151 t f b;
#X obj 174 151 inlet;
#X connect 0 0 1 0;
#X connect 1 0 2 0;
#X connect 3 0 1 1;
#X connect 4 0 6 0;
#X connect 5 0 4 0;
#X connect 6 0 9 0;
#X connect 7 0 3 0;
#X connect 8 0 7 1;
#X connect 9 0 7 0;
#X connect 9 1 8 0;
#X connect 10 0 8 1;
#X coords 0 -1 1 1 90 18 1 100 100;
