#N canvas 564 274 450 433 10;
#X obj 99 76 inlet~;
#X obj 100 257 *~;
#X obj 114 231 line~;
#X floatatom 175 102 5 0 100 0 - - -;
#X obj 175 76 inlet;
#X obj 114 122 * 0.01;
#X obj 114 205 pack f f;
#X obj 141 178 f \$1;
#X obj 114 151 t f b;
#X obj 192 151 inlet;
#X obj 145 46 inlet~;
#X obj 146 257 *~;
#X obj 160 231 line~;
#X obj 101 350 dac~ 1 2;
#X obj 100 288 hip~ 10;
#X obj 146 318 hip~ 10;
#X connect 0 0 1 0;
#X connect 1 0 14 0;
#X connect 2 0 1 1;
#X connect 3 0 5 0;
#X connect 4 0 3 0;
#X connect 5 0 8 0;
#X connect 6 0 2 0;
#X connect 6 0 12 0;
#X connect 7 0 6 1;
#X connect 8 0 6 0;
#X connect 8 1 7 0;
#X connect 9 0 7 1;
#X connect 10 0 11 0;
#X connect 11 0 15 0;
#X connect 12 0 11 1;
#X connect 14 0 13 0;
#X connect 15 0 13 1;
#X coords 0 -1 1 1 108 18 1 100 100;
