#N canvas 625 205 450 503 10;
#X obj 118 76 inlet~;
#X obj 119 387 *~;
#X obj 133 361 line~;
#X obj 133 335 pack f f;
#X obj 160 308 f \$1;
#X obj 133 281 t f b;
#X obj 371 151 inlet;
#X obj 164 46 inlet~;
#X obj 165 387 *~;
#X obj 179 361 line~;
#X obj 120 480 dac~ 1 2;
#X obj 119 418 hip~ 10;
#X obj 165 448 hip~ 10;
#X floatatom 222 101 5 0 100 0 - - -;
#X obj 222 17 inlet;
#X obj 270 17 inlet;
#X obj 254 102 tgl 15 0 empty empty empty 0 -6 0 10 -262144 -1 -1 0
1;
#X obj 146 226 f;
#X obj 146 200 spigot;
#X msg 231 226 0;
#X obj 254 148 sel 1 0;
#X obj 254 175 bng 15 250 50 0 empty empty empty 0 -6 0 10 -262144
-1 -1;
#X obj 254 121 t f f;
#X obj 214 121 t f f;
#X obj 133 252 * 0.01;
#X obj 222 75 f \$2;
#X obj 232 45 loadbang;
#X obj 254 75 f \$3;
#X connect 0 0 1 0;
#X connect 1 0 11 0;
#X connect 2 0 1 1;
#X connect 3 0 2 0;
#X connect 3 0 9 0;
#X connect 4 0 3 1;
#X connect 5 0 3 0;
#X connect 5 1 4 0;
#X connect 6 0 4 1;
#X connect 7 0 8 0;
#X connect 8 0 12 0;
#X connect 9 0 8 1;
#X connect 11 0 10 0;
#X connect 12 0 10 1;
#X connect 13 0 23 0;
#X connect 14 0 25 0;
#X connect 15 0 27 0;
#X connect 16 0 22 0;
#X connect 17 0 24 0;
#X connect 18 0 17 0;
#X connect 19 0 24 0;
#X connect 20 0 21 0;
#X connect 20 1 19 0;
#X connect 21 0 18 0;
#X connect 22 0 20 0;
#X connect 22 1 18 1;
#X connect 23 0 18 0;
#X connect 23 1 17 1;
#X connect 24 0 5 0;
#X connect 25 0 13 0;
#X connect 26 0 25 0;
#X connect 26 0 27 0;
#X connect 27 0 16 0;
#X coords 0 -1 1 1 170 17 1 100 100;
