#N canvas 195 30 450 300 10;
#X obj 86 76 inlet~;
#X obj 87 237 *~;
#X obj 87 264 outlet~;
#X obj 101 211 line~;
#X floatatom 147 102 5 0 1 0 - - -;
#X obj 147 76 inlet;
#X obj 101 181 pack f f;
#X obj 128 154 f \$1;
#X obj 101 127 t f b;
#X connect 0 0 1 0;
#X connect 1 0 2 0;
#X connect 3 0 1 1;
#X connect 4 0 8 0;
#X connect 5 0 4 0;
#X connect 6 0 3 0;
#X connect 7 0 6 1;
#X connect 8 0 6 0;
#X connect 8 1 7 0;
#X coords 0 -1 1 1 80 18 1 100 100;
