#N canvas 640 83 450 540 10;
#X obj 71 283 gate 3;
#X obj 55 188 + 1;
#X obj 23 188 f;
#X msg 23 151 bang;
#X obj 23 213 mod 3;
#X obj 71 251 + 1;
#X obj 131 361 +;
#X obj 131 426 +;
#X obj 131 450 > 0;
#X obj 23 36 inlet;
#X obj 131 335 i;
#X obj 162 336 i;
#X obj 139 308 t b b f;
#X obj 208 308 t b b f;
#X obj 131 400 i;
#X obj 131 482 outlet;
#X text 97 28 solta 0 somente quando os tres ultimos valores recebidos
forem 0 senao solta 1;
#X floatatom 168 454 5 0 0 0 - - -;
#X floatatom 166 422 5 0 0 0 - - -;
#X obj 23 79 t f b;
#X floatatom 44 55 5 0 0 0 - - -;
#X connect 0 0 10 0;
#X connect 0 1 12 0;
#X connect 0 2 13 0;
#X connect 1 0 2 1;
#X connect 2 0 1 0;
#X connect 2 0 4 0;
#X connect 3 0 2 0;
#X connect 4 0 5 0;
#X connect 5 0 0 0;
#X connect 6 0 14 0;
#X connect 7 0 8 0;
#X connect 8 0 15 0;
#X connect 8 0 17 0;
#X connect 9 0 19 0;
#X connect 10 0 6 0;
#X connect 11 0 6 1;
#X connect 12 0 10 0;
#X connect 12 2 11 0;
#X connect 13 1 14 0;
#X connect 13 2 7 1;
#X connect 14 0 7 0;
#X connect 18 0 8 0;
#X connect 19 0 0 1;
#X connect 19 1 3 0;
#X connect 20 0 19 0;
