#N canvas 15 97 450 552 10;
#X obj 102 132 tgl 15 0 empty empty on 0 -8 0 10 -262144 -1 -1 1 1
;
#X msg 189 217 stop;
#X msg 59 178 info;
#X floatatom 122 133 5 0 0 2 event - -;
#X msg 179 184 close;
#X obj 102 328 spigot;
#X obj 135 307 tgl 15 0 empty empty empty 0 -6 0 10 -262144 -1 -1 0
1;
#X obj 171 274 route abs key;
#X obj 171 435 s volante;
#X obj 102 369 print l;
#X obj 171 362 route abs_x abs_55 abs_54;
#X obj 220 415 s pedal-esq;
#X obj 269 393 s pedal-dir;
#X msg 122 174 open \$1;
#X floatatom 154 402 5 0 0 0 - - -;
#X msg 192 163 refresh;
#X obj 159 132 bng 15 250 50 0 empty empty close 0 -8 0 10 -262144
-1 -1;
#X obj 208 328 s L3;
#X obj 253 328 s R3;
#X obj 208 301 route btn_1 btn_2 btn_3;
#X obj 298 328 s START;
#X obj 46 269 outlet;
#X obj 102 216 hid 18;
#X connect 0 0 22 0;
#X connect 1 0 22 0;
#X connect 2 0 22 0;
#X connect 3 0 13 0;
#X connect 4 0 22 0;
#X connect 5 0 9 0;
#X connect 6 0 5 1;
#X connect 7 0 10 0;
#X connect 7 1 19 0;
#X connect 10 0 8 0;
#X connect 10 0 14 0;
#X connect 10 1 11 0;
#X connect 10 2 12 0;
#X connect 13 0 22 0;
#X connect 15 0 22 0;
#X connect 16 0 4 0;
#X connect 19 0 17 0;
#X connect 19 1 18 0;
#X connect 19 2 20 0;
#X connect 22 0 5 0;
#X connect 22 0 21 0;
#X coords 0 -1 1 1 90 50 1 100 100;
