#N canvas 0 0 450 300 10;
#X obj 208 41 r carrega;
#X obj 228 175 route list;
#X obj 228 202 route tocador1;
#X obj 114 56 inlet;
#X floatatom 120 94 5 0 0 0 - - -;
#X obj 228 121 unpack f f f f f f f f f;
#X obj 228 148 pack f f f f f f f f f;
#X obj 114 151 outlet;
#X obj 208 68 symbol \$1;
#X msg 208 96 read \$1;
#X obj 114 124 coll \$1;
#C restore;
#X obj 189 21 bng 15 250 50 0 empty empty empty 17 7 0 10 -262144 -1
-1;
#X msg 80 232 leitor de partitura \; argumento indica o arquivo. lembrar
que esta abstraction está em /base;
#X connect 0 0 8 0;
#X connect 1 0 2 0;
#X connect 3 0 10 0;
#X connect 4 0 10 0;
#X connect 5 0 6 0;
#X connect 5 1 6 1;
#X connect 5 2 6 2;
#X connect 5 3 6 3;
#X connect 5 4 6 4;
#X connect 5 5 6 5;
#X connect 5 6 6 6;
#X connect 5 7 6 7;
#X connect 5 8 6 8;
#X connect 6 0 1 0;
#X connect 8 0 9 0;
#X connect 9 0 10 0;
#X connect 10 0 7 0;
#X connect 11 0 8 0;
