#N canvas 27 66 916 678 10;
#X floatatom 615 330 5 0 0 0 - - -;
#X obj 364 230 metro 1000;
#X obj 177 136 tgl 15 0 empty empty empty 17 7 0 10 -262144 -1 -1 0
1;
#X obj 615 303 counter 2 1 2;
#X obj 446 -24 gate 2;
#X floatatom 543 134 10 0 0 0 - - -;
#X floatatom 400 134 10 0 0 0 - - -;
#X obj 464 60 f;
#X floatatom 464 87 5 0 0 0 - - -;
#X obj 373 65 t f f;
#X floatatom 464 149 5 0 0 0 - - -;
#X obj 464 113 - 0;
#X obj 524 66 t b f f;
#X obj 615 355 s conta-\$0;
#X floatatom 400 86 5 0 0 0 - - -;
#X obj 446 -58 r conta-\$0;
#X obj 543 107 * 44.1;
#X obj 400 107 * 44.1;
#X obj 576 279 t b b b;
#X obj 524 39 + 1000;
#X obj 515 410 line~;
#X msg 515 378 \$1 \, \$2 \$3;
#X obj 515 349 pack 1 2 3;
#X obj 311 288 gate 2;
#X obj 311 254 r conta-\$0;
#X obj 515 322 f;
#X obj 311 324 f;
#X obj 400 201 t f f;
#X obj 543 201 t f f;
#X obj 432 405 gate 2;
#X obj 311 351 pack 1 2 3;
#X obj 311 410 line~;
#X msg 311 378 \$1 \, \$2 \$3;
#X obj 373 12 random 5000;
#X obj 524 12 random 4000;
#X obj 373 39 + 5000;
#X obj 444 531 *~ 1;
#X obj 444 558 outlet~;
#X floatatom 202 135 5 0 0 2 rand1 - -;
#X floatatom 102 135 5 0 0 2 rand2 - -;
#X floatatom 236 135 5 0 0 2 soma1 - -;
#X floatatom 136 135 5 0 0 2 soma2 - -;
#X obj 515 436 tabread4~ \$1;
#X obj 311 436 tabread4~ \$1;
#X msg 610 -35 primeiro argumento é o nome do array;
#X floatatom 543 86 5 0 0 0 - - -;
#X msg 391 494 1;
#X msg 361 494 0;
#X msg 490 485 1;
#X msg 523 486 0;
#X obj 432 373 r conta-\$0;
#X obj 601 233 + 0;
#X obj 249 315 + 0;
#X obj 464 201 t b b f f;
#X obj 455 292 t b b;
#X obj 481 267 del 1;
#X obj 310 490 *~ -1;
#X obj 338 535 gate~;
#X obj 491 527 gate~;
#X obj 368 324 + 50;
#X obj 572 322 + 50;
#X obj 102 22 inlet;
#X obj 102 52 unpack f f f f f s;
#X msg 207 393 set \$1;
#X connect 0 0 13 0;
#X connect 1 0 18 0;
#X connect 2 0 1 0;
#X connect 3 0 0 0;
#X connect 4 0 33 0;
#X connect 4 1 34 0;
#X connect 5 0 28 0;
#X connect 6 0 27 0;
#X connect 7 0 8 0;
#X connect 8 0 11 0;
#X connect 9 0 7 0;
#X connect 9 1 14 0;
#X connect 10 0 53 0;
#X connect 11 0 10 0;
#X connect 12 0 7 0;
#X connect 12 1 45 0;
#X connect 12 2 11 1;
#X connect 14 0 17 0;
#X connect 15 0 4 0;
#X connect 16 0 5 0;
#X connect 17 0 6 0;
#X connect 18 1 4 1;
#X connect 18 2 3 0;
#X connect 19 0 12 0;
#X connect 20 0 42 0;
#X connect 21 0 20 0;
#X connect 22 0 21 0;
#X connect 23 0 26 0;
#X connect 23 1 25 0;
#X connect 24 0 23 0;
#X connect 25 0 22 0;
#X connect 26 0 30 0;
#X connect 27 0 25 1;
#X connect 27 1 52 0;
#X connect 28 0 26 1;
#X connect 28 1 51 0;
#X connect 29 0 46 0;
#X connect 29 0 49 0;
#X connect 29 1 47 0;
#X connect 29 1 48 0;
#X connect 30 0 32 0;
#X connect 31 0 43 0;
#X connect 32 0 31 0;
#X connect 33 0 35 0;
#X connect 34 0 19 0;
#X connect 35 0 9 0;
#X connect 36 0 37 0;
#X connect 38 0 33 1;
#X connect 39 0 34 1;
#X connect 40 0 35 1;
#X connect 41 0 19 1;
#X connect 42 0 58 0;
#X connect 43 0 56 0;
#X connect 45 0 16 0;
#X connect 46 0 57 1;
#X connect 47 0 57 1;
#X connect 48 0 58 1;
#X connect 49 0 58 1;
#X connect 50 0 29 0;
#X connect 51 0 22 1;
#X connect 52 0 30 1;
#X connect 53 1 55 0;
#X connect 53 2 1 1;
#X connect 53 3 59 0;
#X connect 53 3 60 0;
#X connect 54 0 29 1;
#X connect 54 1 23 1;
#X connect 55 0 54 0;
#X connect 56 0 57 0;
#X connect 57 0 36 0;
#X connect 58 0 36 0;
#X connect 59 0 30 2;
#X connect 60 0 22 2;
#X connect 61 0 62 0;
#X connect 62 0 2 0;
#X connect 62 1 39 0;
#X connect 62 2 41 0;
#X connect 62 3 38 0;
#X connect 62 4 40 0;
#X connect 62 5 63 0;
#X connect 63 0 43 0;
#X connect 63 0 42 0;
#X coords 0 -1 1 1 170 56 1 100 100;
