#N canvas 242 292 450 378 10;
#X floatatom 103 117 5 0 0 3 metro - -;
#X obj 103 289 * 1000;
#X msg 103 208 60;
#X obj 103 231 /;
#X obj 103 185 t 60 f;
#X floatatom 143 117 5 0 0 3 ms - -;
#X floatatom 103 259 5 0 0 0 - - -;
#X obj 104 320 metro;
#X obj 182 118 tgl 15 0 empty empty on-off -10 -7 0 10 -262144 -1 -1
1 1;
#X obj 104 351 outlet;
#X obj 103 75 inlet;
#X obj 153 75 inlet;
#X obj 194 198 outlet;
#X connect 0 0 4 0;
#X connect 1 0 5 0;
#X connect 1 0 7 1;
#X connect 2 0 3 0;
#X connect 3 0 6 0;
#X connect 4 0 2 0;
#X connect 4 1 3 1;
#X connect 5 0 12 0;
#X connect 6 0 1 0;
#X connect 7 0 9 0;
#X connect 8 0 7 0;
#X connect 10 0 0 0;
#X connect 11 0 8 0;
#X coords 0 -1 1 1 110 50 1 100 100;
