#N canvas 320 214 450 300 10;
#X obj 57 38 inlet;
#X obj 84 253 outlet;
#X floatatom 57 65 5 0 0 0 - - -;
#X floatatom 84 227 5 0 0 0 - - -;
#X obj 57 91 t f f;
#X obj 117 200 * -1;
#X obj 84 119 < 0;
#X obj 84 173 gate 2;
#X obj 84 146 + 1;
#X connect 0 0 2 0;
#X connect 2 0 4 0;
#X connect 3 0 1 0;
#X connect 4 0 7 1;
#X connect 4 1 6 0;
#X connect 5 0 3 0;
#X connect 6 0 8 0;
#X connect 7 0 3 0;
#X connect 7 1 5 0;
#X connect 8 0 7 0;
