#N canvas 15 97 450 300 10;
#X obj 164 133 gate 2;
#X msg 147 196 1;
#X floatatom 66 150 5 0 0 0 - - -;
#X msg 197 186 -1;
#X obj 76 90 + 1;
#X obj 197 97 inlet;
#X obj 157 242 outlet;
#X obj 148 109 hradio 15 1 1 3 empty empty empty 0 -6 0 10 -262144
-1 -1 1;
#X connect 0 0 1 0;
#X connect 0 0 6 0;
#X connect 0 1 3 0;
#X connect 1 0 4 0;
#X connect 2 0 4 1;
#X connect 3 0 4 0;
#X connect 4 0 2 0;
#X connect 4 0 7 0;
#X connect 5 0 0 1;
#X connect 7 0 0 0;
