#N canvas 67 83 450 300 10;
#X obj -1 28 f;
#X obj -16 55 !=;
#X obj -16 82 sel 1;
#X obj -16 -9 t f f f b;
#X obj -51 88 f;
#X obj -16 108 bng 15 250 50 0 empty empty empty 17 7 0 10 -262144
-1 -1;
#X obj -51 131 outlet;
#X obj -51 -39 inlet;
#X connect 0 0 1 1;
#X connect 1 0 2 0;
#X connect 2 0 5 0;
#X connect 3 0 1 0;
#X connect 3 1 4 1;
#X connect 3 2 0 1;
#X connect 3 3 0 0;
#X connect 4 0 6 0;
#X connect 5 0 4 0;
#X connect 7 0 3 0;
