#N canvas 42 79 741 651 10;
#X obj -190 12 inlet partitura;
#X obj -85 456 inlet bema;
#X obj 389 43 symbol \$1;
#X obj 389 23 loadbang;
#N canvas 0 54 1280 746 toca-interno-\$0 0;
#X obj 7 130 s~ l-\$0-01;
#X obj 7 62 r \$0-01;
#X obj 58 62 r lodb-\$0;
#X obj 7 150 s~ r-\$0-01;
#X obj 36 -42 t l b;
#X floatatom 63 3 5 0 0 0 - - -;
#X msg 86 -41 1 4 3 6;
#X obj 240 4 s \$0-03;
#X obj 228 -16 s \$0-02;
#X obj 217 -36 s \$0-01;
#X obj 252 24 s \$0-04;
#X obj 264 -36 s \$0-05;
#X obj 276 -16 s \$0-06;
#X obj 288 4 s \$0-07;
#X obj 300 24 s \$0-08;
#X obj 312 -36 s \$0-09;
#X obj 324 -16 s \$0-10;
#X obj 335 4 s \$0-11;
#X obj 347 24 s \$0-12;
#X obj 359 -36 s \$0-13;
#X obj 371 -16 s \$0-14;
#X obj 383 4 s \$0-15;
#X obj 395 24 s \$0-16;
#X obj 407 -36 s \$0-17;
#X obj 419 -16 s \$0-18;
#X obj 63 -19 counter 0 1 30;
#X obj 217 -63 gate 30 30 30 30 30 30 30 30 30 30 30 30 30 30 30 30
30 30;
#X obj 431 4 s \$0-19;
#X obj 443 24 s \$0-20;
#X obj 454 -36 s \$0-21;
#X obj 466 -16 s \$0-22;
#X obj 478 4 s \$0-23;
#X obj 490 24 s \$0-24;
#X obj 502 -36 s \$0-25;
#X obj 514 -16 s \$0-26;
#X obj 526 4 s \$0-27;
#X obj 538 24 s \$0-28;
#X obj 550 -36 s \$0-29;
#X obj 562 -16 s \$0-30;
#X obj 1065 -44 inlet bema;
#X obj 1065 -24 s bema-\$0;
#X obj 959 -1 outlet~;
#X obj 1009 -1 outlet~;
#N canvas 67 95 931 589 left-right 0;
#X obj 47 442 outlet~;
#X obj 313 443 outlet~;
#X obj 273 23 r~ l-\$0-01;
#X obj 17 22 r~ l-\$0-01;
#X obj 97 22 r~ l-\$0-02;
#X obj 353 23 r~ l-\$0-02;
#X obj 177 22 r~ l-\$0-03;
#X obj 433 23 r~ l-\$0-03;
#X obj 17 52 r~ l-\$0-04;
#X obj 273 53 r~ l-\$0-04;
#X obj 97 52 r~ l-\$0-05;
#X obj 353 53 r~ l-\$0-05;
#X obj 177 52 r~ l-\$0-06;
#X obj 433 53 r~ l-\$0-06;
#X obj 433 83 r~ l-\$0-09;
#X obj 177 82 r~ l-\$0-09;
#X obj 353 83 r~ l-\$0-08;
#X obj 97 82 r~ l-\$0-08;
#X obj 273 83 r~ l-\$0-07;
#X obj 17 82 r~ l-\$0-07;
#X obj 17 112 r~ l-\$0-10;
#X obj 273 113 r~ l-\$0-10;
#X obj 97 112 r~ l-\$0-11;
#X obj 353 113 r~ l-\$0-11;
#X obj 177 112 r~ l-\$0-12;
#X obj 433 113 r~ l-\$0-12;
#X obj 433 143 r~ l-\$0-15;
#X obj 433 173 r~ l-\$0-18;
#X obj 177 172 r~ l-\$0-18;
#X obj 177 142 r~ l-\$0-15;
#X obj 353 143 r~ l-\$0-14;
#X obj 353 173 r~ l-\$0-17;
#X obj 97 172 r~ l-\$0-17;
#X obj 97 142 r~ l-\$0-14;
#X obj 273 143 r~ l-\$0-13;
#X obj 273 173 r~ l-\$0-16;
#X obj 17 172 r~ l-\$0-16;
#X obj 17 142 r~ l-\$0-13;
#X obj 17 202 r~ l-\$0-19;
#X obj 97 202 r~ l-\$0-20;
#X obj 177 202 r~ l-\$0-21;
#X obj 17 232 r~ l-\$0-22;
#X obj 97 232 r~ l-\$0-23;
#X obj 177 232 r~ l-\$0-24;
#X obj 17 262 r~ l-\$0-25;
#X obj 97 262 r~ l-\$0-26;
#X obj 177 262 r~ l-\$0-27;
#X obj 17 292 r~ l-\$0-28;
#X obj 97 292 r~ l-\$0-29;
#X obj 177 292 r~ l-\$0-30;
#X obj 273 203 r~ l-\$0-19;
#X obj 353 203 r~ l-\$0-20;
#X obj 433 203 r~ l-\$0-21;
#X obj 273 233 r~ l-\$0-22;
#X obj 353 233 r~ l-\$0-23;
#X obj 433 233 r~ l-\$0-24;
#X obj 273 263 r~ l-\$0-25;
#X obj 353 263 r~ l-\$0-26;
#X obj 433 263 r~ l-\$0-27;
#X obj 273 293 r~ l-\$0-28;
#X obj 353 293 r~ l-\$0-29;
#X obj 433 293 r~ l-\$0-30;
#X obj 17 322 r~ l-\$0-31;
#X obj 97 322 r~ l-\$0-32;
#X obj 177 322 r~ l-\$0-33;
#X obj 17 352 r~ l-\$0-34;
#X obj 97 352 r~ l-\$0-35;
#X obj 273 323 r~ l-\$0-31;
#X obj 353 323 r~ l-\$0-32;
#X obj 433 323 r~ l-\$0-33;
#X obj 273 353 r~ l-\$0-34;
#X obj 353 353 r~ l-\$0-35;
#X connect 2 0 1 0;
#X connect 3 0 0 0;
#X connect 4 0 0 0;
#X connect 5 0 1 0;
#X connect 6 0 0 0;
#X connect 7 0 1 0;
#X connect 8 0 0 0;
#X connect 9 0 1 0;
#X connect 10 0 0 0;
#X connect 11 0 1 0;
#X connect 12 0 0 0;
#X connect 13 0 1 0;
#X connect 14 0 1 0;
#X connect 15 0 0 0;
#X connect 16 0 1 0;
#X connect 17 0 0 0;
#X connect 18 0 1 0;
#X connect 19 0 0 0;
#X connect 20 0 0 0;
#X connect 21 0 1 0;
#X connect 22 0 0 0;
#X connect 23 0 1 0;
#X connect 24 0 0 0;
#X connect 25 0 1 0;
#X connect 26 0 1 0;
#X connect 27 0 1 0;
#X connect 28 0 0 0;
#X connect 29 0 0 0;
#X connect 30 0 1 0;
#X connect 31 0 1 0;
#X connect 32 0 0 0;
#X connect 33 0 0 0;
#X connect 34 0 1 0;
#X connect 35 0 1 0;
#X connect 36 0 0 0;
#X connect 37 0 0 0;
#X connect 38 0 0 0;
#X connect 39 0 0 0;
#X connect 40 0 0 0;
#X connect 41 0 0 0;
#X connect 42 0 0 0;
#X connect 43 0 0 0;
#X connect 44 0 0 0;
#X connect 45 0 0 0;
#X connect 46 0 0 0;
#X connect 47 0 0 0;
#X connect 48 0 0 0;
#X connect 49 0 0 0;
#X connect 50 0 1 0;
#X connect 51 0 1 0;
#X connect 52 0 1 0;
#X connect 53 0 1 0;
#X connect 54 0 1 0;
#X connect 55 0 1 0;
#X connect 56 0 1 0;
#X connect 57 0 1 0;
#X connect 58 0 1 0;
#X connect 59 0 1 0;
#X connect 60 0 1 0;
#X connect 61 0 1 0;
#X connect 62 0 0 0;
#X connect 63 0 0 0;
#X connect 64 0 0 0;
#X connect 65 0 0 0;
#X connect 66 0 0 0;
#X connect 67 0 1 0;
#X connect 68 0 1 0;
#X connect 69 0 1 0;
#X connect 70 0 1 0;
#X connect 71 0 1 0;
#X restore 959 -40 pd left-right;
#X obj 7 82 partgrupo2-toca~;
#X obj 36 -63 inlet partitura-ajustada;
#X obj 14 -9 bng 15 250 50 0 empty empty empty 17 7 0 10 -262144 -1
-1;
#X obj 178 62 r lodb-\$0;
#X obj 127 82 partgrupo2-toca~;
#X obj 298 62 r lodb-\$0;
#X obj 247 82 partgrupo2-toca~;
#X obj 418 62 r lodb-\$0;
#X obj 367 82 partgrupo2-toca~;
#X obj 538 62 r lodb-\$0;
#X obj 487 82 partgrupo2-toca~;
#X obj 658 62 r lodb-\$0;
#X obj 607 82 partgrupo2-toca~;
#X obj 778 62 r lodb-\$0;
#X obj 727 82 partgrupo2-toca~;
#X obj 898 62 r lodb-\$0;
#X obj 847 82 partgrupo2-toca~;
#X obj 1018 62 r lodb-\$0;
#X obj 967 82 partgrupo2-toca~;
#X obj 127 62 r \$0-02;
#X obj 247 62 r \$0-03;
#X obj 367 62 r \$0-04;
#X obj 487 62 r \$0-05;
#X obj 607 62 r \$0-06;
#X obj 727 62 r \$0-07;
#X obj 847 62 r \$0-08;
#X obj 967 62 r \$0-09;
#X obj 178 172 r lodb-\$0;
#X obj 127 192 partgrupo2-toca~;
#X obj 298 172 r lodb-\$0;
#X obj 247 192 partgrupo2-toca~;
#X obj 418 172 r lodb-\$0;
#X obj 367 192 partgrupo2-toca~;
#X obj 538 172 r lodb-\$0;
#X obj 487 192 partgrupo2-toca~;
#X obj 658 172 r lodb-\$0;
#X obj 607 192 partgrupo2-toca~;
#X obj 778 172 r lodb-\$0;
#X obj 727 192 partgrupo2-toca~;
#X obj 898 172 r lodb-\$0;
#X obj 847 192 partgrupo2-toca~;
#X obj 1018 172 r lodb-\$0;
#X obj 967 192 partgrupo2-toca~;
#X obj 1138 172 r lodb-\$0;
#X obj 1087 192 partgrupo2-toca~;
#X obj 58 172 r lodb-\$0;
#X obj 7 192 partgrupo2-toca~;
#X obj 127 172 r \$0-11;
#X obj 127 260 s~ r-\$0-11;
#X obj 247 260 s~ r-\$0-12;
#X obj 367 260 s~ r-\$0-13;
#X obj 487 260 s~ r-\$0-14;
#X obj 607 260 s~ r-\$0-15;
#X obj 727 260 s~ r-\$0-16;
#X obj 847 260 s~ r-\$0-17;
#X obj 967 260 s~ r-\$0-18;
#X obj 1087 260 s~ r-\$0-19;
#X obj 7 260 s~ r-\$0-10;
#X obj 127 130 s~ l-\$0-02;
#X obj 127 150 s~ r-\$0-02;
#X obj 247 130 s~ l-\$0-03;
#X obj 247 150 s~ r-\$0-03;
#X obj 367 130 s~ l-\$0-04;
#X obj 367 150 s~ r-\$0-04;
#X obj 487 130 s~ l-\$0-05;
#X obj 487 150 s~ r-\$0-05;
#X obj 607 130 s~ l-\$0-06;
#X obj 607 150 s~ r-\$0-06;
#X obj 727 130 s~ l-\$0-07;
#X obj 727 150 s~ r-\$0-07;
#X obj 847 130 s~ l-\$0-08;
#X obj 847 150 s~ r-\$0-08;
#X obj 967 130 s~ l-\$0-09;
#X obj 967 150 s~ r-\$0-09;
#X obj 7 240 s~ l-\$0-10;
#X obj 7 172 r \$0-10;
#X obj 247 172 r \$0-12;
#X obj 367 172 r \$0-13;
#X obj 487 172 r \$0-14;
#X obj 607 172 r \$0-15;
#X obj 727 172 r \$0-16;
#X obj 847 172 r \$0-17;
#X obj 967 172 r \$0-18;
#X obj 1087 172 r \$0-19;
#X obj 1087 240 s~ l-\$0-19;
#X obj 967 240 s~ l-\$0-18;
#X obj 847 240 s~ l-\$0-17;
#X obj 727 240 s~ l-\$0-16;
#X obj 607 240 s~ l-\$0-15;
#X obj 487 240 s~ l-\$0-14;
#X obj 367 240 s~ l-\$0-13;
#X obj 247 240 s~ l-\$0-12;
#X obj 127 240 s~ l-\$0-11;
#X obj 178 282 r lodb-\$0;
#X obj 127 302 partgrupo2-toca~;
#X obj 298 282 r lodb-\$0;
#X obj 247 302 partgrupo2-toca~;
#X obj 418 282 r lodb-\$0;
#X obj 367 302 partgrupo2-toca~;
#X obj 538 282 r lodb-\$0;
#X obj 487 302 partgrupo2-toca~;
#X obj 658 282 r lodb-\$0;
#X obj 607 302 partgrupo2-toca~;
#X obj 778 282 r lodb-\$0;
#X obj 727 302 partgrupo2-toca~;
#X obj 898 282 r lodb-\$0;
#X obj 847 302 partgrupo2-toca~;
#X obj 1018 282 r lodb-\$0;
#X obj 967 302 partgrupo2-toca~;
#X obj 1138 282 r lodb-\$0;
#X obj 1087 302 partgrupo2-toca~;
#X obj 58 282 r lodb-\$0;
#X obj 7 302 partgrupo2-toca~;
#X obj 7 282 r \$0-20;
#X obj 7 350 s~ l-\$0-20;
#X obj 7 370 s~ r-\$0-20;
#X obj 127 349 s~ l-\$0-21;
#X obj 127 370 s~ r-\$0-21;
#X obj 247 350 s~ l-\$0-22;
#X obj 247 370 s~ r-\$0-22;
#X obj 367 350 s~ l-\$0-23;
#X obj 367 370 s~ r-\$0-23;
#X obj 487 350 s~ l-\$0-24;
#X obj 487 370 s~ r-\$0-24;
#X obj 607 370 s~ r-\$0-25;
#X obj 607 350 s~ l-\$0-25;
#X obj 727 350 s~ l-\$0-26;
#X obj 727 370 s~ r-\$0-26;
#X obj 847 350 s~ l-\$0-27;
#X obj 847 370 s~ r-\$0-27;
#X obj 967 370 s~ r-\$0-28;
#X obj 967 350 s~ l-\$0-28;
#X obj 1087 350 s~ l-\$0-29;
#X obj 1087 370 s~ r-\$0-29;
#X obj 1087 282 r \$0-29;
#X obj 967 282 r \$0-28;
#X obj 847 282 r \$0-27;
#X obj 727 282 r \$0-26;
#X obj 607 282 r \$0-25;
#X obj 487 282 r \$0-24;
#X obj 367 282 r \$0-23;
#X obj 247 282 r \$0-22;
#X obj 127 282 r \$0-21;
#X obj 178 392 r lodb-\$0;
#X obj 127 412 partgrupo2-toca~;
#X obj 298 392 r lodb-\$0;
#X obj 247 412 partgrupo2-toca~;
#X obj 418 392 r lodb-\$0;
#X obj 367 412 partgrupo2-toca~;
#X obj 538 392 r lodb-\$0;
#X obj 487 412 partgrupo2-toca~;
#X obj 658 392 r lodb-\$0;
#X obj 607 412 partgrupo2-toca~;
#X obj 58 392 r lodb-\$0;
#X obj 7 412 partgrupo2-toca~;
#X obj 7 392 r \$0-30;
#X obj 127 392 r \$0-31;
#X obj 247 392 r \$0-32;
#X obj 367 392 r \$0-33;
#X obj 487 392 r \$0-34;
#X obj 607 392 r \$0-35;
#X obj 607 460 s~ l-\$0-35;
#X obj 607 480 s~ r-\$0-35;
#X obj 487 460 s~ l-\$0-34;
#X obj 487 480 s~ r-\$0-34;
#X obj 367 480 s~ r-\$0-33;
#X obj 367 460 s~ l-\$0-33;
#X obj 247 460 s~ l-\$0-32;
#X obj 247 480 s~ r-\$0-32;
#X obj 127 459 s~ l-\$0-31;
#X obj 127 480 s~ r-\$0-31;
#X obj 7 460 s~ l-\$0-30;
#X obj 7 480 s~ r-\$0-30;
#X connect 1 0 44 0;
#X connect 2 0 44 3;
#X connect 4 0 26 1;
#X connect 4 1 25 0;
#X connect 5 0 26 0;
#X connect 6 0 4 0;
#X connect 25 0 5 0;
#X connect 26 0 9 0;
#X connect 26 1 8 0;
#X connect 26 2 7 0;
#X connect 26 3 10 0;
#X connect 26 4 11 0;
#X connect 26 5 12 0;
#X connect 26 6 13 0;
#X connect 26 7 14 0;
#X connect 26 8 15 0;
#X connect 26 9 16 0;
#X connect 26 10 17 0;
#X connect 26 11 18 0;
#X connect 26 12 19 0;
#X connect 26 13 20 0;
#X connect 26 14 21 0;
#X connect 26 15 22 0;
#X connect 26 16 23 0;
#X connect 26 17 24 0;
#X connect 26 18 27 0;
#X connect 26 19 28 0;
#X connect 26 20 29 0;
#X connect 26 21 30 0;
#X connect 26 22 31 0;
#X connect 26 23 32 0;
#X connect 26 24 33 0;
#X connect 26 25 34 0;
#X connect 26 26 35 0;
#X connect 26 27 36 0;
#X connect 26 28 37 0;
#X connect 26 29 38 0;
#X connect 39 0 40 0;
#X connect 43 0 41 0;
#X connect 43 1 42 0;
#X connect 44 0 0 0;
#X connect 44 1 3 0;
#X connect 45 0 4 0;
#X connect 46 0 25 2;
#X connect 47 0 48 3;
#X connect 48 0 102 0;
#X connect 48 1 103 0;
#X connect 49 0 50 3;
#X connect 50 0 104 0;
#X connect 50 1 105 0;
#X connect 51 0 52 3;
#X connect 52 0 106 0;
#X connect 52 1 107 0;
#X connect 53 0 54 3;
#X connect 54 0 108 0;
#X connect 54 1 109 0;
#X connect 55 0 56 3;
#X connect 56 0 110 0;
#X connect 56 1 111 0;
#X connect 57 0 58 3;
#X connect 58 0 112 0;
#X connect 58 1 113 0;
#X connect 59 0 60 3;
#X connect 60 0 114 0;
#X connect 60 1 115 0;
#X connect 61 0 62 3;
#X connect 62 0 116 0;
#X connect 62 1 117 0;
#X connect 63 0 48 0;
#X connect 64 0 50 0;
#X connect 65 0 52 0;
#X connect 66 0 54 0;
#X connect 67 0 56 0;
#X connect 68 0 58 0;
#X connect 69 0 60 0;
#X connect 70 0 62 0;
#X connect 71 0 72 3;
#X connect 72 0 136 0;
#X connect 72 1 92 0;
#X connect 73 0 74 3;
#X connect 74 0 135 0;
#X connect 74 1 93 0;
#X connect 75 0 76 3;
#X connect 76 0 134 0;
#X connect 76 1 94 0;
#X connect 77 0 78 3;
#X connect 78 0 133 0;
#X connect 78 1 95 0;
#X connect 79 0 80 3;
#X connect 80 0 132 0;
#X connect 80 1 96 0;
#X connect 81 0 82 3;
#X connect 82 0 131 0;
#X connect 82 1 97 0;
#X connect 83 0 84 3;
#X connect 84 0 130 0;
#X connect 84 1 98 0;
#X connect 85 0 86 3;
#X connect 86 0 129 0;
#X connect 86 1 99 0;
#X connect 87 0 88 3;
#X connect 88 0 128 0;
#X connect 88 1 100 0;
#X connect 89 0 90 3;
#X connect 90 0 118 0;
#X connect 90 1 101 0;
#X connect 91 0 72 0;
#X connect 119 0 90 0;
#X connect 120 0 74 0;
#X connect 121 0 76 0;
#X connect 122 0 78 0;
#X connect 123 0 80 0;
#X connect 124 0 82 0;
#X connect 125 0 84 0;
#X connect 126 0 86 0;
#X connect 127 0 88 0;
#X connect 137 0 138 3;
#X connect 138 0 160 0;
#X connect 138 1 161 0;
#X connect 139 0 140 3;
#X connect 140 0 162 0;
#X connect 140 1 163 0;
#X connect 141 0 142 3;
#X connect 142 0 164 0;
#X connect 142 1 165 0;
#X connect 143 0 144 3;
#X connect 144 0 166 0;
#X connect 144 1 167 0;
#X connect 145 0 146 3;
#X connect 146 0 169 0;
#X connect 146 1 168 0;
#X connect 147 0 148 3;
#X connect 148 0 170 0;
#X connect 148 1 171 0;
#X connect 149 0 150 3;
#X connect 150 0 172 0;
#X connect 150 1 173 0;
#X connect 151 0 152 3;
#X connect 152 0 175 0;
#X connect 152 1 174 0;
#X connect 153 0 154 3;
#X connect 154 0 176 0;
#X connect 154 1 177 0;
#X connect 155 0 156 3;
#X connect 156 0 158 0;
#X connect 156 1 159 0;
#X connect 157 0 156 0;
#X connect 178 0 154 0;
#X connect 179 0 152 0;
#X connect 180 0 150 0;
#X connect 181 0 148 0;
#X connect 182 0 146 0;
#X connect 183 0 144 0;
#X connect 184 0 142 0;
#X connect 185 0 140 0;
#X connect 186 0 138 0;
#X connect 187 0 188 3;
#X connect 188 0 213 0;
#X connect 188 1 214 0;
#X connect 189 0 190 3;
#X connect 190 0 211 0;
#X connect 190 1 212 0;
#X connect 191 0 192 3;
#X connect 192 0 210 0;
#X connect 192 1 209 0;
#X connect 193 0 194 3;
#X connect 194 0 207 0;
#X connect 194 1 208 0;
#X connect 195 0 196 3;
#X connect 196 0 205 0;
#X connect 196 1 206 0;
#X connect 197 0 198 3;
#X connect 198 0 215 0;
#X connect 198 1 216 0;
#X connect 199 0 198 0;
#X connect 200 0 188 0;
#X connect 201 0 190 0;
#X connect 202 0 192 0;
#X connect 203 0 194 0;
#X connect 204 0 196 0;
#X restore -190 495 pd toca-interno-\$0;
#X floatatom 152 120 5 0 0 3 n.som - -;
#X obj 132 283 unpack s f f s;
#X floatatom 220 120 5 0 0 3 dura dura-samp-#0 -;
#X floatatom 48 305 5 0 0 2 - - -;
#X floatatom 75 427 15 0 0 0 - - -;
#X obj 75 499 / 500;
#X floatatom 75 529 10 0 0 0 - - -;
#X obj 75 405 / 96;
#X obj 48 352 unpack s f f s;
#X floatatom 186 120 5 0 100 3 vol - -;
#X floatatom 307 120 7 0 0 3 - - -;
#X obj 134 121 tgl 15 0 empty empty empty 17 7 0 10 -262144 -1 -1 0
1;
#X symbolatom 102 152 49 0 0 0 - - -;
#X obj 42 83 inlet;
#X obj 117 121 bng 15 250 50 0 empty empty empty 17 7 0 10 -262144
-1 -1;
#X obj 82 83 inlet;
#X obj -190 522 outlet~;
#X obj -124 522 outlet~;
#X floatatom 254 120 5 0 100 3 out1 - -;
#X obj 289 120 tgl 15 0 empty inve-0 inv 17 24 0 10 -262144 -1 -1 0
1;
#X obj 102 121 bng 15 250 50 0 empty empty empty 17 7 0 10 -262144
-1 -1;
#N canvas 67 89 450 300 inversor-\$0 0;
#X obj 158 105 + 1;
#X obj 158 138 gate 2;
#X obj 158 185 t b b;
#X msg 158 215 0;
#X obj 208 185 t b b;
#X msg 235 215 0;
#X obj 150 66 inlet;
#X obj 158 279 outlet;
#X obj 235 279 outlet;
#X obj 191 66 inlet;
#X obj 172 254 f;
#X obj 202 254 f;
#X obj 191 103 t b f f;
#X connect 0 0 1 0;
#X connect 1 0 2 0;
#X connect 1 1 4 0;
#X connect 2 0 3 0;
#X connect 2 1 11 0;
#X connect 3 0 7 0;
#X connect 4 0 10 0;
#X connect 4 1 5 0;
#X connect 5 0 8 0;
#X connect 6 0 0 0;
#X connect 9 0 12 0;
#X connect 10 0 7 0;
#X connect 11 0 8 0;
#X connect 12 0 1 1;
#X connect 12 1 10 1;
#X connect 12 2 11 1;
#X restore 146 316 pd inversor-\$0;
#X obj -75 80 s nsom-\$0;
#X obj 237 83 r inv-\$0;
#X obj -60 102 s dura-samp-\$0;
#X obj 282 296 * \$2;
#X floatatom 96 379 5 0 0 0 - - -;
#X obj 102 446 r bema;
#X floatatom 102 473 5 0 0 0 - - -;
#X obj -31 146 s inv-\$0;
#X obj 402 210 t b b b b b b;
#X obj 282 193 switch 1;
#X obj 282 220 sel 0;
#X obj 282 265 f;
#X obj 202 212 t b f;
#X obj 42 109 sel 1 0;
#X obj 312 53 inlet;
#X obj 303 244 r bema-\$0;
#X obj 312 83 s bema-\$0;
#X obj -43 14 r bema-\$0;
#X obj 132 261 coll \$1;
#C restore;
#X obj 48 330 coll \$1;
#C restore;
#X obj 132 36 inlet;
#X msg 132 63 read \$1;
#X obj -46 124 s original-\$0;
#X obj 218 56 r original-\$0;
#N canvas 784 83 492 477 desempacotamentaantes-\$0 0;
#X obj 102 75 sel 0;
#X msg 102 100 50;
#X obj 134 225 sel 0;
#X msg 134 250 50;
#X obj 182 355 sel 0;
#X msg 182 380 50;
#X obj 70 251 outlet;
#X obj 118 150 outlet out1;
#X obj 134 280 outlet out1-dura;
#X obj 182 410 outlet dura-space;
#X obj 198 156 outlet nsom;
#X obj 86 18 outlet vol;
#X obj 102 122 outlet vol-dura;
#X obj 70 -37 inlet;
#X obj 214 176 outlet dura-samp;
#X obj 150 44 outlet space-inicio;
#X obj 166 64 outlet space-fim;
#X obj 70 -5 unpack f f f f f f f f f f f f;
#X obj 247 217 outlet inv;
#X obj 230 196 outlet original;
#X obj 134 198 * \$2;
#X obj 182 328 * \$2;
#X floatatom 154 304 5 0 0 0 - - -;
#X obj 155 173 inlet;
#X obj 102 48 * \$2;
#X connect 0 0 1 0;
#X connect 0 1 12 0;
#X connect 1 0 12 0;
#X connect 2 0 3 0;
#X connect 2 1 8 0;
#X connect 2 1 22 0;
#X connect 3 0 8 0;
#X connect 3 0 22 0;
#X connect 4 0 5 0;
#X connect 4 1 9 0;
#X connect 5 0 9 0;
#X connect 13 0 17 0;
#X connect 17 0 6 0;
#X connect 17 1 11 0;
#X connect 17 2 24 0;
#X connect 17 3 7 0;
#X connect 17 4 20 0;
#X connect 17 5 15 0;
#X connect 17 6 16 0;
#X connect 17 7 21 0;
#X connect 17 8 10 0;
#X connect 17 9 14 0;
#X connect 17 10 19 0;
#X connect 17 11 18 0;
#X connect 20 0 2 0;
#X connect 21 0 4 0;
#X connect 23 0 20 1;
#X connect 23 0 21 1;
#X connect 23 0 24 1;
#X connect 24 0 0 0;
#X restore -190 43 pd desempacotamentaantes-\$0;
#X obj 285 413 unpack f f f f;
#X msg 285 371 1 2 3 4;
#X obj 284 455 print a;
#X obj 294 475 print b;
#X obj 304 615 print c;
#X obj 364 455 print d;
#X obj 304 503 * 19;
#X obj 303 537 + 3;
#X obj 304 576 - 18;
#X obj 389 83 s nome-coll-\$0;
#X obj 102 194 t f f b b;
#X obj -190 429 pack f f f f f f f f f f f f s;
#X obj 39 147 r nsom-\$0;
#X msg 389 63 read \$1;
#X obj 138 234 r nome-coll-\$0;
#X obj 8 284 r nome-coll-\$0;
#X floatatom 354 120 7 0 0 3 - - -;
#X connect 0 0 51 0;
#X connect 1 0 4 1;
#X connect 2 0 65 0;
#X connect 3 0 2 0;
#X connect 4 0 21 0;
#X connect 4 1 22 0;
#X connect 5 0 62 0;
#X connect 6 1 26 1;
#X connect 6 3 63 12;
#X connect 7 0 39 0;
#X connect 8 0 46 0;
#X connect 9 0 10 0;
#X connect 10 0 11 0;
#X connect 11 0 15 0;
#X connect 12 0 9 0;
#X connect 13 0 17 0;
#X connect 13 1 12 0;
#X connect 13 2 31 0;
#X connect 15 0 36 1;
#X connect 16 0 36 0;
#X connect 18 0 40 0;
#X connect 20 0 19 0;
#X connect 24 0 26 0;
#X connect 25 0 35 0;
#X connect 26 0 63 8;
#X connect 26 1 63 10;
#X connect 28 0 24 0;
#X connect 30 0 63 9;
#X connect 30 0 68 0;
#X connect 31 0 12 1;
#X connect 32 0 33 0;
#X connect 33 0 10 1;
#X connect 35 3 24 0;
#X connect 35 4 24 0;
#X connect 36 0 37 0;
#X connect 37 0 38 0;
#X connect 37 1 38 0;
#X connect 38 0 30 0;
#X connect 39 0 36 0;
#X connect 39 1 38 1;
#X connect 40 0 25 0;
#X connect 40 1 19 0;
#X connect 41 0 43 0;
#X connect 42 0 30 1;
#X connect 44 0 51 1;
#X connect 45 0 6 0;
#X connect 46 0 13 0;
#X connect 47 0 48 0;
#X connect 50 0 16 0;
#X connect 51 0 63 0;
#X connect 51 1 63 1;
#X connect 51 1 14 0;
#X connect 51 2 63 2;
#X connect 51 3 63 3;
#X connect 51 3 23 0;
#X connect 51 4 63 4;
#X connect 51 5 63 5;
#X connect 51 6 63 6;
#X connect 51 7 63 7;
#X connect 51 8 27 0;
#X connect 51 9 29 0;
#X connect 51 10 49 0;
#X connect 51 11 34 0;
#X connect 52 0 54 0;
#X connect 52 1 55 0;
#X connect 52 2 58 0;
#X connect 52 3 57 0;
#X connect 53 0 52 0;
#X connect 58 0 59 0;
#X connect 59 0 60 0;
#X connect 60 0 56 0;
#X connect 62 0 45 0;
#X connect 62 1 8 0;
#X connect 62 2 24 0;
#X connect 62 3 24 0;
#X connect 63 0 4 0;
#X connect 64 0 5 0;
#X connect 65 0 61 0;
#X connect 66 0 45 0;
#X connect 67 0 46 0;
#X coords 0 -1 1 1 300 70 1 100 100;
