#N canvas 640 111 595 688 10;
#X obj 137 283 line~;
#X msg 191 283 set \$1;
#X floatatom 123 114 5 0 100 3 vol vol-#0 -;
#X obj 74 49 inlet;
#X obj 103 130 bng 15 250 50 0 empty empty empty 17 7 0 10 -262144
-1 -1;
#X msg 108 261 0;
#X obj 118 13 inlet;
#X obj 136 508 outlet~;
#X obj 229 508 outlet~;
#X floatatom 161 114 5 0 100 3 out1 out1-#0 -;
#X obj -139 4 inlet;
#X obj 137 233 pack f f f;
#X msg 137 261 \$1 \, \$2 \$3;
#X obj 103 115 bng 15 250 50 0 empty empty empty 17 7 0 10 -262144
-1 -1;
#X obj -46 190 s dura-space-\$0;
#X obj 289 448 r dura-space-\$0;
#X obj -99 104 s out1-\$0;
#X obj -86 126 s out1-dura-\$0;
#X obj 219 379 r out1-dura-\$0;
#X obj -113 82 s vol-dura-\$0;
#X obj -126 60 s vol-\$0;
#X obj -19 234 s dura-samp-\$0;
#X obj 136 448 spaceline1~;
#X obj -73 148 s space-inicio\$0;
#X obj -59 168 s space-fim\$0;
#X obj 202 426 r space-inicio\$0;
#X obj 235 404 r space-fim\$0;
#X obj 8 276 s inv-\$0;
#X obj 74 73 sel 1 0;
#X obj 313 43 inlet;
#X obj 313 73 s bema-\$0;
#X obj 8 4 r bema-\$0;
#N canvas 784 83 492 477 desempacotamentacao-\$0 0;
#X obj 102 75 sel 0;
#X msg 102 100 50;
#X obj 134 225 sel 0;
#X msg 134 250 50;
#X obj 182 355 sel 0;
#X msg 182 380 50;
#X obj 70 251 outlet;
#X obj 118 150 outlet out1;
#X obj 134 280 outlet out1-dura;
#X obj 182 410 outlet dura-space;
#X obj 198 156 outlet nsom;
#X obj 86 18 outlet vol;
#X obj 102 122 outlet vol-dura;
#X obj 70 -37 inlet;
#X obj 150 44 outlet space-inicio;
#X obj 166 64 outlet space-fim;
#X obj 247 217 outlet inv;
#X obj 134 198 * \$2;
#X obj 182 328 * \$2;
#X floatatom 154 304 5 0 0 0 - - -;
#X obj 155 173 inlet;
#X obj 102 48 * \$2;
#X obj 214 176 outlet dura-samp;
#X obj 230 196 outlet som-fim;
#X obj 70 -6 unpack f f f f f f f f f f f f s;
#X obj 257 247 outlet nome-array;
#X connect 0 0 1 0;
#X connect 0 1 12 0;
#X connect 1 0 12 0;
#X connect 2 0 3 0;
#X connect 2 1 8 0;
#X connect 2 1 19 0;
#X connect 3 0 8 0;
#X connect 3 0 19 0;
#X connect 4 0 5 0;
#X connect 4 1 9 0;
#X connect 5 0 9 0;
#X connect 13 0 24 0;
#X connect 17 0 2 0;
#X connect 18 0 4 0;
#X connect 20 0 17 1;
#X connect 20 0 18 1;
#X connect 20 0 21 1;
#X connect 21 0 0 0;
#X connect 24 0 6 0;
#X connect 24 1 11 0;
#X connect 24 2 21 0;
#X connect 24 3 7 0;
#X connect 24 4 17 0;
#X connect 24 5 14 0;
#X connect 24 6 15 0;
#X connect 24 7 18 0;
#X connect 24 8 10 0;
#X connect 24 9 22 0;
#X connect 24 10 23 0;
#X connect 24 11 16 0;
#X connect 24 12 25 0;
#X restore -139 33 pd desempacotamentacao-\$0;
#X obj 136 305 tabread4~ \$3;
#X obj 219 323 r vol-dura-\$0;
#X obj 136 350 gatt~ 50;
#X obj 136 403 gatt~ 50;
#X obj 133 46 inlet;
#X msg 133 73 read \$1;
#X obj -6 256 s som-fim-\$0;
#X obj -33 212 s som-inicio-\$0;
#X obj 231 160 r som-inicio-\$0;
#X obj 245 182 r dura-samp-\$0;
#X obj 258 204 r som-fim-\$0;
#X obj 28 296 s nome-array-\$0;
#X obj 208 256 r nome-array-\$0;
#X obj 134 199 f;
#X connect 0 0 33 0;
#X connect 1 0 33 0;
#X connect 2 0 35 1;
#X connect 3 0 28 0;
#X connect 4 0 5 0;
#X connect 5 0 0 0;
#X connect 6 0 4 0;
#X connect 9 0 36 1;
#X connect 10 0 32 0;
#X connect 11 0 12 0;
#X connect 12 0 0 0;
#X connect 13 0 46 0;
#X connect 15 0 22 4;
#X connect 18 0 36 2;
#X connect 22 0 7 0;
#X connect 22 1 8 0;
#X connect 25 0 22 2;
#X connect 26 0 22 3;
#X connect 28 0 13 0;
#X connect 28 1 4 0;
#X connect 29 0 30 0;
#X connect 31 0 32 1;
#X connect 32 0 28 0;
#X connect 32 1 20 0;
#X connect 32 2 19 0;
#X connect 32 3 16 0;
#X connect 32 4 17 0;
#X connect 32 5 23 0;
#X connect 32 6 24 0;
#X connect 32 7 14 0;
#X connect 32 8 40 0;
#X connect 32 9 21 0;
#X connect 32 10 39 0;
#X connect 32 11 27 0;
#X connect 32 12 44 0;
#X connect 33 0 35 0;
#X connect 34 0 35 2;
#X connect 35 0 36 0;
#X connect 36 0 22 0;
#X connect 37 0 38 0;
#X connect 41 0 46 1;
#X connect 42 0 11 2;
#X connect 43 0 11 1;
#X connect 45 0 1 0;
#X connect 46 0 11 0;
#X coords 0 -1 1 1 100 45 1 100 100;
