#N canvas 0 54 1280 746 10;
#X obj 16 -83 inlet partitura;
#X obj 1031 -33 inlet bema;
#X obj 1031 -13 s bema-\$0;
#X msg 795 -39 arg1 - lugar da lista de samples \; arg2 - tamanho do
bema \; arg3 - nome do array \;;
#X obj 16 -62 t l b;
#X obj 863 47 print a;
#X obj 873 67 print b;
#X floatatom 43 -17 5 0 0 0 - - -;
#X obj 792 -63 bng 15 250 50 0 empty empty empty 17 7 0 10 -262144
-1 -1;
#X obj 812 -63 bng 15 250 50 0 empty empty empty 17 7 0 10 -262144
-1 -1;
#X obj 832 -63 bng 15 250 50 0 empty empty empty 17 7 0 10 -262144
-1 -1;
#X obj 852 -63 bng 15 250 50 0 empty empty empty 17 7 0 10 -262144
-1 -1;
#X obj 872 -63 bng 15 250 50 0 empty empty empty 17 7 0 10 -262144
-1 -1;
#X obj 892 -63 bng 15 250 50 0 empty empty empty 17 7 0 10 -262144
-1 -1;
#X obj 912 -63 bng 15 250 50 0 empty empty empty 17 7 0 10 -262144
-1 -1;
#X obj 932 -63 bng 15 250 50 0 empty empty empty 17 7 0 10 -262144
-1 -1;
#X obj 952 -63 bng 15 250 50 0 empty empty empty 17 7 0 10 -262144
-1 -1;
#X obj 972 -63 bng 15 250 50 0 empty empty empty 17 7 0 10 -262144
-1 -1;
#X obj 993 -63 bng 15 250 50 0 empty empty empty 17 7 0 10 -262144
-1 -1;
#X obj 131 25 r bema-\$0;
#X obj 930 86 outlet~;
#X obj 980 86 outlet~;
#X obj 27 102 s~ l-\$0-01;
#X obj 301 25 r bema-\$0;
#X obj 471 25 r bema-\$0;
#X msg 66 -61 1 4 3 6;
#X obj 197 102 s~ l-\$0-02;
#X obj 367 102 s~ l-\$0-03;
#X obj 160 -16 s \$0-03;
#X obj 148 -36 s \$0-02;
#X obj 137 -56 s \$0-01;
#X obj 27 25 r \$0-01;
#X obj 197 25 r \$0-02;
#X obj 367 25 r \$0-03;
#X obj 172 4 s \$0-04;
#X obj 184 -56 s \$0-05;
#X obj 196 -36 s \$0-06;
#X obj 208 -16 s \$0-07;
#X obj 220 4 s \$0-08;
#X obj 232 -56 s \$0-09;
#X obj 244 -36 s \$0-10;
#X obj 255 -16 s \$0-11;
#X obj 267 4 s \$0-12;
#X obj 279 -56 s \$0-13;
#X obj 291 -36 s \$0-14;
#X obj 303 -16 s \$0-15;
#X obj 315 4 s \$0-16;
#X obj 327 -56 s \$0-17;
#X obj 339 -36 s \$0-18;
#X obj 131 125 r bema-\$0;
#X obj 301 125 r bema-\$0;
#X obj 471 125 r bema-\$0;
#X obj 27 125 r \$0-04;
#X obj 197 125 r \$0-05;
#X obj 367 125 r \$0-06;
#X obj 27 202 s~ l-\$0-04;
#X obj 197 202 s~ l-\$0-05;
#X obj 367 202 s~ l-\$0-06;
#X obj 131 225 r bema-\$0;
#X obj 301 225 r bema-\$0;
#X obj 471 225 r bema-\$0;
#X obj 27 302 s~ l-\$0-07;
#X obj 197 302 s~ l-\$0-08;
#X obj 367 302 s~ l-\$0-09;
#X obj 27 225 r \$0-07;
#X obj 197 225 r \$0-08;
#X obj 367 225 r \$0-09;
#X obj 131 325 r bema-\$0;
#X obj 27 325 r \$0-10;
#X obj 27 402 s~ l-\$0-10;
#X obj 301 325 r bema-\$0;
#X obj 471 325 r bema-\$0;
#X obj 197 325 r \$0-11;
#X obj 367 325 r \$0-12;
#X obj 367 402 s~ l-\$0-12;
#X obj 197 402 s~ l-\$0-11;
#X obj 131 425 r bema-\$0;
#X obj 301 425 r bema-\$0;
#X obj 471 425 r bema-\$0;
#X obj 131 525 r bema-\$0;
#X obj 301 525 r bema-\$0;
#X obj 471 525 r bema-\$0;
#X obj 27 502 s~ l-\$0-13;
#X obj 197 502 s~ l-\$0-14;
#X obj 367 502 s~ l-\$0-15;
#X obj 367 602 s~ l-\$0-18;
#X obj 197 602 s~ l-\$0-17;
#X obj 27 602 s~ l-\$0-16;
#X obj 27 525 r \$0-16;
#X obj 197 525 r \$0-17;
#X obj 367 525 r \$0-18;
#X obj 367 425 r \$0-15;
#X obj 197 425 r \$0-14;
#X obj 27 425 r \$0-13;
#N canvas 0 24 931 370 left-right 0;
#X obj 47 342 outlet~;
#X obj 313 343 outlet~;
#X obj 273 23 r~ l-\$0-01;
#X obj 17 22 r~ l-\$0-01;
#X obj 97 22 r~ l-\$0-02;
#X obj 353 23 r~ l-\$0-02;
#X obj 177 22 r~ l-\$0-03;
#X obj 433 23 r~ l-\$0-03;
#X obj 17 52 r~ l-\$0-04;
#X obj 273 53 r~ l-\$0-04;
#X obj 97 52 r~ l-\$0-05;
#X obj 353 53 r~ l-\$0-05;
#X obj 177 52 r~ l-\$0-06;
#X obj 433 53 r~ l-\$0-06;
#X obj 433 83 r~ l-\$0-09;
#X obj 177 82 r~ l-\$0-09;
#X obj 353 83 r~ l-\$0-08;
#X obj 97 82 r~ l-\$0-08;
#X obj 273 83 r~ l-\$0-07;
#X obj 17 82 r~ l-\$0-07;
#X obj 17 112 r~ l-\$0-10;
#X obj 273 113 r~ l-\$0-10;
#X obj 97 112 r~ l-\$0-11;
#X obj 353 113 r~ l-\$0-11;
#X obj 177 112 r~ l-\$0-12;
#X obj 433 113 r~ l-\$0-12;
#X obj 433 143 r~ l-\$0-15;
#X obj 433 173 r~ l-\$0-18;
#X obj 177 172 r~ l-\$0-18;
#X obj 177 142 r~ l-\$0-15;
#X obj 353 143 r~ l-\$0-14;
#X obj 353 173 r~ l-\$0-17;
#X obj 97 172 r~ l-\$0-17;
#X obj 97 142 r~ l-\$0-14;
#X obj 273 143 r~ l-\$0-13;
#X obj 273 173 r~ l-\$0-16;
#X obj 17 172 r~ l-\$0-16;
#X obj 17 142 r~ l-\$0-13;
#X obj 17 202 r~ l-\$0-19;
#X obj 97 202 r~ l-\$0-20;
#X obj 177 202 r~ l-\$0-21;
#X obj 17 232 r~ l-\$0-22;
#X obj 97 232 r~ l-\$0-23;
#X obj 177 232 r~ l-\$0-24;
#X obj 17 262 r~ l-\$0-25;
#X obj 97 262 r~ l-\$0-26;
#X obj 177 262 r~ l-\$0-27;
#X obj 17 292 r~ l-\$0-28;
#X obj 97 292 r~ l-\$0-29;
#X obj 177 292 r~ l-\$0-30;
#X obj 273 203 r~ l-\$0-19;
#X obj 353 203 r~ l-\$0-20;
#X obj 433 203 r~ l-\$0-21;
#X obj 273 233 r~ l-\$0-22;
#X obj 353 233 r~ l-\$0-23;
#X obj 433 233 r~ l-\$0-24;
#X obj 273 263 r~ l-\$0-25;
#X obj 353 263 r~ l-\$0-26;
#X obj 433 263 r~ l-\$0-27;
#X obj 273 293 r~ l-\$0-28;
#X obj 353 293 r~ l-\$0-29;
#X obj 433 293 r~ l-\$0-30;
#X connect 2 0 1 0;
#X connect 3 0 0 0;
#X connect 4 0 0 0;
#X connect 5 0 1 0;
#X connect 6 0 0 0;
#X connect 7 0 1 0;
#X connect 8 0 0 0;
#X connect 9 0 1 0;
#X connect 10 0 0 0;
#X connect 11 0 1 0;
#X connect 12 0 0 0;
#X connect 13 0 1 0;
#X connect 14 0 1 0;
#X connect 15 0 0 0;
#X connect 16 0 1 0;
#X connect 17 0 0 0;
#X connect 18 0 1 0;
#X connect 19 0 0 0;
#X connect 20 0 0 0;
#X connect 21 0 1 0;
#X connect 22 0 0 0;
#X connect 23 0 1 0;
#X connect 24 0 0 0;
#X connect 25 0 1 0;
#X connect 26 0 1 0;
#X connect 27 0 1 0;
#X connect 28 0 0 0;
#X connect 29 0 0 0;
#X connect 30 0 1 0;
#X connect 31 0 1 0;
#X connect 32 0 0 0;
#X connect 33 0 0 0;
#X connect 34 0 1 0;
#X connect 35 0 1 0;
#X connect 36 0 0 0;
#X connect 37 0 0 0;
#X connect 38 0 0 0;
#X connect 39 0 0 0;
#X connect 40 0 0 0;
#X connect 41 0 0 0;
#X connect 42 0 0 0;
#X connect 43 0 0 0;
#X connect 44 0 0 0;
#X connect 45 0 0 0;
#X connect 46 0 0 0;
#X connect 47 0 0 0;
#X connect 48 0 0 0;
#X connect 49 0 0 0;
#X connect 50 0 1 0;
#X connect 51 0 1 0;
#X connect 52 0 1 0;
#X connect 53 0 1 0;
#X connect 54 0 1 0;
#X connect 55 0 1 0;
#X connect 56 0 1 0;
#X connect 57 0 1 0;
#X connect 58 0 1 0;
#X connect 59 0 1 0;
#X connect 60 0 1 0;
#X connect 61 0 1 0;
#X restore 930 47 pd left-right;
#X obj 1032 34 symbol \$1;
#X obj 1032 14 loadbang;
#X obj 1032 54 s lodb-\$0;
#X obj 73 25 r lodb-\$0;
#X obj 103 103 s~ r-\$0-01;
#X obj 273 103 s~ r-\$0-02;
#X obj 443 103 s~ r-\$0-03;
#X obj 443 203 s~ r-\$0-06;
#X obj 443 303 s~ r-\$0-09;
#X obj 443 403 s~ r-\$0-12;
#X obj 443 503 s~ r-\$0-15;
#X obj 443 603 s~ r-\$0-18;
#X obj 273 603 s~ r-\$0-17;
#X obj 273 503 s~ r-\$0-14;
#X obj 273 403 s~ r-\$0-11;
#X obj 273 303 s~ r-\$0-08;
#X obj 273 203 s~ r-\$0-05;
#X obj 103 203 s~ r-\$0-04;
#X obj 103 303 s~ r-\$0-07;
#X obj 103 403 s~ r-\$0-10;
#X obj 103 503 s~ r-\$0-13;
#X obj 103 603 s~ r-\$0-16;
#X obj 243 25 r lodb-\$0;
#X obj 413 25 r lodb-\$0;
#X obj 73 125 r lodb-\$0;
#X obj 243 125 r lodb-\$0;
#X obj 413 125 r lodb-\$0;
#X obj 73 225 r lodb-\$0;
#X obj 243 225 r lodb-\$0;
#X obj 413 225 r lodb-\$0;
#X obj 73 325 r lodb-\$0;
#X obj 243 325 r lodb-\$0;
#X obj 413 325 r lodb-\$0;
#X obj 73 425 r lodb-\$0;
#X obj 243 425 r lodb-\$0;
#X obj 413 425 r lodb-\$0;
#X obj 73 525 r lodb-\$0;
#X obj 243 525 r lodb-\$0;
#X obj 413 525 r lodb-\$0;
#X obj 27 42 partgrupo1-toca~;
#X obj 197 42 partgrupo1-toca~;
#X obj 367 42 partgrupo1-toca~;
#X obj 27 142 partgrupo1-toca~;
#X obj 27 242 partgrupo1-toca~;
#X obj 27 342 partgrupo1-toca~;
#X obj 27 442 partgrupo1-toca~;
#X obj 27 542 partgrupo1-toca~;
#X obj 197 542 partgrupo1-toca~;
#X obj 197 442 partgrupo1-toca~;
#X obj 197 342 partgrupo1-toca~;
#X obj 197 242 partgrupo1-toca~;
#X obj 197 142 partgrupo1-toca~;
#X obj 367 142 partgrupo1-toca~;
#X obj 367 242 partgrupo1-toca~;
#X obj 367 342 partgrupo1-toca~;
#X obj 367 442 partgrupo1-toca~;
#X obj 367 542 partgrupo1-toca~;
#X obj 641 25 r bema-\$0;
#X obj 641 125 r bema-\$0;
#X obj 641 225 r bema-\$0;
#X obj 641 325 r bema-\$0;
#X obj 641 425 r bema-\$0;
#X obj 641 525 r bema-\$0;
#X obj 583 25 r lodb-\$0;
#X obj 583 125 r lodb-\$0;
#X obj 583 225 r lodb-\$0;
#X obj 583 325 r lodb-\$0;
#X obj 583 425 r lodb-\$0;
#X obj 583 525 r lodb-\$0;
#X obj 537 42 partgrupo1-toca~;
#X obj 537 142 partgrupo1-toca~;
#X obj 537 242 partgrupo1-toca~;
#X obj 537 342 partgrupo1-toca~;
#X obj 537 442 partgrupo1-toca~;
#X obj 537 542 partgrupo1-toca~;
#X obj 537 25 r \$0-19;
#X obj 537 102 s~ l-\$0-19;
#X obj 613 103 s~ r-\$0-19;
#X obj 537 202 s~ l-\$0-20;
#X obj 537 125 r \$0-20;
#X obj 613 203 s~ r-\$0-20;
#X obj 537 302 s~ l-\$0-21;
#X obj 613 303 s~ r-\$0-21;
#X obj 537 225 r \$0-21;
#X obj 537 325 r \$0-22;
#X obj 537 402 s~ l-\$0-22;
#X obj 613 403 s~ r-\$0-22;
#X obj 537 425 r \$0-23;
#X obj 537 502 s~ l-\$0-23;
#X obj 613 503 s~ r-\$0-23;
#X obj 537 525 r \$0-24;
#X obj 537 602 s~ l-\$0-24;
#X obj 613 603 s~ r-\$0-24;
#X obj 811 25 r bema-\$0;
#X obj 811 125 r bema-\$0;
#X obj 811 225 r bema-\$0;
#X obj 811 325 r bema-\$0;
#X obj 811 425 r bema-\$0;
#X obj 811 525 r bema-\$0;
#X obj 753 25 r lodb-\$0;
#X obj 753 125 r lodb-\$0;
#X obj 753 225 r lodb-\$0;
#X obj 753 325 r lodb-\$0;
#X obj 753 425 r lodb-\$0;
#X obj 753 525 r lodb-\$0;
#X obj 707 42 partgrupo1-toca~;
#X obj 707 142 partgrupo1-toca~;
#X obj 707 242 partgrupo1-toca~;
#X obj 707 342 partgrupo1-toca~;
#X obj 707 442 partgrupo1-toca~;
#X obj 707 542 partgrupo1-toca~;
#X obj 707 25 r \$0-25;
#X obj 707 102 s~ l-\$0-25;
#X obj 783 103 s~ r-\$0-25;
#X obj 707 125 r \$0-26;
#X obj 707 202 s~ l-\$0-26;
#X obj 783 203 s~ r-\$0-26;
#X obj 707 225 r \$0-27;
#X obj 707 302 s~ l-\$0-27;
#X obj 783 303 s~ r-\$0-27;
#X obj 707 325 r \$0-28;
#X obj 707 402 s~ l-\$0-28;
#X obj 783 403 s~ r-\$0-28;
#X obj 707 425 r \$0-29;
#X obj 707 502 s~ l-\$0-29;
#X obj 783 503 s~ r-\$0-29;
#X obj 707 525 r \$0-30;
#X obj 707 602 s~ l-\$0-30;
#X obj 783 603 s~ r-\$0-30;
#X obj 43 -39 counter 0 1 30;
#X obj 137 -83 gate 30 30 30 30 30 30 30 30 30 30 30 30 30 30 30 30
30 30;
#X obj 351 -16 s \$0-19;
#X obj 363 4 s \$0-20;
#X obj 374 -56 s \$0-21;
#X obj 386 -36 s \$0-22;
#X obj 398 -16 s \$0-23;
#X obj 410 4 s \$0-24;
#X obj 422 -56 s \$0-25;
#X obj 434 -36 s \$0-26;
#X obj 446 -16 s \$0-27;
#X obj 458 4 s \$0-28;
#X obj 470 -56 s \$0-29;
#X obj 482 -36 s \$0-30;
#X connect 0 0 4 0;
#X connect 1 0 2 0;
#X connect 4 0 225 1;
#X connect 4 1 224 0;
#X connect 7 0 225 0;
#X connect 19 0 134 4;
#X connect 23 0 135 4;
#X connect 24 0 136 4;
#X connect 25 0 4 0;
#X connect 31 0 134 0;
#X connect 32 0 135 0;
#X connect 33 0 136 0;
#X connect 49 0 137 4;
#X connect 50 0 146 4;
#X connect 51 0 147 4;
#X connect 52 0 137 0;
#X connect 53 0 146 0;
#X connect 54 0 147 0;
#X connect 58 0 138 4;
#X connect 59 0 145 4;
#X connect 60 0 148 4;
#X connect 64 0 138 0;
#X connect 65 0 145 0;
#X connect 66 0 148 0;
#X connect 67 0 139 4;
#X connect 68 0 139 0;
#X connect 70 0 144 4;
#X connect 71 0 149 4;
#X connect 72 0 144 0;
#X connect 73 0 149 0;
#X connect 76 0 140 4;
#X connect 77 0 143 4;
#X connect 78 0 150 4;
#X connect 79 0 141 4;
#X connect 80 0 142 4;
#X connect 81 0 151 4;
#X connect 88 0 141 0;
#X connect 89 0 142 0;
#X connect 90 0 151 0;
#X connect 91 0 150 0;
#X connect 92 0 143 0;
#X connect 93 0 140 0;
#X connect 94 0 20 0;
#X connect 94 1 21 0;
#X connect 95 0 97 0;
#X connect 96 0 95 0;
#X connect 98 0 134 3;
#X connect 117 0 135 3;
#X connect 118 0 136 3;
#X connect 119 0 137 3;
#X connect 120 0 146 3;
#X connect 121 0 147 3;
#X connect 122 0 138 3;
#X connect 123 0 145 3;
#X connect 124 0 148 3;
#X connect 125 0 139 3;
#X connect 126 0 144 3;
#X connect 127 0 149 3;
#X connect 128 0 140 3;
#X connect 129 0 143 3;
#X connect 130 0 150 3;
#X connect 131 0 141 3;
#X connect 132 0 142 3;
#X connect 133 0 151 3;
#X connect 134 0 22 0;
#X connect 134 1 99 0;
#X connect 135 0 26 0;
#X connect 135 1 100 0;
#X connect 136 0 27 0;
#X connect 136 1 101 0;
#X connect 137 0 55 0;
#X connect 137 1 112 0;
#X connect 138 0 61 0;
#X connect 138 1 113 0;
#X connect 139 0 69 0;
#X connect 139 1 114 0;
#X connect 140 0 82 0;
#X connect 140 1 115 0;
#X connect 141 0 87 0;
#X connect 141 1 116 0;
#X connect 142 0 86 0;
#X connect 142 1 107 0;
#X connect 143 0 83 0;
#X connect 143 1 108 0;
#X connect 144 0 75 0;
#X connect 144 1 109 0;
#X connect 145 0 62 0;
#X connect 145 1 110 0;
#X connect 146 0 56 0;
#X connect 146 1 111 0;
#X connect 147 0 57 0;
#X connect 147 1 102 0;
#X connect 148 0 63 0;
#X connect 148 1 103 0;
#X connect 149 0 74 0;
#X connect 149 1 104 0;
#X connect 150 0 84 0;
#X connect 150 1 105 0;
#X connect 151 0 85 0;
#X connect 151 1 106 0;
#X connect 152 0 164 4;
#X connect 153 0 165 4;
#X connect 154 0 166 4;
#X connect 155 0 167 4;
#X connect 156 0 168 4;
#X connect 157 0 169 4;
#X connect 158 0 164 3;
#X connect 159 0 165 3;
#X connect 160 0 166 3;
#X connect 161 0 167 3;
#X connect 162 0 168 3;
#X connect 163 0 169 3;
#X connect 164 0 171 0;
#X connect 164 1 172 0;
#X connect 165 0 173 0;
#X connect 165 1 175 0;
#X connect 166 0 176 0;
#X connect 166 1 177 0;
#X connect 167 0 180 0;
#X connect 167 1 181 0;
#X connect 168 0 183 0;
#X connect 168 1 184 0;
#X connect 169 0 186 0;
#X connect 169 1 187 0;
#X connect 170 0 164 0;
#X connect 174 0 165 0;
#X connect 178 0 166 0;
#X connect 179 0 167 0;
#X connect 182 0 168 0;
#X connect 185 0 169 0;
#X connect 188 0 200 4;
#X connect 189 0 201 4;
#X connect 190 0 202 4;
#X connect 191 0 203 4;
#X connect 192 0 204 4;
#X connect 193 0 205 4;
#X connect 194 0 200 3;
#X connect 195 0 201 3;
#X connect 196 0 202 3;
#X connect 197 0 203 3;
#X connect 198 0 204 3;
#X connect 199 0 205 3;
#X connect 200 0 207 0;
#X connect 200 1 208 0;
#X connect 201 0 210 0;
#X connect 201 1 211 0;
#X connect 202 0 213 0;
#X connect 202 1 214 0;
#X connect 203 0 216 0;
#X connect 203 1 217 0;
#X connect 204 0 219 0;
#X connect 204 1 220 0;
#X connect 205 0 222 0;
#X connect 205 1 223 0;
#X connect 206 0 200 0;
#X connect 209 0 201 0;
#X connect 212 0 202 0;
#X connect 215 0 203 0;
#X connect 218 0 204 0;
#X connect 221 0 205 0;
#X connect 224 0 7 0;
#X connect 225 0 30 0;
#X connect 225 1 29 0;
#X connect 225 2 28 0;
#X connect 225 3 34 0;
#X connect 225 4 35 0;
#X connect 225 5 36 0;
#X connect 225 6 37 0;
#X connect 225 7 38 0;
#X connect 225 8 39 0;
#X connect 225 9 40 0;
#X connect 225 10 41 0;
#X connect 225 11 42 0;
#X connect 225 12 43 0;
#X connect 225 13 44 0;
#X connect 225 14 45 0;
#X connect 225 15 46 0;
#X connect 225 16 47 0;
#X connect 225 17 48 0;
#X connect 225 18 226 0;
#X connect 225 19 227 0;
#X connect 225 20 228 0;
#X connect 225 21 229 0;
#X connect 225 22 230 0;
#X connect 225 23 231 0;
#X connect 225 24 232 0;
#X connect 225 25 233 0;
#X connect 225 26 234 0;
#X connect 225 27 235 0;
#X connect 225 28 236 0;
#X connect 225 29 237 0;
