#N canvas 498 222 686 463 10;
#X obj 87 174 inlet~;
#X floatatom 247 143 5 0 100 2 fb1 - -;
#X obj 88 371 outlet~;
#X floatatom 127 143 5 0 0 2 delfb1 - -;
#X floatatom 335 143 5 0 0 2 vel1 - -;
#X obj 103 142 tgl 15 0 empty empty in 0 -8 0 10 -262144 -1 -1 0 1
;
#X floatatom 374 143 5 0 0 2 amp1 - -;
#X floatatom 413 143 5 0 0 2 del1 - -;
#X obj 482 142 bng 15 250 50 0 empty empty empty 0 -6 0 10 -262144
-1 -1;
#X obj 88 253 *~;
#X obj 103 226 line~;
#X msg 103 201 \$1 100;
#X obj 103 33 inlet;
#X obj 335 53 inlet;
#X obj 374 73 inlet;
#X obj 413 33 inlet;
#X obj 247 73 inlet;
#X obj 127 53 inlet;
#X obj 479 33 inlet;
#X obj 88 317 hip~ 5;
#X obj 88 344 lop~ 18000;
#X floatatom 511 143 5 0 0 2 vel2 - -;
#X floatatom 550 143 5 0 0 2 amp2 - -;
#X floatatom 589 143 5 0 0 2 del2 - -;
#X obj 238 371 outlet~;
#X obj 238 317 hip~ 5;
#X obj 238 344 lop~ 18000;
#X obj 453 142 tgl 15 0 empty empty empty 0 -6 0 10 -262144 -1 -1 1
1;
#X obj 629 142 tgl 15 0 empty empty empty 0 -6 0 10 -262144 -1 -1 1
1;
#N canvas 56 49 1145 688 transp1 0;
#X obj 397 101 phasor~;
#X floatatom 397 64 5 0 0 2 velocidade_do_ciclo - -;
#X msg 630 145 0.5;
#X msg 436 79 0;
#X obj 399 270 +~;
#X floatatom 524 165 5 0 0 2 delay - -;
#X obj 398 214 *~;
#X floatatom 469 128 5 0 0 2 ampl_ciclo - -;
#X obj 397 569 outlet~;
#X obj 591 168 phasor~;
#X obj 593 267 +~;
#X obj 592 211 *~;
#X obj 630 115 bng 15 250 50 0 empty empty empty 0 -6 0 8 -262144 -1
-1;
#X obj 396 24 inlet;
#X obj 398 357 *~;
#X obj 593 356 *~;
#X obj 469 65 inlet;
#X obj 524 128 inlet;
#X obj 630 79 inlet;
#X obj 469 90 * -1;
#X obj 469 172 line~;
#X obj 457 385 env~ 22050;
#X floatatom 457 415 5 0 0 0 - - -;
#X obj 531 391 env~ 22050;
#X floatatom 531 421 5 0 0 0 - - -;
#X obj 515 212 line~;
#X obj 337 196 *~ 100;
#X obj 528 263 *~ 100;
#X msg 469 147 \$1 500;
#X msg 515 188 \$1 100;
#N canvas 854 340 299 354 anti-estouro-fb 0;
#X obj 73 31 inlet~;
#X obj 73 122 sel 1;
#X obj 115 172 inlet;
#X obj 85 242 +;
#X obj 100 217 f;
#X obj 73 189 t f b;
#X obj 198 124 sel 0 1;
#X obj 85 281 spigot;
#X obj 118 254 tgl 15 0 empty empty empty 0 -6 0 8 -262144 -1 -1 0
1;
#X msg 198 153 1;
#X msg 233 154 0;
#X obj 198 91 < 40;
#X floatatom 24 90 5 0 0 0 - - -;
#X msg 73 151 -1;
#X obj 73 60 env~ 22050;
#X obj 73 89 > 90;
#X obj 85 306 outlet;
#X connect 0 0 14 0;
#X connect 1 0 13 0;
#X connect 2 0 4 1;
#X connect 3 0 7 0;
#X connect 4 0 3 1;
#X connect 5 0 3 0;
#X connect 5 1 4 0;
#X connect 6 0 9 0;
#X connect 6 1 10 0;
#X connect 7 0 16 0;
#X connect 8 0 7 1;
#X connect 9 0 8 0;
#X connect 10 0 8 0;
#X connect 11 0 6 0;
#X connect 13 0 5 0;
#X connect 14 0 11 0;
#X connect 14 0 12 0;
#X connect 14 0 15 0;
#X connect 15 0 1 0;
#X restore 177 113 pd anti-estouro-fb;
#X obj 399 322 vd~ \$0-a;
#X obj 594 326 vd~ \$0-a;
#X msg 142 335 \$1 1000;
#X obj 142 359 line~;
#X obj 141 417 hip~ 5;
#X obj 97 537 delwrite~ \$0-a 30000;
#X obj 142 383 vd~ \$0-feeda;
#X obj 96 378 inlet~;
#X obj 332 499 inlet;
#X obj 142 299 inlet;
#N canvas 0 0 450 300 graph2 0;
#X array \$0-pitch-accum-crossfade 100 float 3;
#A 0 0 0.0157073 0.0471064 0.078459 0.109734 0.140901 0.171929 0.202787
0.233445 0.263873 0.29404 0.323917 0.353475 0.382683 0.411514 0.439939
0.46793 0.495459 0.522498 0.549022 0.575004 0.600419 0.625242 0.649446
0.673011 0.695911 0.718125 0.739629 0.760404 0.780428 0.799683 0.818147
0.835805 0.852638 0.86863 0.883763 0.898025 0.911401 0.923878 0.935442
0.946083 0.955791 0.964556 0.972368 0.979221 0.985107 0.990022 0.99396
0.996916 0.998888 0.999876 0.999505 0.998025 0.99556 0.992114 0.987687
0.982285 0.975915 0.968581 0.960292 0.951054 0.940878 0.929774 0.917752
0.904824 0.891004 0.876304 0.86074 0.844325 0.827078 0.809015 0.790153
0.770511 0.750109 0.728967 0.695911 0.673011 0.649446 0.625242 0.600419
0.575004 0.549022 0.522498 0.495459 0.46793 0.439939 0.411514 0.382683
0.353475 0.323917 0.29404 0.263873 0.233445 0.202787 0.171929 0.140901
0.109734 0.078459 0.0471064 0;
#X coords 0 1 100 0 200 50 1;
#X restore 125 171 graph;
#X obj 527 286 tabread~ \$0-pitch-accum-crossfade;
#X obj 336 239 tabread~ \$0-pitch-accum-crossfade;
#X obj 767 101 phasor~;
#X floatatom 767 64 5 0 0 2 velocidade_do_ciclo - -;
#X msg 1000 145 0.5;
#X msg 806 79 0;
#X obj 769 270 +~;
#X floatatom 894 165 5 0 0 2 delay - -;
#X obj 768 214 *~;
#X floatatom 849 128 5 0 0 2 ampl_ciclo - -;
#X obj 767 579 outlet~;
#X obj 961 168 phasor~;
#X obj 963 267 +~;
#X obj 962 211 *~;
#X obj 766 24 inlet;
#X obj 768 357 *~;
#X obj 963 356 *~;
#X obj 849 65 inlet;
#X obj 894 128 inlet;
#X obj 849 90 * -1;
#X obj 849 172 line~;
#X obj 837 385 env~ 22050;
#X floatatom 837 415 5 0 0 0 - - -;
#X obj 901 411 env~ 22050;
#X floatatom 901 441 5 0 0 0 - - -;
#X obj 885 212 line~;
#X obj 717 196 *~ 100;
#X obj 908 259 *~ 100;
#X msg 849 147 \$1 500;
#X msg 885 188 \$1 100;
#X obj 907 286 tabread~ \$0-pitch-accum-crossfade;
#X obj 716 239 tabread~ \$0-pitch-accum-crossfade;
#X msg 412 478 \$1 1000;
#X obj 412 505 line~;
#X obj 582 426 inlet;
#X obj 397 532 *~;
#X obj 412 453 tgl 15 0 empty empty empty 0 -6 0 10 -262144 -1 -1 1
1;
#X msg 782 498 \$1 1000;
#X obj 782 525 line~;
#X obj 952 446 inlet;
#X obj 767 552 *~;
#X obj 782 473 tgl 15 0 empty empty empty 0 -6 0 10 -262144 -1 -1 1
1;
#X obj 360 463 inlet;
#X obj 728 638 delwrite~ \$0-feedb 30000;
#X obj 370 624 delwrite~ \$0-feeda 30000;
#X msg 222 335 \$1 1000;
#X obj 222 359 line~;
#X obj 222 299 inlet;
#X obj 222 383 vd~ \$0-feedb;
#X obj 157 567 delwrite~ \$0-b 30000;
#X obj 191 417 hip~ 5;
#X obj 964 326 vd~ \$0-b;
#X obj 769 322 vd~ \$0-b;
#X obj 728 610 gatt~;
#X obj 371 596 gatt~;
#X obj 265 282 inlet;
#X obj 265 309 tgl 15 0 empty empty empty 0 -6 0 10 -262144 -1 -1 0
1;
#N canvas 71 142 859 421 inverte 0;
#X obj 227 63 sel 0 1;
#X obj 66 175 gate~;
#X obj 387 191 gate~;
#X msg 196 97 1;
#X obj 134 176 gate~;
#X obj 323 191 gate~;
#X msg 295 98 1;
#X msg 228 98 0;
#X msg 266 97 0;
#X obj 119 60 inlet~;
#X obj 359 56 inlet~;
#X obj 566 8 inlet;
#X obj 65 296 outlet~;
#X obj 357 296 outlet~;
#X connect 0 0 3 0;
#X connect 0 0 7 0;
#X connect 0 1 6 0;
#X connect 0 1 8 0;
#X connect 1 0 12 0;
#X connect 2 0 13 0;
#X connect 3 0 1 1;
#X connect 3 0 2 1;
#X connect 4 0 13 0;
#X connect 5 0 12 0;
#X connect 6 0 4 1;
#X connect 6 0 5 1;
#X connect 7 0 4 1;
#X connect 7 0 5 1;
#X connect 8 0 1 1;
#X connect 8 0 2 1;
#X connect 9 0 4 0;
#X connect 9 0 1 0;
#X connect 10 0 5 0;
#X connect 10 0 2 0;
#X connect 11 0 0 0;
#X restore 141 456 pd inverte;
#X obj 398 399 hip~ 50;
#X obj 768 419 hip~ 50;
#X connect 0 0 6 0;
#X connect 0 0 26 0;
#X connect 1 0 0 0;
#X connect 1 0 9 0;
#X connect 2 0 9 1;
#X connect 3 0 0 1;
#X connect 4 0 31 0;
#X connect 5 0 29 0;
#X connect 6 0 4 0;
#X connect 7 0 28 0;
#X connect 9 0 11 0;
#X connect 9 0 27 0;
#X connect 10 0 32 0;
#X connect 11 0 10 0;
#X connect 12 0 3 0;
#X connect 12 0 2 0;
#X connect 12 0 47 0;
#X connect 12 0 46 0;
#X connect 13 0 1 0;
#X connect 14 0 21 0;
#X connect 14 0 100 0;
#X connect 15 0 23 0;
#X connect 15 0 100 0;
#X connect 16 0 19 0;
#X connect 17 0 5 0;
#X connect 18 0 12 0;
#X connect 19 0 7 0;
#X connect 20 0 6 1;
#X connect 20 0 11 1;
#X connect 21 0 22 0;
#X connect 23 0 24 0;
#X connect 25 0 4 1;
#X connect 25 0 10 1;
#X connect 26 0 43 0;
#X connect 27 0 42 0;
#X connect 28 0 20 0;
#X connect 29 0 25 0;
#X connect 31 0 14 0;
#X connect 32 0 15 0;
#X connect 33 0 34 0;
#X connect 34 0 37 0;
#X connect 35 0 99 0;
#X connect 37 0 35 0;
#X connect 38 0 36 0;
#X connect 38 0 91 0;
#X connect 39 0 96 1;
#X connect 40 0 33 0;
#X connect 42 0 15 1;
#X connect 43 0 14 1;
#X connect 44 0 50 0;
#X connect 44 0 68 0;
#X connect 45 0 44 0;
#X connect 45 0 53 0;
#X connect 46 0 53 1;
#X connect 47 0 44 1;
#X connect 48 0 94 0;
#X connect 49 0 71 0;
#X connect 50 0 48 0;
#X connect 51 0 70 0;
#X connect 53 0 55 0;
#X connect 53 0 69 0;
#X connect 54 0 93 0;
#X connect 55 0 54 0;
#X connect 56 0 45 0;
#X connect 57 0 63 0;
#X connect 57 0 101 0;
#X connect 58 0 65 0;
#X connect 58 0 101 0;
#X connect 59 0 61 0;
#X connect 60 0 49 0;
#X connect 61 0 51 0;
#X connect 62 0 50 1;
#X connect 62 0 55 1;
#X connect 63 0 64 0;
#X connect 65 0 66 0;
#X connect 67 0 48 1;
#X connect 67 0 54 1;
#X connect 68 0 73 0;
#X connect 69 0 72 0;
#X connect 70 0 62 0;
#X connect 71 0 67 0;
#X connect 72 0 58 1;
#X connect 73 0 57 1;
#X connect 74 0 75 0;
#X connect 75 0 77 1;
#X connect 76 0 78 0;
#X connect 77 0 8 0;
#X connect 77 0 96 0;
#X connect 78 0 74 0;
#X connect 79 0 80 0;
#X connect 80 0 82 1;
#X connect 81 0 83 0;
#X connect 82 0 52 0;
#X connect 82 0 95 0;
#X connect 83 0 79 0;
#X connect 84 0 95 1;
#X connect 87 0 88 0;
#X connect 88 0 90 0;
#X connect 89 0 87 0;
#X connect 90 0 92 0;
#X connect 92 0 99 1;
#X connect 93 0 58 0;
#X connect 94 0 57 0;
#X connect 95 0 85 0;
#X connect 96 0 86 0;
#X connect 97 0 98 0;
#X connect 98 0 99 2;
#X connect 99 0 36 0;
#X connect 99 1 91 0;
#X connect 100 0 77 0;
#X connect 101 0 82 0;
#X restore 88 290 pd transp1 -------------------------------------------------
;
#X floatatom 167 143 5 0 0 2 delfb2 - -;
#X obj 167 53 inlet;
#X floatatom 287 143 5 0 100 2 fb2 - -;
#X obj 287 73 inlet;
#X floatatom 287 109 5 0 100 0 - - -;
#X obj 209 142 tgl 15 0 empty empty cruza 0 -6 0 10 -262144 -1 -1 0
1;
#X msg 518 72 30;
#X msg 558 72 31;
#X connect 0 0 9 0;
#X connect 1 0 29 4;
#X connect 3 0 29 1;
#X connect 4 0 29 6;
#X connect 5 0 11 0;
#X connect 6 0 29 7;
#X connect 7 0 29 8;
#X connect 8 0 29 10;
#X connect 8 0 36 0;
#X connect 8 0 37 0;
#X connect 9 0 29 0;
#X connect 10 0 9 1;
#X connect 11 0 10 0;
#X connect 12 0 5 0;
#X connect 13 0 4 0;
#X connect 14 0 6 0;
#X connect 15 0 7 0;
#X connect 16 0 1 0;
#X connect 17 0 3 0;
#X connect 18 0 8 0;
#X connect 19 0 20 0;
#X connect 20 0 2 0;
#X connect 21 0 29 11;
#X connect 22 0 29 12;
#X connect 23 0 29 13;
#X connect 25 0 26 0;
#X connect 26 0 24 0;
#X connect 27 0 29 9;
#X connect 28 0 29 14;
#X connect 29 0 19 0;
#X connect 29 1 25 0;
#X connect 30 0 29 2;
#X connect 31 0 30 0;
#X connect 32 0 29 5;
#X connect 33 0 32 0;
#X connect 34 0 32 0;
#X connect 34 0 1 0;
#X connect 35 0 29 3;
#X connect 36 0 22 0;
#X connect 36 0 6 0;
#X connect 37 0 23 0;
#X connect 37 0 7 0;
#X coords 0 -1 1 1 550 60 1 100 100;
