#N canvas 596 139 597 575 10;
#X obj 87 174 inlet~;
#X floatatom 167 133 5 0 105 2 fb-100 - -;
#X obj 88 371 outlet~;
#X floatatom 209 133 5 0 0 2 delfb - -;
#X floatatom 125 133 5 0 0 2 vel1 - -;
#X obj 103 132 tgl 15 0 empty empty in 0 -8 0 10 -262144 -1 -1 1 1
;
#X floatatom 254 133 5 0 0 2 ampl1 - -;
#X floatatom 293 133 5 0 0 2 del1 - -;
#X obj 332 132 bng 15 250 50 0 empty empty empty 0 -6 0 10 -262144
-1 -1;
#X obj 88 253 *~;
#X obj 103 226 line~;
#X msg 103 201 \$1 100;
#X obj 103 33 inlet;
#X obj 125 53 inlet;
#X obj 254 73 inlet;
#X obj 293 33 inlet;
#X obj 167 53 inlet;
#X obj 209 73 inlet;
#X obj 332 33 inlet;
#X obj 88 344 lop~ 18000;
#N canvas 65 49 1126 688 transp1 0;
#X obj 167 101 phasor~;
#X floatatom 167 64 5 0 0 2 velocidade_do_ciclo - -;
#X msg 405 75 0.5;
#X msg 211 79 0;
#X obj 169 320 +~;
#X floatatom 294 215 5 0 0 2 delay - -;
#X obj 168 264 *~;
#X floatatom 209 188 5 0 0 2 ampl_ciclo - -;
#X obj 168 486 outlet~;
#X obj 361 98 phasor~;
#X obj 363 317 +~;
#X obj 362 261 *~;
#X obj 405 45 bng 15 250 50 0 empty empty empty 0 -6 0 8 -262144 -1
-1;
#X obj 166 24 inlet;
#X obj 168 387 *~;
#X obj 363 386 *~;
#X obj 209 125 inlet;
#X obj 294 178 inlet;
#X obj 405 9 inlet;
#X obj 209 150 * -1;
#X obj 209 232 line~;
#X obj 77 415 env~ 22050;
#X floatatom 77 445 5 0 0 0 - - -;
#X obj 301 441 env~ 22050;
#X floatatom 301 471 5 0 0 0 - - -;
#X obj 285 262 line~;
#X obj 47 246 *~ 100;
#X obj 418 263 *~ 100;
#X msg 209 207 \$1 500;
#X msg 285 238 \$1 100;
#N canvas 854 340 299 354 anti-estouro-fb 0;
#X obj 73 31 inlet~;
#X obj 73 122 sel 1;
#X obj 115 172 inlet;
#X obj 85 242 +;
#X obj 100 217 f;
#X obj 73 189 t f b;
#X obj 198 124 sel 0 1;
#X obj 85 281 spigot;
#X obj 118 254 tgl 15 0 empty empty empty 0 -6 0 8 -262144 -1 -1 0
1;
#X msg 198 153 1;
#X msg 233 154 0;
#X obj 198 91 < 40;
#X floatatom 24 90 5 0 0 0 - - -;
#X msg 73 151 -1;
#X obj 73 60 env~ 22050;
#X obj 73 89 > 90;
#X obj 85 306 outlet;
#X connect 0 0 14 0;
#X connect 1 0 13 0;
#X connect 2 0 4 1;
#X connect 3 0 7 0;
#X connect 4 0 3 1;
#X connect 5 0 3 0;
#X connect 5 1 4 0;
#X connect 6 0 9 0;
#X connect 6 1 10 0;
#X connect 7 0 16 0;
#X connect 8 0 7 1;
#X connect 9 0 8 0;
#X connect 10 0 8 0;
#X connect 11 0 6 0;
#X connect 13 0 5 0;
#X connect 14 0 11 0;
#X connect 14 0 12 0;
#X connect 14 0 15 0;
#X connect 15 0 1 0;
#X restore 562 123 pd anti-estouro-fb;
#X obj 169 352 vd~ \$0-a;
#X obj 364 356 vd~ \$0-a;
#X msg 482 435 \$1 1000;
#X obj 482 459 line~;
#X obj 417 496 *~;
#X obj 432 415 * 0.01;
#X obj 432 469 line~;
#X msg 432 442 \$1 100;
#X obj 482 483 vd~ \$0-feeda;
#X obj 116 518 inlet~;
#X obj 432 379 inlet;
#X obj 482 379 inlet;
#N canvas 0 0 450 300 (subpatch) 0;
#X array \$0-pitch-accum-crossfade 100 float 3;
#A 0 0 0.0157073 0.0471064 0.078459 0.109734 0.140901 0.171929 0.202787
0.233445 0.263873 0.29404 0.323917 0.353475 0.382683 0.411514 0.439939
0.46793 0.495459 0.522498 0.549022 0.575004 0.600419 0.625242 0.649446
0.673011 0.695911 0.718125 0.739629 0.760404 0.780428 0.799683 0.818147
0.835805 0.852638 0.86863 0.883763 0.898025 0.911401 0.923878 0.935442
0.946083 0.955791 0.964556 0.972368 0.979221 0.985107 0.990022 0.99396
0.996916 0.998888 0.999876 0.999505 0.998025 0.99556 0.992114 0.987687
0.982285 0.975915 0.968581 0.960292 0.951054 0.940878 0.929774 0.917752
0.904824 0.891004 0.876304 0.86074 0.844325 0.827078 0.809015 0.790153
0.770511 0.750109 0.728967 0.695911 0.673011 0.649446 0.625242 0.600419
0.575004 0.549022 0.522498 0.495459 0.46793 0.439939 0.411514 0.382683
0.353475 0.323917 0.29404 0.263873 0.233445 0.202787 0.171929 0.140901
0.109734 0.078459 0.0471064 0;
#X coords 0 1 100 0 200 50 1;
#X restore 819 32 graph;
#X obj 417 306 tabread~ \$0-pitch-accum-crossfade;
#X obj 46 289 tabread~ \$0-pitch-accum-crossfade;
#X obj 168 449 hip~ 30;
#X obj 181 547 hip~ 30;
#X obj 117 577 delwrite~ \$0-a 10000;
#X obj 416 518 delwrite~ \$0-feeda 10000;
#X connect 0 0 6 0;
#X connect 0 0 26 0;
#X connect 1 0 0 0;
#X connect 1 0 9 0;
#X connect 2 0 9 1;
#X connect 3 0 0 1;
#X connect 4 0 31 0;
#X connect 5 0 29 0;
#X connect 6 0 4 0;
#X connect 7 0 28 0;
#X connect 9 0 11 0;
#X connect 9 0 27 0;
#X connect 10 0 32 0;
#X connect 11 0 10 0;
#X connect 12 0 3 0;
#X connect 12 0 2 0;
#X connect 13 0 1 0;
#X connect 14 0 21 0;
#X connect 14 0 46 0;
#X connect 15 0 23 0;
#X connect 15 0 46 0;
#X connect 16 0 19 0;
#X connect 17 0 5 0;
#X connect 18 0 12 0;
#X connect 19 0 7 0;
#X connect 20 0 6 1;
#X connect 20 0 11 1;
#X connect 21 0 22 0;
#X connect 23 0 24 0;
#X connect 25 0 4 1;
#X connect 25 0 10 1;
#X connect 26 0 45 0;
#X connect 27 0 44 0;
#X connect 28 0 20 0;
#X connect 29 0 25 0;
#X connect 31 0 14 0;
#X connect 32 0 15 0;
#X connect 33 0 34 0;
#X connect 34 0 39 0;
#X connect 35 0 49 0;
#X connect 36 0 38 0;
#X connect 37 0 35 1;
#X connect 38 0 37 0;
#X connect 39 0 47 0;
#X connect 40 0 48 0;
#X connect 41 0 36 0;
#X connect 42 0 33 0;
#X connect 44 0 15 1;
#X connect 45 0 14 1;
#X connect 46 0 8 0;
#X connect 46 0 35 0;
#X connect 47 0 48 0;
#X restore 88 290 pd transp1 ----------------------------;
#X obj 88 317 hip~ 10;
#X obj 332 112 bng 15 250 50 0 empty empty empty 0 -6 0 10 -262144
-1 -1;
#X msg 264 207 30;
#X msg 303 207 31;
#X msg 264 177 18;
#X msg 303 177 19;
#X obj 372 33 inlet;
#X connect 0 0 9 0;
#X connect 1 0 20 5;
#X connect 3 0 20 6;
#X connect 4 0 20 1;
#X connect 5 0 11 0;
#X connect 6 0 20 2;
#X connect 7 0 20 3;
#X connect 8 0 20 4;
#X connect 8 0 26 0;
#X connect 8 0 25 0;
#X connect 9 0 20 0;
#X connect 10 0 9 1;
#X connect 11 0 10 0;
#X connect 12 0 5 0;
#X connect 13 0 4 0;
#X connect 14 0 6 0;
#X connect 15 0 7 0;
#X connect 16 0 1 0;
#X connect 17 0 3 0;
#X connect 18 0 8 0;
#X connect 19 0 2 0;
#X connect 20 0 21 0;
#X connect 21 0 19 0;
#X connect 22 0 20 4;
#X connect 25 0 6 0;
#X connect 26 0 7 0;
#X connect 27 0 22 0;
#X coords 0 -1 1 1 250 50 1 100 100;
