#N canvas 10 73 450 300 10;
#X obj 165 232 tgl 15 0 empty empty empty 0 -6 0 10 -262144 -1 -1 0
1;
#X msg 165 175 0;
#X msg 215 205 1;
#X obj 165 94 inlet;
#X obj 165 257 outlet;
#X obj 165 121 sel 0;
#X obj 215 148 > 0;
#X floatatom 218 97 5 0 0 0 - - -;
#X obj 215 175 sel 1;
#X obj 165 148 del 70;
#X connect 0 0 4 0;
#X connect 1 0 0 0;
#X connect 2 0 0 0;
#X connect 3 0 5 0;
#X connect 5 0 9 0;
#X connect 5 1 6 0;
#X connect 6 0 8 0;
#X connect 7 0 5 0;
#X connect 8 0 2 0;
#X connect 9 0 1 0;
