#N canvas 711 167 450 440 10;
#X obj 101 -37 inlet~;
#X obj 35 231 outlet~;
#X obj 153 103 tgl 15 0 empty empty in 0 22 0 10 -262144 -1 -1 1 1
;
#X obj 178 103 tgl 15 0 empty empty del 0 22 0 10 -262144 -1 -1 1 1
;
#X obj 101 -10 gate~;
#X obj 165 -14 delread~ \$1-manter;
#X floatatom 101 143 5 0 105 2 manter - -;
#X obj 281 40 gate~;
#X obj 203 103 tgl 15 0 empty empty rabuta 0 22 0 10 -262144 -1 -1
1 1;
#X floatatom 178 143 5 0 0 2 tempo - -;
#X floatatom 216 143 5 0 0 2 varia - -;
#X obj 271 219 +;
#X obj 271 192 f;
#X obj 271 167 t b f;
#X obj 280 108 delread~ \$1-rabutar;
#X floatatom 139 143 5 0 105 2 rabuta - -;
#X floatatom 14 173 5 0 0 2 tempo - -;
#X floatatom 63 173 5 0 0 2 varia - -;
#X obj 339 39 gatt~;
#X obj 179 39 gatte~;
#X floatatom 283 255 5 0 0 0 - - -;
#X obj 101 67 delwrite~ \$1-manter 4000;
#X obj 280 68 delwrite~ \$1-rabutar 4000;
#X obj 267 140 gatt~;
#X floatatom 139 183 5 0 105 2 rab-fica - -;
#X obj 179 14 hip~ 10;
#X connect 0 0 4 0;
#X connect 2 0 4 1;
#X connect 3 0 19 2;
#X connect 4 0 21 0;
#X connect 4 0 7 0;
#X connect 5 0 1 0;
#X connect 5 0 25 0;
#X connect 6 0 19 1;
#X connect 7 0 22 0;
#X connect 8 0 7 1;
#X connect 9 0 5 0;
#X connect 9 0 12 0;
#X connect 10 0 13 0;
#X connect 11 0 20 0;
#X connect 12 0 11 0;
#X connect 13 0 12 0;
#X connect 13 1 11 1;
#X connect 14 0 18 0;
#X connect 14 0 23 0;
#X connect 15 0 18 1;
#X connect 18 0 22 0;
#X connect 19 0 21 0;
#X connect 20 0 14 0;
#X connect 23 0 25 0;
#X connect 24 0 23 1;
#X connect 25 0 19 0;
#X coords 0 -1 1 1 150 100 1 100 100;
