#N canvas 259 138 450 440 10;
#X obj 33 -77 inlet~;
#X obj 100 104 tgl 15 0 empty empty in 0 22 0 10 -262144 -1 -1 0 1
;
#X obj 33 -50 gate~;
#X floatatom 121 143 5 0 105 2 manter - -;
#X floatatom 159 143 5 0 0 2 tempo - -;
#X floatatom 217 182 5 0 0 2 varia - -;
#X obj 196 264 +;
#X obj 196 237 f;
#X obj 196 212 t b f;
#X floatatom 179 182 5 0 105 2 rabuta - -;
#X floatatom 14 173 5 0 0 2 tempo - -;
#X floatatom 63 173 5 0 0 2 varia - -;
#X obj 257 13 gatt~;
#X floatatom 183 296 5 0 0 0 - - -;
#X obj 182 -16 gatt~;
#X floatatom 141 182 5 0 105 2 rab-fica - -;
#X obj 51 25 hip~ 10;
#X obj 15 104 gatt~;
#X obj 15 133 outlet~;
#X obj 182 -43 delread~ \$0-rabutar;
#X obj 184 53 delwrite~ \$0-rabutar 4000;
#X obj 33 77 delwrite~ \$0-manter 4000;
#X obj 50 -11 delread~ \$0-manter;
#X obj 280 156 switch~;
#X obj 280 125 pre-switch;
#X obj 51 50 gatt~;
#X obj 185 28 gatt~;
#X floatatom 103 182 5 0 0 0 - - -;
#X connect 0 0 2 0;
#X connect 1 0 2 1;
#X connect 1 0 24 0;
#X connect 2 0 17 0;
#X connect 2 0 21 0;
#X connect 2 0 26 0;
#X connect 3 0 25 1;
#X connect 4 0 7 0;
#X connect 4 0 22 0;
#X connect 5 0 8 0;
#X connect 6 0 13 0;
#X connect 7 0 6 0;
#X connect 8 0 7 0;
#X connect 8 1 6 1;
#X connect 9 0 12 1;
#X connect 12 0 20 0;
#X connect 13 0 19 0;
#X connect 14 0 16 0;
#X connect 15 0 14 1;
#X connect 16 0 25 0;
#X connect 17 0 18 0;
#X connect 19 0 12 0;
#X connect 19 0 14 0;
#X connect 22 0 16 0;
#X connect 24 0 23 0;
#X connect 25 0 17 0;
#X connect 25 0 21 0;
#X connect 26 0 20 0;
#X connect 27 0 26 1;
#X coords 0 -1 1 1 150 100 1 100 100;
