#N canvas 163 271 450 445 10;
#X obj 96 69 inlet~;
#X obj 132 204 cos~;
#X obj 135 117 hsl 101 12 0 25 0 0 empty empty empty -2 -8 0 10 -262144
-1 -1 0 1;
#X obj 116 262 *~;
#X obj 132 179 * 0.01;
#X obj 282 204 cos~;
#X obj 282 177 * 0.01;
#X obj 282 150 + 25;
#X obj 296 262 *~;
#X obj 116 289 outlet~;
#X obj 296 289 *~;
#X obj 346 180 osc~;
#X floatatom 194 101 7 0 0 0 - - -;
#X obj 296 316 outlet~;
#X obj 179 101 bng 15 250 50 0 empty empty empty 17 7 0 10 -262144
-1 -1;
#X msg 278 119 0;
#X obj 50 153 hip~;
#X obj 49 123 inlet~;
#X obj 50 243 outlet~;
#X obj 50 183 hip~;
#X obj 50 213 hip~;
#X floatatom 134 101 7 0 0 0 - - -;
#X connect 0 0 3 0;
#X connect 0 0 8 0;
#X connect 1 0 3 1;
#X connect 2 0 4 0;
#X connect 2 0 7 0;
#X connect 3 0 9 0;
#X connect 4 0 1 0;
#X connect 5 0 8 1;
#X connect 6 0 5 0;
#X connect 7 0 6 0;
#X connect 8 0 10 0;
#X connect 10 0 13 0;
#X connect 11 0 10 1;
#X connect 12 0 11 0;
#X connect 14 0 15 0;
#X connect 15 0 11 1;
#X connect 16 0 19 0;
#X connect 17 0 16 0;
#X connect 19 0 20 0;
#X connect 20 0 18 0;
#X connect 21 0 16 1;
#X connect 21 0 19 1;
#X connect 21 0 20 1;
#X coords 0 -1 1 1 140 31 1 100 100;
