#N canvas 119 354 450 445 10;
#X obj 36 251 inlet~;
#X obj 85 312 *~;
#X obj 101 283 osc~;
#X obj 85 399 outlet~;
#X obj 198 133 bng 15 250 50 0 empty empty empty 17 7 0 10 -262144
-1 -1;
#X msg 137 252 0;
#X floatatom 101 132 5 0 0 2 X - -;
#X floatatom 215 132 7 0 0 0 - - -;
#X obj 166 11 inlet;
#X obj 101 11 inlet;
#X obj 101 252 line~;
#X obj 86 166 * 1;
#X floatatom 166 132 5 0 0 2 valor - -;
#X floatatom 133 132 5 0 0 2 + - -;
#X obj 133 31 inlet;
#X msg 101 221 \$1 50;
#X obj 143 -9 loadbang;
#X obj 101 51 f \$1;
#X obj 133 71 f \$2;
#X obj 166 51 f \$3;
#X obj 198 31 inlet;
#X obj 86 196 + 1;
#X floatatom 216 112 5 0 0 2 volume - -;
#X obj 85 340 gatt~ 50;
#X connect 0 0 1 0;
#X connect 1 0 23 0;
#X connect 2 0 1 1;
#X connect 4 0 5 0;
#X connect 5 0 2 1;
#X connect 6 0 11 1;
#X connect 7 0 15 0;
#X connect 8 0 19 0;
#X connect 9 0 17 0;
#X connect 10 0 2 0;
#X connect 11 0 21 0;
#X connect 12 0 11 0;
#X connect 13 0 21 1;
#X connect 14 0 18 0;
#X connect 15 0 10 0;
#X connect 16 0 17 0;
#X connect 16 0 18 0;
#X connect 16 0 19 0;
#X connect 17 0 6 0;
#X connect 18 0 13 0;
#X connect 19 0 12 0;
#X connect 20 0 4 0;
#X connect 21 0 7 0;
#X connect 22 0 23 1;
#X connect 23 0 3 0;
#X coords 0 -1 1 1 160 50 1 100 100;
