#N canvas 163 271 450 445 10;
#X obj 66 69 inlet~;
#X obj 102 254 cos~;
#X obj 105 127 hsl 101 12 0 25 0 0 empty empty empty -2 -8 0 10 -262144
-1 -1 10000 1;
#X obj 86 282 *~;
#X obj 102 229 * 0.01;
#X obj 142 254 cos~;
#X obj 142 227 * 0.01;
#X obj 142 200 + 25;
#X obj 126 286 *~;
#X obj 86 339 outlet~;
#X obj 126 371 *~;
#X obj 142 342 osc~;
#X floatatom 144 101 7 0 0 0 - - -;
#X obj 126 398 outlet~;
#X obj 210 129 bng 15 250 50 0 empty empty empty 17 7 0 10 -262144
-1 -1;
#X msg 163 311 0;
#X obj 259 237 hip~;
#X obj 258 207 inlet~;
#X obj 259 327 outlet~;
#X obj 259 267 hip~;
#X obj 259 297 hip~;
#X floatatom 300 187 5 0 0 0 - - -;
#X obj 105 117 hsl 119 12 3 200 1 0 empty empty empty -2 -8 0 10 -262144
-1 -1 11800 1;
#X floatatom 194 101 5 0 0 0 - - -;
#X obj 158 157 *;
#X floatatom 216 171 5 0 0 0 - - -;
#X connect 0 0 3 0;
#X connect 0 0 8 0;
#X connect 1 0 3 1;
#X connect 2 0 4 0;
#X connect 2 0 7 0;
#X connect 3 0 9 0;
#X connect 4 0 1 0;
#X connect 5 0 8 1;
#X connect 6 0 5 0;
#X connect 7 0 6 0;
#X connect 8 0 10 0;
#X connect 10 0 13 0;
#X connect 11 0 10 1;
#X connect 12 0 11 0;
#X connect 14 0 15 0;
#X connect 15 0 11 1;
#X connect 16 0 19 0;
#X connect 17 0 16 0;
#X connect 19 0 20 0;
#X connect 20 0 18 0;
#X connect 21 0 16 1;
#X connect 21 0 19 1;
#X connect 21 0 20 1;
#X connect 22 0 24 0;
#X connect 23 0 24 1;
#X connect 24 0 25 0;
#X coords 0 -1 1 1 130 44 1 100 100;
