#N canvas 582 192 450 607 10;
#X declare -lib mrpeach;
#X obj -8 150 import mrpeach;
#X obj -2 200 udpreceive 1234;
#X obj -2 227 unpackOSC;
#X obj -2 396 s slider1;
#X obj 19 416 s slider2;
#X obj 41 436 s slider3;
#X obj 62 456 s slider4;
#X text 76 223 instala mididings python roteia.py roda esse patch;
#X obj 170 396 s fader1;
#X obj 192 416 s fader2;
#X obj 213 436 s fader3;
#X obj 235 456 s fader4;
#X obj 256 396 s fader5;
#X obj 278 416 s fader6;
#X obj 299 436 s fader7;
#X obj 321 456 s fader8;
#X floatatom 183 102 5 0 0 3 max-fd - -;
#X floatatom 147 102 5 0 0 3 max-sl - -;
#X obj 147 145 / 127;
#X obj -2 305 *;
#X floatatom -2 448 5 0 0 0 - - -;
#X obj 147 53 inlet;
#X obj 183 53 inlet;
#X obj 19 325 *;
#X obj 41 345 *;
#X obj 62 365 *;
#X obj 84 305 *;
#X obj 105 325 *;
#X obj 127 345 *;
#X obj 148 365 *;
#X obj 170 305 *;
#X obj 192 325 *;
#X obj 213 345 *;
#X obj 235 365 *;
#X obj 256 305 *;
#X obj 278 325 *;
#X obj 299 345 *;
#X obj 321 365 *;
#X obj 183 145 / 127;
#X obj -2 254 routeOSC /slider1 /slider2 /slider3 /slider4 /slider5
/slider6 /slider7 /slider8 /fader1 /fader2 /fader3 /fader4 /fader5
/fader6 /fader7 /fader8;
#X floatatom 18 468 5 0 0 0 - - -;
#X floatatom 236 187 5 0 0 0 - - -;
#X obj 84 396 s slider5;
#X obj 105 416 s slider6;
#X obj 127 436 s slider7;
#X obj 148 456 s slider8;
#X floatatom 107 493 5 0 0 0 - - -;
#X floatatom 117 513 5 0 0 0 - - -;
#X floatatom 127 533 5 0 0 0 - - -;
#X floatatom 137 553 5 0 0 0 - - -;
#X connect 1 0 2 0;
#X connect 2 0 39 0;
#X connect 16 0 38 0;
#X connect 17 0 18 0;
#X connect 18 0 19 1;
#X connect 18 0 23 1;
#X connect 18 0 24 1;
#X connect 18 0 25 1;
#X connect 18 0 26 1;
#X connect 18 0 27 1;
#X connect 18 0 28 1;
#X connect 18 0 29 1;
#X connect 19 0 3 0;
#X connect 19 0 20 0;
#X connect 21 0 17 0;
#X connect 22 0 16 0;
#X connect 23 0 4 0;
#X connect 23 0 40 0;
#X connect 24 0 5 0;
#X connect 25 0 6 0;
#X connect 26 0 42 0;
#X connect 26 0 46 0;
#X connect 27 0 43 0;
#X connect 27 0 47 0;
#X connect 28 0 44 0;
#X connect 28 0 48 0;
#X connect 29 0 45 0;
#X connect 29 0 49 0;
#X connect 30 0 8 0;
#X connect 30 0 41 0;
#X connect 31 0 9 0;
#X connect 32 0 10 0;
#X connect 33 0 11 0;
#X connect 34 0 12 0;
#X connect 35 0 13 0;
#X connect 36 0 14 0;
#X connect 37 0 15 0;
#X connect 38 0 30 1;
#X connect 38 0 31 1;
#X connect 38 0 32 1;
#X connect 38 0 33 1;
#X connect 38 0 34 1;
#X connect 38 0 35 1;
#X connect 38 0 36 1;
#X connect 38 0 37 1;
#X connect 39 0 19 0;
#X connect 39 1 23 0;
#X connect 39 2 24 0;
#X connect 39 3 25 0;
#X connect 39 4 26 0;
#X connect 39 5 27 0;
#X connect 39 6 28 0;
#X connect 39 7 29 0;
#X connect 39 8 30 0;
#X connect 39 9 31 0;
#X connect 39 10 32 0;
#X connect 39 11 33 0;
#X connect 39 12 34 0;
#X connect 39 13 35 0;
#X connect 39 14 36 0;
#X connect 39 15 37 0;
#X coords 0 -1 1 1 120 32 1 100 100;
