#N canvas 477 192 784 607 10;
#X declare -lib mrpeach;
#X obj -8 150 import mrpeach;
#X obj -2 200 udpreceive 1234;
#X obj -2 227 unpackOSC;
#X obj -2 486 s slider1;
#X obj 19 506 s slider2;
#X obj 41 526 s slider3;
#X obj 62 546 s slider4;
#X text 76 223 instala mididings python roteia.py roda esse patch;
#X obj 170 486 s fader1;
#X obj 192 506 s fader2;
#X obj 213 526 s fader3;
#X obj 235 546 s fader4;
#X obj 256 486 s fader5;
#X obj 278 506 s fader6;
#X obj 299 526 s fader7;
#X obj 321 546 s fader8;
#X floatatom 183 102 5 0 0 3 max-fd - -;
#X floatatom 147 102 5 0 0 3 max-sl - -;
#X obj 147 145 / 127;
#X floatatom -2 398 5 0 0 0 - - -;
#X obj 147 53 inlet;
#X obj 183 53 inlet;
#X obj 183 145 / 127;
#X obj -2 254 routeOSC /slider1 /slider2 /slider3 /slider4 /slider5
/slider6 /slider7 /slider8 /fader1 /fader2 /fader3 /fader4 /fader5
/fader6 /fader7 /fader8;
#X obj 84 486 s slider5;
#X obj 105 506 s slider6;
#X obj 127 526 s slider7;
#X obj 148 546 s slider8;
#X floatatom 19 418 5 0 0 0 - - -;
#X floatatom 41 438 5 0 0 0 - - -;
#X floatatom 62 458 5 0 0 0 - - -;
#X floatatom 84 398 5 0 0 0 - - -;
#X floatatom 105 418 5 0 0 0 - - -;
#X floatatom 127 438 5 0 0 0 - - -;
#X floatatom 148 458 5 0 0 0 - - -;
#X floatatom 170 398 5 0 0 0 - - -;
#X floatatom 192 418 5 0 0 0 - - -;
#X floatatom 213 438 5 0 0 0 - - -;
#X floatatom 235 458 5 0 0 0 - - -;
#X floatatom 256 398 5 0 0 0 - - -;
#X floatatom 278 418 5 0 0 0 - - -;
#X floatatom 299 438 5 0 0 0 - - -;
#X floatatom 321 458 5 0 0 0 - - -;
#X obj -2 305 * 1;
#X obj 83 176 print;
#X obj -382 227 unpackOSC;
#X floatatom -382 398 5 0 0 0 - - -;
#X floatatom -362 418 5 0 0 0 - - -;
#X floatatom -342 438 5 0 0 0 - - -;
#X floatatom -321 458 5 0 0 0 - - -;
#X floatatom -301 398 5 0 0 0 - - -;
#X floatatom -280 418 5 0 0 0 - - -;
#X floatatom -260 438 5 0 0 0 - - -;
#X floatatom -239 458 5 0 0 0 - - -;
#X floatatom -219 398 5 0 0 0 - - -;
#X floatatom -199 418 5 0 0 0 - - -;
#X floatatom -178 438 5 0 0 0 - - -;
#X floatatom -158 458 5 0 0 0 - - -;
#X floatatom -137 398 5 0 0 0 - - -;
#X floatatom -117 418 5 0 0 0 - - -;
#X floatatom -96 438 5 0 0 0 - - -;
#X floatatom -76 458 5 0 0 0 - - -;
#X obj -382 305 * 1;
#X obj -382 200 udpreceive 1235;
#X obj -382 254 routeOSC /button1 /button2 /button3 /button4 /button5
/button6 /button7 /button8 /button9 /button10 /button11 /button12 /button13
/button14 /button15 /button16;
#X obj -362 325 * 1;
#X obj 41 345 * 1;
#X obj 19 325 * 1;
#X obj 62 365 * 1;
#X obj 84 305 * 1;
#X obj 105 325 * 1;
#X obj 127 345 * 1;
#X obj 148 365 * 1;
#X obj 170 305 * 1;
#X obj 192 325 * 1;
#X obj 213 345 * 1;
#X obj 235 365 * 1;
#X obj 256 305 * 1;
#X obj 278 325 * 1;
#X obj 299 345 * 1;
#X obj 321 365 * 1;
#X obj -342 345 * 1;
#X obj -321 365 * 1;
#X obj -301 305 * 1;
#X obj -280 325 * 1;
#X obj -260 345 * 1;
#X obj -239 365 * 1;
#X obj -219 305 * 1;
#X obj -199 325 * 1;
#X obj -178 345 * 1;
#X obj -158 365 * 1;
#X obj -137 305 * 1;
#X obj -117 325 * 1;
#X obj -96 345 * 1;
#X obj -76 365 * 1;
#X obj -382 486 s button1;
#X obj -362 506 s button2;
#X obj -342 526 s button3;
#X obj -321 546 s button4;
#X obj -301 486 s button5;
#X obj -280 506 s button6;
#X obj -260 526 s button7;
#X obj -239 546 s button8;
#X obj -219 486 s button9;
#X obj -199 506 s button10;
#X obj -178 526 s button11;
#X obj -158 546 s button12;
#X obj -137 486 s button13;
#X obj -117 506 s button14;
#X obj -96 526 s button15;
#X obj -76 546 s button16;
#X connect 1 0 2 0;
#X connect 2 0 23 0;
#X connect 16 0 22 0;
#X connect 17 0 18 0;
#X connect 18 0 43 1;
#X connect 18 0 66 1;
#X connect 18 0 67 1;
#X connect 18 0 68 1;
#X connect 18 0 69 1;
#X connect 18 0 70 1;
#X connect 18 0 71 1;
#X connect 18 0 72 1;
#X connect 19 0 3 0;
#X connect 20 0 17 0;
#X connect 21 0 16 0;
#X connect 22 0 73 1;
#X connect 22 0 74 1;
#X connect 22 0 75 1;
#X connect 22 0 76 1;
#X connect 22 0 77 1;
#X connect 22 0 78 1;
#X connect 22 0 79 1;
#X connect 22 0 80 1;
#X connect 23 0 43 0;
#X connect 23 1 67 0;
#X connect 23 2 66 0;
#X connect 23 3 68 0;
#X connect 23 4 69 0;
#X connect 23 5 70 0;
#X connect 23 6 71 0;
#X connect 23 7 72 0;
#X connect 23 8 73 0;
#X connect 23 9 74 0;
#X connect 23 10 75 0;
#X connect 23 11 76 0;
#X connect 23 12 77 0;
#X connect 23 13 78 0;
#X connect 23 14 79 0;
#X connect 23 15 80 0;
#X connect 28 0 4 0;
#X connect 29 0 5 0;
#X connect 30 0 6 0;
#X connect 31 0 24 0;
#X connect 32 0 25 0;
#X connect 33 0 26 0;
#X connect 34 0 27 0;
#X connect 35 0 8 0;
#X connect 36 0 9 0;
#X connect 37 0 10 0;
#X connect 38 0 11 0;
#X connect 39 0 12 0;
#X connect 40 0 13 0;
#X connect 41 0 14 0;
#X connect 42 0 15 0;
#X connect 43 0 19 0;
#X connect 45 0 64 0;
#X connect 46 0 95 0;
#X connect 47 0 96 0;
#X connect 48 0 97 0;
#X connect 49 0 98 0;
#X connect 50 0 99 0;
#X connect 51 0 100 0;
#X connect 52 0 101 0;
#X connect 53 0 102 0;
#X connect 54 0 103 0;
#X connect 55 0 104 0;
#X connect 56 0 105 0;
#X connect 57 0 106 0;
#X connect 58 0 107 0;
#X connect 59 0 108 0;
#X connect 60 0 109 0;
#X connect 61 0 110 0;
#X connect 62 0 46 0;
#X connect 63 0 45 0;
#X connect 64 0 62 0;
#X connect 64 1 65 0;
#X connect 64 2 81 0;
#X connect 64 3 82 0;
#X connect 64 4 83 0;
#X connect 64 5 84 0;
#X connect 64 6 85 0;
#X connect 64 7 86 0;
#X connect 64 8 87 0;
#X connect 64 9 88 0;
#X connect 64 10 89 0;
#X connect 64 11 90 0;
#X connect 64 12 91 0;
#X connect 64 13 92 0;
#X connect 64 14 93 0;
#X connect 64 15 94 0;
#X connect 65 0 47 0;
#X connect 66 0 29 0;
#X connect 67 0 28 0;
#X connect 68 0 30 0;
#X connect 69 0 31 0;
#X connect 70 0 32 0;
#X connect 71 0 33 0;
#X connect 72 0 34 0;
#X connect 73 0 35 0;
#X connect 74 0 36 0;
#X connect 75 0 37 0;
#X connect 76 0 38 0;
#X connect 77 0 39 0;
#X connect 78 0 40 0;
#X connect 79 0 41 0;
#X connect 80 0 42 0;
#X connect 81 0 48 0;
#X connect 82 0 49 0;
#X connect 83 0 50 0;
#X connect 84 0 51 0;
#X connect 85 0 52 0;
#X connect 86 0 53 0;
#X connect 87 0 54 0;
#X connect 88 0 55 0;
#X connect 89 0 56 0;
#X connect 90 0 57 0;
#X connect 91 0 58 0;
#X connect 92 0 59 0;
#X connect 93 0 60 0;
#X connect 94 0 61 0;
#X coords 0 -1 1 1 120 32 1 100 100;
