#N canvas 505 239 652 457 10;
#X obj 69 186 * 44 \, 1;
#X obj 71 23 tgl 15 0 empty empty empty 17 7 0 10 -262144 -1 -1 0 1
;
#X obj 71 51 sel 1 0;
#X msg 69 157 30000;
#X obj 149 166 metro 100;
#X obj 149 144 tgl 15 0 empty empty empty 17 7 0 10 -262144 -1 -1 0
1;
#X obj 213 220 +;
#X msg 149 188 100;
#X floatatom 213 245 5 0 0 0 - - -;
#X obj 179 275 f;
#X obj 71 96 t b b b b;
#X msg 220 188 100;
#X obj 148 96 t b b b b;
#N canvas 525 355 686 300 area 1;
#X obj 557 103 inlet;
#X obj 388 106 inlet;
#X obj 288 137 inlet~;
#X obj 288 225 *~;
#X obj 388 128 t b b b;
#X msg 303 182 1 50;
#X msg 338 183 0;
#X obj 303 205 line~;
#X obj 461 101 inlet;
#X obj 460 131 t b b b;
#X msg 460 186 stop;
#X obj 460 159 del 52;
#X msg 368 183 0 50;
#X msg 407 164 bang;
#X obj 255 155 osc~ 100;
#X msg 557 159 \; array-1 resize \$1;
#X obj 407 259 tabwrite~ array-1;
#N canvas 0 0 450 300 (subpatch) 0;
#X array array-1 100 float 3;
#A 0 0 0 0 0 0 0 0 0 0 0 0 0 0 0 0 0 0 0 0 0 0 0 0 0 0 0 0 0 0 0 0
0 0 0 0 0 0 0 0 0 0 0 0 0 0 0 0 0 0 0 0 0 0 0 0 0 0 0 0 0 0 0 0 0 0
0 0 0 0 0 0 0 0 0 0 0 0 0 0 0 0 0 0 0 0 0 0 0 0 0 0 0 0 0 0 0 0 0 0
0;
#X coords 0 1 99 -1 200 140 1;
#X restore 26 -2 graph;
#X connect 0 0 15 0;
#X connect 1 0 4 0;
#X connect 2 0 3 0;
#X connect 3 0 16 0;
#X connect 4 0 5 0;
#X connect 4 1 13 0;
#X connect 4 2 6 0;
#X connect 5 0 7 0;
#X connect 6 0 7 0;
#X connect 7 0 3 1;
#X connect 8 0 9 0;
#X connect 9 0 11 0;
#X connect 9 2 12 0;
#X connect 10 0 16 0;
#X connect 11 0 10 0;
#X connect 12 0 7 0;
#X connect 13 0 16 0;
#X connect 14 0 3 0;
#X restore 30 286 pd area;
#X obj 29 -10 inlet~;
#X connect 0 0 13 3;
#X connect 1 0 2 0;
#X connect 2 0 10 0;
#X connect 2 1 12 0;
#X connect 3 0 0 0;
#X connect 4 0 7 0;
#X connect 5 0 4 0;
#X connect 6 0 8 0;
#X connect 7 0 6 0;
#X connect 8 0 6 1;
#X connect 8 0 9 1;
#X connect 9 0 0 0;
#X connect 10 0 13 1;
#X connect 10 1 5 0;
#X connect 10 2 3 0;
#X connect 10 3 11 0;
#X connect 11 0 6 1;
#X connect 12 2 5 0;
#X connect 12 3 13 2;
#X connect 14 0 13 0;
