#N canvas 706 104 450 433 10;
#X obj 186 229 timer;
#X obj 164 101 tgl 15 0 empty empty empty 17 7 0 10 -262144 -1 -1 0
1;
#X obj 144 284 t b b;
#X obj 164 155 sel 1 0;
#X floatatom 186 256 10 0 0 0 - - -;
#X obj 64 259 gate1~;
#X obj 64 212 inlet~;
#X msg 117 212 1;
#X msg 183 184 0;
#X obj 117 185 t b b b;
#X obj 104 339 outlet;
#X obj 64 286 outlet~;
#X msg 104 312 start;
#X msg 144 312 stop;
#X obj 186 339 outlet;
#X obj 186 284 i;
#X obj 186 312 + 1;
#X obj 164 74 inlet;
#X connect 0 0 4 0;
#X connect 1 0 3 0;
#X connect 2 0 13 0;
#X connect 2 1 0 1;
#X connect 3 0 9 0;
#X connect 3 1 8 0;
#X connect 4 0 15 0;
#X connect 5 0 11 0;
#X connect 5 1 2 0;
#X connect 6 0 5 0;
#X connect 7 0 5 1;
#X connect 8 0 5 1;
#X connect 9 0 7 0;
#X connect 9 1 0 0;
#X connect 9 2 12 0;
#X connect 12 0 10 0;
#X connect 13 0 10 0;
#X connect 15 0 16 0;
#X connect 16 0 14 0;
#X connect 17 0 1 0;
#X coords 0 -1 1 1 80 17 1 100 100;
