#N canvas 5 49 795 300 10;
#X floatatom 438 66 9 0 0 0 - - -;
#X floatatom 438 13 5 0 0 0 - - -;
#X obj 438 39 / 44.1;
#X obj 132 72 inlet;
#X obj 162 45 inlet;
#X obj 192 72 inlet;
#X obj 222 45 inlet;
#X obj 102 207 outlet~;
#X obj 132 123 bng 15 250 50 0 empty empty empty 0 -6 0 10 -262144
-1 -1;
#X obj 162 123 bng 15 250 50 0 empty empty empty 0 -6 0 10 -262144
-1 -1;
#X obj 192 123 bng 15 250 50 0 empty empty empty 0 -6 0 10 -262144
-1 -1;
#X obj 222 123 bng 15 250 50 0 empty empty empty 0 -6 0 10 -262144
-1 -1;
#X obj 102 45 inlet;
#X obj 102 123 bng 15 250 50 0 empty empty empty 0 -6 0 10 -262144
-1 -1;
#X msg 510 54 \; crossfade read ./crossfade.txt \; bumbo-li read ./bumbo-li.txt
\; bumbo read ./bumbo.txt \; clap read ./clap.txt \; chipof read ./chipof.txt
\; chipoa read ./chipoa.txt \;;
#X obj 510 29 bng 15 250 50 0 empty empty load_quando_necessário 0
-6 0 10 -262144 -1 -1;
#X obj 252 75 inlet;
#X obj 252 123 bng 15 250 50 0 empty empty empty 0 -6 0 10 -262144
-1 -1;
#X obj 282 45 inlet;
#X obj 282 123 bng 15 250 50 0 empty empty empty 0 -6 0 10 -262144
-1 -1;
#X obj 312 75 inlet;
#X obj 312 123 bng 15 250 50 0 empty empty empty 0 -6 0 10 -262144
-1 -1;
#X msg 429 161 carregar o abstract sex-samples-samples;
#N canvas 248 49 997 474 kit-de-samples-sex-com-disparos 1;
#X obj 292 261 line~;
#X obj 83 77 line~;
#X obj 409 173 line~;
#X obj 47 211 line~;
#X obj 83 23 inlet;
#X obj 292 207 inlet;
#X obj 409 119 inlet;
#X obj 47 157 inlet;
#X obj 408 435 outlet~;
#X obj 198 113 line~;
#X obj 198 59 inlet;
#X msg 240 59 351;
#X msg 125 23 229;
#X obj 597 176 line~;
#X obj 597 122 inlet;
#X msg 639 122 229;
#X obj 654 310 line~;
#X obj 654 256 inlet;
#X msg 696 256 229;
#X floatatom 366 65 9 0 0 0 - - -;
#X floatatom 366 12 5 0 0 0 - - -;
#X obj 366 38 / 44.1;
#X obj 454 294 line~;
#X obj 454 240 inlet;
#X obj 198 140 tabread4~ sex-1;
#X obj 293 287 tabread4~ sex-2;
#X obj 47 238 tabread4~ sex-3;
#X obj 83 104 tabread4~ sex-4;
#X obj 409 200 tabread4~ sex-5;
#X obj 454 321 tabread4~ sex-6;
#X obj 597 203 tabread4~ sex-7;
#X obj 654 337 tabread4~ sex-8;
#X msg 198 87 0 \, 171586 3891;
#X msg 292 234 0 \, 207788 4712;
#X msg 47 184 0 \, 550913 12492;
#X msg 83 50 0 \, 162992 3696;
#X msg 409 146 0 \, 47735 1083;
#X msg 454 267 0 \, 39046 885;
#X msg 597 149 0 \, 37770 856;
#X msg 654 283 0 \, 51958 1178;
#X obj 83 131 *~ 0.8;
#X obj 47 265 *~ 0.8;
#X obj 218 167 *~ 0.3;
#X obj 293 315 *~ 0.4;
#X obj 409 237 *~ 0.6;
#X obj 454 348 *~ 0.5;
#X obj 598 230 *~ 0.45;
#X obj 654 364 *~ 0.6;
#X connect 0 0 25 0;
#X connect 1 0 27 0;
#X connect 2 0 28 0;
#X connect 3 0 26 0;
#X connect 4 0 35 0;
#X connect 5 0 33 0;
#X connect 6 0 36 0;
#X connect 7 0 34 0;
#X connect 9 0 24 0;
#X connect 10 0 32 0;
#X connect 13 0 30 0;
#X connect 14 0 38 0;
#X connect 16 0 31 0;
#X connect 17 0 39 0;
#X connect 20 0 21 0;
#X connect 21 0 19 0;
#X connect 22 0 29 0;
#X connect 23 0 37 0;
#X connect 24 0 42 0;
#X connect 25 0 43 0;
#X connect 26 0 41 0;
#X connect 27 0 40 0;
#X connect 28 0 44 0;
#X connect 29 0 45 0;
#X connect 30 0 46 0;
#X connect 31 0 47 0;
#X connect 32 0 9 0;
#X connect 33 0 0 0;
#X connect 34 0 3 0;
#X connect 35 0 1 0;
#X connect 36 0 2 0;
#X connect 37 0 22 0;
#X connect 38 0 13 0;
#X connect 39 0 16 0;
#X connect 40 0 8 0;
#X connect 41 0 8 0;
#X connect 42 0 8 0;
#X connect 43 0 8 0;
#X connect 44 0 8 0;
#X connect 45 0 8 0;
#X connect 46 0 8 0;
#X connect 47 0 8 0;
#X restore 102 180 pd kit-de-samples-sex-com-disparos;
#X connect 1 0 2 0;
#X connect 2 0 0 0;
#X connect 3 0 8 0;
#X connect 4 0 9 0;
#X connect 5 0 10 0;
#X connect 6 0 11 0;
#X connect 8 0 23 1;
#X connect 9 0 23 2;
#X connect 10 0 23 3;
#X connect 11 0 23 4;
#X connect 12 0 13 0;
#X connect 13 0 23 0;
#X connect 16 0 17 0;
#X connect 17 0 23 5;
#X connect 18 0 19 0;
#X connect 19 0 23 6;
#X connect 20 0 21 0;
#X connect 21 0 23 7;
#X connect 23 0 7 0;
#X coords 0 -1 1 1 240 40 1 100 100;
