#N canvas 530 89 715 454 10;
#X floatatom 203 133 5 0 0 2 time - -;
#X obj 123 349 cos~;
#X obj 184 356 cos~;
#X obj 428 234 snapshot~;
#X obj 428 206 metro;
#X obj 428 182 tgl 15 0 empty lb empty 0 -6 0 10 -262144 -1 -1 0 1
;
#X obj 361 236 snapshot~;
#X floatatom 424 295 20 0 0 0 - - -;
#X floatatom 491 320 10 0 0 0 - - -;
#X obj 443 376 +;
#X floatatom 434 415 20 0 0 0 - - -;
#X obj 123 299 line~;
#X obj 102 68 inlet;
#X obj 108 383 *~;
#X obj 169 383 *~;
#X obj 47 330 inlet~;
#X obj 107 415 outlet~;
#X obj 169 415 outlet~;
#X floatatom 163 133 5 0 100 2 fim - -;
#X obj 146 68 inlet;
#X obj 163 158 * 0.0025;
#X obj 183 325 +~ 0.75;
#X obj 186 68 inlet;
#X obj 226 68 inlet;
#X msg 123 270 \$1 \, \$2 \$3;
#X obj 123 243 pack f f f;
#X floatatom 123 133 5 0 100 2 inicio - -;
#X obj 123 178 * 0.0025;
#X obj 102 133 bng 15 250 50 0 empty empty empty 17 7 0 10 -262144
-1 -1;
#X obj 108 207 f;
#X obj 96 155 t b f;
#X connect 0 0 25 2;
#X connect 1 0 6 0;
#X connect 1 0 13 1;
#X connect 2 0 3 0;
#X connect 2 0 14 1;
#X connect 3 0 8 0;
#X connect 4 0 3 0;
#X connect 4 0 6 0;
#X connect 5 0 4 0;
#X connect 6 0 7 0;
#X connect 7 0 9 0;
#X connect 8 0 9 1;
#X connect 9 0 10 0;
#X connect 11 0 1 0;
#X connect 11 0 21 0;
#X connect 12 0 28 0;
#X connect 13 0 16 0;
#X connect 14 0 17 0;
#X connect 15 0 14 0;
#X connect 15 0 13 0;
#X connect 18 0 20 0;
#X connect 19 0 26 0;
#X connect 20 0 25 1;
#X connect 21 0 2 0;
#X connect 22 0 18 0;
#X connect 23 0 0 0;
#X connect 24 0 11 0;
#X connect 25 0 24 0;
#X connect 26 0 30 0;
#X connect 27 0 29 1;
#X connect 29 0 25 0;
#X connect 30 0 29 0;
#X connect 30 1 27 0;
#X coords 0 -1 1 1 140 50 1 100 100;
