#N canvas 241 302 450 300 10;
#X obj 191 142 f \$1;
#X obj 242 142 f \$2;
#X obj 204 101 bng 15 250 50 0 empty empty empty 17 7 0 10 -262144
-1 -1;
#X floatatom 187 174 5 0 0 0 - - -;
#X floatatom 240 173 5 0 0 0 - - -;
#X obj 193 211 outlet;
#X obj 233 211 outlet;
#X connect 0 0 3 0;
#X connect 1 0 4 0;
#X connect 2 0 0 0;
#X connect 2 0 1 0;
#X connect 3 0 5 0;
#X connect 4 0 6 0;
#X coords 0 -1 1 1 120 17 1 100 100;
