#N canvas 609 163 442 636 10;
#X floatatom 137 134 5 0 100 2 vol - -;
#X floatatom 172 134 5 0 100 2 space - -;
#X floatatom 102 134 5 0 0 2 n.som - -;
#X symbolatom 122 152 34 0 0 0 - - -;
#X obj 98 384 unpack s f f s;
#X obj 98 325 f;
#X obj 140 258 unpack s f f s;
#X obj 113 200 t f f;
#X obj 69 544 space1~ 50;
#X obj 277 135 tgl 15 0 empty empty spc-aleat 0 -10 0 10 -262144 -1
-1 1 1;
#X obj 71 210 t f f;
#X obj 207 19 inlet velocidade y;
#X obj 137 0 inlet volume size;
#X obj 18 53 inlet on-off;
#X obj 102 70 inlet som;
#X obj 69 604 outlet~;
#X obj 124 604 outlet~;
#X obj 236 604 outlet~;
#X obj 172 49 inlet space x;
#X msg 159 460 set \$1;
#X obj 159 487 tabread4~ \$3;
#X symbolatom 203 460 10 0 0 0 - - -;
#X obj 322 354 /;
#X obj 322 300 t b f;
#X msg 322 327 1;
#X obj 337 226 * 1000;
#X obj 322 253 /;
#X floatatom 322 274 5 0 0 0 - - -;
#X floatatom 322 378 5 0 0 0 - - -;
#X obj 276 427 phasor~;
#X obj 276 459 *~;
#X obj 125 415 t f f;
#X obj 98 232 sel 1;
#X msg 361 323 0;
#X obj 98 259 t b b;
#X obj 77 261 bng 15 250 50 0 empty empty empty 17 7 0 10 -262144 -1
-1;
#X floatatom 94 446 5 0 0 0 - - -;
#X obj 159 512 gatte~ 50;
#X obj 276 403 *~;
#X obj 275 366 line~;
#X obj 140 226 coll \$1;
#C restore;
#X obj 98 352 coll \$1;
#C restore;
#X obj 102 153 tgl 15 0 empty empty empty 17 7 0 10 -262144 -1 -1 0
1;
#X obj 49 175 sel 0;
#X msg 50 146 0;
#X floatatom 207 134 10 0 0 2 vel - -;
#X msg 275 341 \$1 100;
#X obj 267 49 inlet space-aleatorio;
#X connect 0 0 37 1;
#X connect 0 0 43 0;
#X connect 1 0 8 2;
#X connect 2 0 7 0;
#X connect 4 1 31 0;
#X connect 4 3 19 0;
#X connect 4 3 21 0;
#X connect 5 0 41 0;
#X connect 6 0 3 0;
#X connect 6 2 25 0;
#X connect 7 0 5 1;
#X connect 7 1 40 0;
#X connect 8 0 15 0;
#X connect 8 1 16 0;
#X connect 9 0 8 1;
#X connect 10 0 37 2;
#X connect 10 1 32 0;
#X connect 11 0 45 0;
#X connect 12 0 0 0;
#X connect 13 0 42 0;
#X connect 14 0 2 0;
#X connect 18 0 1 0;
#X connect 19 0 20 0;
#X connect 20 0 37 0;
#X connect 22 0 28 0;
#X connect 23 0 24 0;
#X connect 23 1 22 1;
#X connect 24 0 22 0;
#X connect 25 0 26 1;
#X connect 26 0 27 0;
#X connect 27 0 23 0;
#X connect 28 0 38 1;
#X connect 29 0 30 0;
#X connect 30 0 20 0;
#X connect 31 0 30 1;
#X connect 31 0 36 0;
#X connect 31 1 26 0;
#X connect 32 0 34 0;
#X connect 32 0 35 0;
#X connect 33 0 29 1;
#X connect 34 0 5 0;
#X connect 34 1 33 0;
#X connect 37 0 8 0;
#X connect 37 0 17 0;
#X connect 38 0 29 0;
#X connect 39 0 38 0;
#X connect 40 0 6 0;
#X connect 41 0 4 0;
#X connect 42 0 10 0;
#X connect 43 0 44 0;
#X connect 44 0 42 0;
#X connect 45 0 46 0;
#X connect 46 0 39 0;
#X connect 47 0 9 0;
#X coords 0 -1 1 1 230 70 1 100 100;
