#N canvas 616 131 610 668 10;
#X floatatom 135 132 5 0 0 3 n.som nsom-#0 -;
#X obj 143 377 line~;
#X obj 116 270 unpack s f f s;
#X msg 197 377 set \$1;
#X floatatom 237 132 5 0 0 3 dura dura-samp-#0 -;
#X floatatom -7 329 5 0 0 2 - - -;
#X floatatom 16 451 15 0 0 0 - - -;
#X obj 16 523 / 500;
#X floatatom 16 553 10 0 0 0 - - -;
#X obj 20 429 / 96;
#X obj -7 376 unpack s f f s;
#X obj 116 221 f;
#X floatatom 169 132 5 0 100 3 vol vol-#0 -;
#X obj 135 199 t f f;
#X floatatom 271 132 7 0 0 3 dur-orig - -;
#X obj 317 133 tgl 15 0 empty empty empty 17 7 0 10 -262144 -1 -1 0
1;
#X symbolatom 102 115 43 0 0 0 - - -;
#X obj 71 17 inlet;
#X obj 116 132 bng 15 250 50 0 empty empty empty 17 7 0 10 -262144
-1 -1;
#X obj 142 632 outlet~;
#X obj 236 632 outlet~;
#X floatatom 334 132 5 0 100 3 out1 out1-#0 -;
#X obj -139 8 inlet;
#X obj 369 133 tgl 15 0 empty inve-0 inv 0 24 0 10 -262144 -1 -1 0
1;
#X obj 143 327 pack f f f;
#X msg 143 355 \$1 \, \$2 \$3;
#X obj 101 132 bng 15 250 50 0 empty empty empty 17 7 0 10 -262144
-1 -1;
#N canvas 0 0 450 300 inversor-\$0 0;
#X obj 158 105 + 1;
#X obj 158 138 gate 2;
#X obj 158 185 t b b;
#X msg 158 215 0;
#X obj 208 185 t b b;
#X msg 235 215 0;
#X obj 150 66 inlet;
#X obj 158 279 outlet;
#X obj 235 279 outlet;
#X obj 191 66 inlet;
#X obj 172 254 f;
#X obj 202 254 f;
#X obj 191 103 t b f f;
#X connect 0 0 1 0;
#X connect 1 0 2 0;
#X connect 1 1 4 0;
#X connect 2 0 3 0;
#X connect 2 1 11 0;
#X connect 3 0 7 0;
#X connect 4 0 10 0;
#X connect 4 1 5 0;
#X connect 5 0 8 0;
#X connect 6 0 0 0;
#X connect 9 0 12 0;
#X connect 10 0 7 0;
#X connect 11 0 8 0;
#X connect 12 0 1 1;
#X connect 12 1 10 1;
#X connect 12 2 11 1;
#X restore 143 300 pd inversor-\$0;
#X obj -37 196 s nsom-\$0;
#X obj 343 77 r inv-\$0;
#X obj -51 174 s dura-space-\$0;
#X obj 235 518 r dura-space-\$0;
#X obj -95 108 s out1-\$0;
#X obj -81 130 s out1-dura-\$0;
#X obj 265 473 r out1-dura-\$0;
#X obj -110 86 s vol-dura-\$0;
#X obj -125 64 s vol-\$0;
#X obj -22 218 s dura-samp-\$0;
#X obj 317 340 * \$2;
#X floatatom 41 403 5 0 0 0 - - -;
#X obj 43 470 r bema;
#X floatatom 43 497 5 0 0 0 - - -;
#X obj 8 260 s inv-\$0;
#X obj 317 274 sel 0;
#X obj 317 309 f;
#X obj 101 73 sel 1 0;
#X obj 393 17 inlet;
#X obj 348 308 r bema-\$0;
#X obj 393 47 s bema-\$0;
#X obj 8 8 r bema-\$0;
#N canvas 782 89 492 477 desempacotamentacao-\$0 0;
#X obj 102 75 sel 0;
#X msg 102 100 50;
#X obj 136 225 sel 0;
#X msg 136 250 50;
#X obj 169 355 sel 0;
#X msg 169 380 50;
#X obj 70 251 outlet;
#X obj 119 150 outlet out1;
#X obj 136 280 outlet out1-dura;
#X obj 169 410 outlet dura-space;
#X obj 185 50 outlet nsom;
#X obj 86 18 outlet vol;
#X obj 102 122 outlet vol-dura;
#X obj 70 -37 inlet;
#X obj 202 76 outlet dura-samp;
#X obj 152 18 outlet space-fim;
#X obj 235 117 outlet inv;
#X obj 218 96 outlet original;
#X obj 136 198 * \$2;
#X obj 169 328 * \$2;
#X floatatom 156 304 5 0 0 0 - - -;
#X obj 157 173 inlet;
#X obj 102 48 * \$2;
#X obj 70 -5 unpack f f f f f f f f f f f;
#X connect 0 0 1 0;
#X connect 0 1 12 0;
#X connect 1 0 12 0;
#X connect 2 0 3 0;
#X connect 2 1 8 0;
#X connect 2 1 20 0;
#X connect 3 0 8 0;
#X connect 3 0 20 0;
#X connect 4 0 5 0;
#X connect 4 1 9 0;
#X connect 5 0 9 0;
#X connect 13 0 23 0;
#X connect 18 0 2 0;
#X connect 19 0 4 0;
#X connect 21 0 18 1;
#X connect 21 0 19 1;
#X connect 21 0 22 1;
#X connect 22 0 0 0;
#X connect 23 0 6 0;
#X connect 23 1 11 0;
#X connect 23 2 22 0;
#X connect 23 3 7 0;
#X connect 23 4 18 0;
#X connect 23 5 15 0;
#X connect 23 6 19 0;
#X connect 23 7 10 0;
#X connect 23 8 14 0;
#X connect 23 9 17 0;
#X connect 23 10 16 0;
#X restore -139 37 pd desempacotamentacao-\$0;
#X obj 116 248 coll \$1;
#C restore;
#X obj -7 354 coll \$1;
#C restore;
#X obj 142 399 tabread4~ \$3;
#X obj 225 447 r vol-dura-\$0;
#X obj 142 474 gatt~ 50;
#X obj 182 497 gatt~ 50;
#X obj 155 16 inlet;
#X obj -7 240 s original-\$0;
#X obj 219 50 r original-\$0;
#X obj 141 602 hip~ 10;
#X obj 236 602 hip~ 10;
#X obj 305 632 outlet~;
#X obj 304 602 hip~ 10;
#X obj 142 542 space1~ 100;
#X floatatom 203 132 5 0 100 3 space space-fim-#0 -;
#X obj -66 152 s space-fim-\$0;
#X obj 195 16 inlet;
#X obj 362 204 f;
#X floatatom 367 272 5 0 0 0 - - -;
#X obj 317 247 switch 2;
#X obj 317 173 + 1;
#X obj 237 196 f;
#X obj 235 16 inlet;
#X obj 115 16 inlet;
#X obj 275 16 inlet;
#X obj 315 16 inlet;
#X msg 103 329 0;
#X obj 142 437 gate~ 50;
#X msg 73 329 1;
#X obj 355 16 inlet;
#X obj 101 173 t b b b b b b b b b;
#X connect 0 0 13 0;
#X connect 1 0 53 0;
#X connect 2 1 27 1;
#X connect 2 3 3 0;
#X connect 3 0 53 0;
#X connect 4 0 72 0;
#X connect 5 0 52 0;
#X connect 6 0 7 0;
#X connect 7 0 8 0;
#X connect 8 0 14 0;
#X connect 9 0 6 0;
#X connect 10 0 16 0;
#X connect 10 1 9 0;
#X connect 10 2 39 0;
#X connect 11 0 51 0;
#X connect 12 0 55 1;
#X connect 13 0 11 1;
#X connect 13 1 5 0;
#X connect 14 0 68 0;
#X connect 15 0 71 0;
#X connect 17 0 45 0;
#X connect 18 0 77 0;
#X connect 21 0 56 1;
#X connect 22 0 50 0;
#X connect 23 0 27 0;
#X connect 24 0 25 0;
#X connect 25 0 1 0;
#X connect 26 0 81 0;
#X connect 27 0 24 0;
#X connect 27 1 24 1;
#X connect 29 0 23 0;
#X connect 31 0 64 3;
#X connect 34 0 56 2;
#X connect 38 0 24 2;
#X connect 39 0 9 1;
#X connect 40 0 41 0;
#X connect 41 0 7 1;
#X connect 43 0 44 0;
#X connect 43 1 44 0;
#X connect 44 0 38 0;
#X connect 45 0 26 0;
#X connect 45 1 18 0;
#X connect 46 0 48 0;
#X connect 47 0 38 1;
#X connect 49 0 50 1;
#X connect 50 0 45 0;
#X connect 50 1 36 0;
#X connect 50 2 35 0;
#X connect 50 3 32 0;
#X connect 50 4 33 0;
#X connect 50 5 66 0;
#X connect 50 6 30 0;
#X connect 50 7 28 0;
#X connect 50 8 37 0;
#X connect 50 9 58 0;
#X connect 50 10 42 0;
#X connect 51 0 2 0;
#X connect 52 0 10 0;
#X connect 53 0 78 0;
#X connect 54 0 55 2;
#X connect 55 0 56 0;
#X connect 55 0 64 0;
#X connect 56 0 63 0;
#X connect 57 0 36 0;
#X connect 59 0 15 0;
#X connect 60 0 19 0;
#X connect 61 0 20 0;
#X connect 63 0 62 0;
#X connect 64 0 60 0;
#X connect 64 1 61 0;
#X connect 65 0 64 2;
#X connect 67 0 66 0;
#X connect 68 0 70 2;
#X connect 70 0 43 0;
#X connect 70 0 69 0;
#X connect 71 0 70 0;
#X connect 72 0 70 1;
#X connect 73 0 37 0;
#X connect 74 0 28 0;
#X connect 75 0 58 0;
#X connect 76 0 42 0;
#X connect 77 0 78 1;
#X connect 78 0 55 0;
#X connect 79 0 78 1;
#X connect 80 0 32 0;
#X connect 81 0 79 0;
#X connect 81 1 11 0;
#X connect 81 2 68 0;
#X connect 81 3 72 0;
#X connect 81 4 23 0;
#X connect 81 5 23 0;
#X connect 81 7 15 0;
#X connect 81 8 15 0;
#X coords 0 -1 1 1 300 62 1 100 100;
