#N canvas 819 147 442 636 10;
#X floatatom 136 143 5 0 100 2 vol - -;
#X floatatom 102 143 5 0 0 2 n.som - -;
#X symbolatom 253 143 24 0 0 0 - - -;
#X obj 98 335 f;
#X obj 113 210 t f f;
#X obj 48 3 inlet on-off;
#X obj 102 80 inlet som;
#X obj 159 549 outlet~;
#X msg 159 470 set \$1;
#X obj 159 497 tabread4~ \$3;
#X symbolatom 203 470 10 0 0 0 - - -;
#X obj 276 384 /;
#X obj 276 330 t b f;
#X obj 47 319 * 1000;
#X obj 32 346 /;
#X floatatom 32 367 5 0 0 0 - - -;
#X floatatom 276 408 5 0 0 0 - - -;
#X obj 276 437 phasor~;
#X obj 276 469 *~;
#X obj 98 262 sel 1;
#X msg 247 408 0;
#X obj 77 291 bng 15 250 50 0 empty empty empty 17 7 0 10 -262144 -1
-1;
#X floatatom 94 456 5 0 0 0 - - -;
#X obj 140 236 coll \$1;
#C restore;
#X obj 98 362 coll \$1;
#C restore;
#X obj 102 163 tgl 15 0 empty empty empty 17 7 0 10 -262144 -1 -1 0
1;
#X obj 195 73 sel 0;
#X msg 196 44 0;
#X floatatom 170 143 5 0 0 2 beats - -;
#X symbolatom 120 163 43 0 0 0 - - -;
#X obj 140 268 unpack s f f s f s;
#X obj 137 10 inlet volume;
#X obj 38 170 t b b;
#X obj 59 83 r beat;
#X obj 38 144 gate;
#X obj 74 110 bng 15 250 50 0 empty empty empty 17 7 0 10 -262144 -1
-1;
#X obj 291 262 r dt;
#X obj 98 394 unpack s f f s f s;
#X msg 276 357 1000;
#X obj 48 24 t b;
#X obj 38 124 tgl 15 0 empty empty empty 17 7 0 10 -262144 -1 -1 0
1;
#X obj 71 240 t f f b;
#X obj 71 213 f;
#X obj 345 33 r beat;
#X obj 318 74 gate;
#X obj 363 102 bng 15 250 50 0 empty empty empty 17 7 0 10 -262144
-1 -1;
#X floatatom 276 309 5 0 0 0 - - -;
#X obj 276 289 *;
#X obj 159 522 gatte~ 5;
#X floatatom 331 101 5 0 0 0 - - -;
#X obj 211 195 counter 1 16;
#X obj 86 187 t f b f b;
#X obj 98 289 t b b b;
#X obj 383 164 bng 15 250 50 0 empty empty empty 17 7 0 10 -262144
-1 -1;
#X obj 307 10 inlet reset;
#X msg 479 188 readagain;
#X msg 342 192 readagain;
#X floatatom 204 143 4 1 10000 2 start - -;
#X obj 359 265 /;
#X obj 252 233 t f f f;
#X floatatom 359 301 10 0 0 0 - - -;
#X obj 334 326 *;
#X obj 119 425 t f f f f;
#X obj 334 355 /;
#X obj 231 144 bng 15 250 50 0 empty empty empty 17 7 0 10 -262144
-1 -1;
#X obj 334 296 f;
#X floatatom 334 380 5 0 0 0 - - -;
#X obj 315 409 f 0;
#X obj 346 52 bng 15 250 50 0 empty empty empty 17 7 0 10 -262144 -1
-1;
#X obj 334 235 - 1;
#X obj 176 202 f 1;
#X obj 241 35 loadbang;
#X msg 241 65 1;
#X connect 0 0 26 0;
#X connect 0 0 48 1;
#X connect 1 0 4 0;
#X connect 3 0 24 0;
#X connect 4 0 3 1;
#X connect 4 1 23 0;
#X connect 5 0 39 0;
#X connect 6 0 1 0;
#X connect 8 0 9 0;
#X connect 9 0 48 0;
#X connect 11 0 16 0;
#X connect 12 0 38 0;
#X connect 12 1 11 1;
#X connect 13 0 14 1;
#X connect 14 0 15 0;
#X connect 16 0 17 0;
#X connect 17 0 18 0;
#X connect 18 0 9 0;
#X connect 19 0 21 0;
#X connect 19 0 52 0;
#X connect 23 0 30 0;
#X connect 24 0 37 0;
#X connect 25 0 51 0;
#X connect 26 0 27 0;
#X connect 27 0 25 0;
#X connect 30 0 2 0;
#X connect 30 2 13 0;
#X connect 30 4 28 0;
#X connect 31 0 0 0;
#X connect 32 0 42 0;
#X connect 32 1 40 0;
#X connect 33 0 34 1;
#X connect 34 0 32 0;
#X connect 35 0 34 1;
#X connect 36 0 47 1;
#X connect 37 1 62 0;
#X connect 37 3 8 0;
#X connect 37 3 10 0;
#X connect 37 4 59 0;
#X connect 37 5 29 0;
#X connect 38 0 11 0;
#X connect 39 0 25 0;
#X connect 40 0 34 0;
#X connect 41 0 48 2;
#X connect 41 1 19 0;
#X connect 42 0 41 0;
#X connect 43 0 68 0;
#X connect 44 0 45 0;
#X connect 44 0 50 0;
#X connect 46 0 12 0;
#X connect 47 0 46 0;
#X connect 48 0 7 0;
#X connect 50 0 49 0;
#X connect 51 0 42 1;
#X connect 51 1 40 0;
#X connect 51 2 44 0;
#X connect 52 0 3 0;
#X connect 52 1 20 0;
#X connect 52 1 67 0;
#X connect 52 2 70 0;
#X connect 53 0 56 0;
#X connect 54 0 53 0;
#X connect 56 0 23 0;
#X connect 56 0 24 0;
#X connect 57 0 69 0;
#X connect 57 0 70 0;
#X connect 58 0 60 0;
#X connect 59 0 50 4;
#X connect 59 1 47 0;
#X connect 59 2 58 1;
#X connect 60 0 61 1;
#X connect 61 0 63 0;
#X connect 62 0 18 1;
#X connect 62 0 22 0;
#X connect 62 1 14 0;
#X connect 62 2 58 0;
#X connect 62 3 63 1;
#X connect 63 0 66 0;
#X connect 64 0 65 0;
#X connect 65 0 61 0;
#X connect 66 0 67 0;
#X connect 67 0 17 1;
#X connect 68 0 44 1;
#X connect 69 0 65 0;
#X connect 70 0 50 3;
#X connect 71 0 72 0;
#X connect 72 0 57 0;
#X coords 0 -1 1 1 300 80 1 100 100;
