#N canvas 502 116 609 435 10;
#X declare -lib iemmatrix;
#X obj 92 306 separator;
#X obj 92 329 pix_texture;
#X obj 92 77 gemhead 10;
#X obj 92 201 pix_video;
#X text 75 385 Render source video;
#X obj 92 369 square 4;
#X obj 161 77 import iemmatrix;
#X msg 262 174 colorspace RGBA;
#X msg 381 174 dialog;
#X msg 164 174 dimen 320 240;
#X obj 92 349 rotateXYZ 0 180 0;
#X obj 92 272 pix_colordetect;
#X obj 92 240 separator;
#X obj 212 306 separator;
#X obj 212 333 outlet;
#N canvas 67 107 721 615 gemwin_control 0;
#X obj 18 17 inlet;
#X text 66 16 options pass-thru;
#X obj 17 528 outlet;
#X text 73 528 pass-thru;
#X obj 386 467 send GLOBAL_GEMWIN_CONTROL;
#X obj 101 103 cnv 15 128 22 empty GLOBAL_GEMWIN_CONTROL_CANVAS gemwin
3 5 0 14 -24198 -33289 0;
#X obj 200 102 tgl 17 0 \$0-render_toggle THIS_IS_TO_MAKE_THE_INLET_DISAPPEAR
render -6 21 1 9 -24198 -33289 -33289 1 1;
#X obj 159 102 tgl 17 0 \$0-window_toggle THIS_IS_TO_MAKE_THE_INLET_DISAPPEAR
window -6 21 1 9 -24198 -33289 -33289 1 1;
#X obj 155 49 receive GLOBAL_GEMWIN_CONTROL;
#N canvas 77 396 766 363 window 0;
#X obj 56 126 select 0;
#X obj 107 146 bang;
#X msg 107 166 reset \, create;
#X msg 228 164 window set \$1;
#X obj 321 115 select 0 1;
#X msg 354 136 76;
#X msg 321 136 10;
#X msg 331 163 window color \$1 12 12;
#X obj 93 235 outlet;
#X obj 460 273 outlet;
#X obj 58 6 inlet;
#X text 106 7 window status;
#X msg 527 164 render 0;
#X obj 557 3 inlet;
#X text 602 3 render status;
#X obj 527 92 float;
#X obj 58 47 trigger float bang;
#X obj 58 28 route float;
#X obj 527 143 select 1;
#X text 488 66 turn off rendering \, if on;
#X msg 27 166 destroy;
#X text 146 26 TODO: don't receive message if status is the same;
#X obj 527 118 change;
#X connect 0 0 20 0;
#X connect 0 1 1 0;
#X connect 1 0 2 0;
#X connect 2 0 8 0;
#X connect 3 0 9 0;
#X connect 4 0 6 0;
#X connect 4 1 5 0;
#X connect 5 0 7 0;
#X connect 6 0 7 0;
#X connect 7 0 9 0;
#X connect 10 0 17 0;
#X connect 12 0 9 0;
#X connect 13 0 15 1;
#X connect 15 0 22 0;
#X connect 16 0 0 0;
#X connect 16 0 4 0;
#X connect 16 0 3 0;
#X connect 16 1 15 0;
#X connect 17 0 16 0;
#X connect 18 0 12 0;
#X connect 20 0 8 0;
#X connect 22 0 18 0;
#X restore 76 369 pd window logic;
#X obj 41 153 receive \$0-window_toggle;
#N canvas 472 123 678 374 render 0;
#X obj 253 118 select 0 1;
#X msg 286 149 76;
#X msg 253 149 10;
#X msg 138 187 render set \$1;
#X msg 291 187 render color \$1 12 12;
#X obj 23 286 outlet;
#X text 75 288 to gemwin;
#X obj 377 280 outlet;
#X obj 160 10 inlet;
#X text 206 10 render status;
#X text 545 8 window status;
#X obj 498 8 inlet;
#X msg 468 184 window 1;
#X obj 469 101 float;
#X text 430 75 create window \, if not created;
#X obj 469 152 select 0;
#X obj 160 30 route float;
#X obj 161 58 trigger float bang;
#X msg 223 307 \; GLOBAL_GEMWIN_CONTROL_CANVAS color \$1 12 12;
#X obj 469 128 change;
#X obj 381 128 purepd/once;
#X connect 0 0 2 0;
#X connect 0 1 1 0;
#X connect 1 0 4 0;
#X connect 1 0 18 0;
#X connect 2 0 4 0;
#X connect 2 0 18 0;
#X connect 3 0 7 0;
#X connect 4 0 7 0;
#X connect 8 0 16 0;
#X connect 11 0 13 1;
#X connect 12 0 7 0;
#X connect 13 0 19 0;
#X connect 15 0 12 0;
#X connect 16 0 17 0;
#X connect 17 0 3 0;
#X connect 17 0 0 0;
#X connect 17 0 5 0;
#X connect 17 1 13 0;
#X connect 17 1 20 0;
#X connect 19 0 15 0;
#X connect 20 0 12 0;
#X restore 300 369 pd render logic;
#X obj 313 153 receive \$0-render_toggle;
#X obj 155 72 route window render status;
#X obj 301 230 float;
#X obj 76 233 float;
#X obj 263 153 bang;
#X msg 529 250 status;
#X obj 414 203 loadbang;
#X obj 300 296 spigot 0;
#X obj 77 296 spigot 0;
#X obj 414 224 trigger bang bang;
#X msg 414 250 1;
#X text 354 187 first get status from existing objects;
#X obj 76 255 change;
#X obj 301 251 change;
#X obj 228 505 outlet;
#N canvas 67 83 807 652 ch_gemwin 0;
#X obj 295 181 f;
#X obj 216 162 spigot;
#X obj 277 153 sel 0 1;
#X obj 247 134 t f f;
#X obj 216 210 -;
#X obj 216 259 +;
#X obj 277 223 f;
#X obj 169 178 f;
#X obj 90 159 spigot;
#X obj 151 150 sel 0 1;
#X obj 121 131 t f f;
#X obj 90 210 -;
#X obj 90 259 +;
#X obj 151 220 f;
#X obj 416 172 f;
#X obj 337 156 spigot;
#X obj 398 147 sel 0 1;
#X obj 368 128 t f f;
#X obj 337 207 -;
#X obj 398 217 f;
#X obj 90 475 * 4;
#X obj 145 477 * 4;
#X obj 166 318 t b f;
#X obj 104 382 cos;
#X obj 116 440 * 1;
#X obj 90 440 * 1;
#X obj 142 383 sin;
#X obj 117 476 * 4;
#X obj 104 404 t b f;
#X obj 104 358 / 200;
#X obj 90 501 pack f f f;
#X obj 468 59 gemmouse;
#X obj 525 145 t b f;
#X obj 525 174 |;
#X obj 497 250 gemhead;
#X obj 501 203 loadbang;
#X msg 497 225 0;
#X obj 497 325 curve 2;
#X obj 497 276 color 1 0 0;
#X obj 581 250 gemhead;
#X obj 581 325 curve 2;
#X obj 661 252 gemhead;
#X obj 661 327 curve 2;
#X msg 534 299 3 0 0;
#X msg 618 299 0 3 0;
#X msg 698 301 0 0 3;
#X msg 90 526 view \$1 \$2 \$3 0 0 0 0 1 0;
#X obj 581 276 color 0 1 0;
#X obj 661 278 color 0 0 1;
#X obj 90 318 sin;
#X obj 116 319 cos;
#X obj 337 256 + 200;
#X obj 167 292 / 50;
#X obj 90 293 / -200;
#X obj 28 22 inlet;
#X obj 30 589 outlet;
#X obj 31 561 gemwin \$1;
#X obj 70 24 inlet;
#X obj 225 29 inlet;
#X obj 142 25 inlet;
#X obj 223 54 * 5;
#X obj 69 92 / 127;
#X obj 70 71 * 400;
#X obj 141 92 / 127;
#X obj 141 68 * 200;
#X obj 141 46 * -3.14;
#X obj 70 47 * 3.14;
#X connect 0 0 4 1;
#X connect 1 0 4 0;
#X connect 2 0 6 0;
#X connect 2 1 0 0;
#X connect 3 0 1 1;
#X connect 3 1 2 0;
#X connect 4 0 5 0;
#X connect 5 0 6 1;
#X connect 5 0 29 0;
#X connect 6 0 5 1;
#X connect 7 0 11 1;
#X connect 8 0 11 0;
#X connect 9 0 13 0;
#X connect 9 1 7 0;
#X connect 10 0 8 1;
#X connect 10 1 9 0;
#X connect 11 0 12 0;
#X connect 12 0 13 1;
#X connect 12 0 53 0;
#X connect 13 0 12 1;
#X connect 14 0 18 1;
#X connect 15 0 18 0;
#X connect 16 0 19 0;
#X connect 16 1 14 0;
#X connect 17 0 15 1;
#X connect 17 1 16 0;
#X connect 18 0 51 0;
#X connect 19 0 51 1;
#X connect 20 0 30 0;
#X connect 21 0 30 2;
#X connect 22 0 21 0;
#X connect 22 0 20 0;
#X connect 22 0 27 0;
#X connect 22 1 21 1;
#X connect 22 1 20 1;
#X connect 22 1 27 1;
#X connect 23 0 28 0;
#X connect 24 0 21 0;
#X connect 25 0 20 0;
#X connect 26 0 27 0;
#X connect 27 0 30 1;
#X connect 28 0 24 0;
#X connect 28 0 25 0;
#X connect 28 1 24 1;
#X connect 28 1 25 1;
#X connect 29 0 23 0;
#X connect 29 0 26 0;
#X connect 30 0 46 0;
#X connect 31 0 8 0;
#X connect 31 0 7 1;
#X connect 31 1 1 0;
#X connect 31 1 0 1;
#X connect 31 1 14 1;
#X connect 31 1 15 0;
#X connect 31 2 3 0;
#X connect 31 2 10 0;
#X connect 31 2 33 0;
#X connect 31 3 17 0;
#X connect 31 3 32 0;
#X connect 32 0 33 0;
#X connect 32 1 33 1;
#X connect 33 0 34 0;
#X connect 33 0 39 0;
#X connect 33 0 41 0;
#X connect 34 0 38 0;
#X connect 35 0 36 0;
#X connect 35 0 43 0;
#X connect 35 0 44 0;
#X connect 35 0 45 0;
#X connect 35 0 53 0;
#X connect 35 0 51 0;
#X connect 36 0 34 0;
#X connect 36 0 39 0;
#X connect 36 0 41 0;
#X connect 38 0 37 0;
#X connect 39 0 47 0;
#X connect 41 0 48 0;
#X connect 43 0 37 2;
#X connect 44 0 40 2;
#X connect 45 0 42 2;
#X connect 46 0 56 0;
#X connect 47 0 40 0;
#X connect 48 0 42 0;
#X connect 49 0 25 0;
#X connect 50 0 24 0;
#X connect 51 0 19 1;
#X connect 51 0 52 0;
#X connect 52 0 22 0;
#X connect 53 0 49 0;
#X connect 53 0 50 0;
#X connect 54 0 56 0;
#X connect 56 0 55 0;
#X connect 57 0 66 0;
#X connect 58 0 60 0;
#X connect 59 0 65 0;
#X connect 60 0 52 0;
#X connect 61 0 53 0;
#X connect 62 0 61 0;
#X connect 63 0 29 0;
#X connect 64 0 63 0;
#X connect 65 0 64 0;
#X connect 66 0 62 0;
#X restore 17 503 pd ch_gemwin \$1;
#X connect 0 0 27 0;
#X connect 8 0 13 0;
#X connect 9 0 27 0;
#X connect 9 1 4 0;
#X connect 10 0 15 0;
#X connect 11 0 27 0;
#X connect 11 1 4 0;
#X connect 12 0 14 0;
#X connect 13 0 7 0;
#X connect 13 1 6 0;
#X connect 13 2 16 0;
#X connect 14 0 25 0;
#X connect 15 0 24 0;
#X connect 16 0 14 0;
#X connect 16 0 15 0;
#X connect 17 0 4 0;
#X connect 18 0 21 0;
#X connect 19 0 11 0;
#X connect 19 0 9 1;
#X connect 19 0 26 0;
#X connect 20 0 9 0;
#X connect 20 0 11 1;
#X connect 21 0 22 0;
#X connect 21 1 17 0;
#X connect 22 0 19 1;
#X connect 22 0 20 1;
#X connect 24 0 20 0;
#X connect 25 0 19 0;
#X connect 27 0 2 0;
#X coords 0 -1 1 1 130 28 1 100 100;
#X restore 102 135 pd gemwin_control;
#X obj 174 114 cnv 20 20 20 empty \$0-open-canvas 1 4 10 0 16 -233017
-1 0;
#X obj 102 115 hradio 18 1 1 4 empty empty empty 0 -6 0 8 -225271 -1
-1 1;
#X msg 102 174 device \$1;
#X connect 0 0 1 0;
#X connect 1 0 10 0;
#X connect 2 0 3 0;
#X connect 3 0 12 0;
#X connect 7 0 3 0;
#X connect 8 0 3 0;
#X connect 9 0 3 0;
#X connect 10 0 5 0;
#X connect 11 0 13 0;
#X connect 11 0 0 0;
#X connect 12 0 11 0;
#X connect 13 0 14 0;
#X connect 17 0 18 0;
#X connect 18 0 3 0;
#X coords 0 -1 1 1 140 64 1 100 100;
