#N canvas 266 92 759 645 10;
#X obj 61 312 env~;
#X floatatom 61 333 5 0 0 0 - - -;
#X floatatom 61 378 5 0 0 0 - - -;
#X floatatom 195 514 10 0 0 0 - - -;
#X obj 115 249 inlet~;
#X obj 61 397 sel 0 1;
#X obj 195 491 snapshot~;
#X obj 61 447 line~;
#X obj 161 559 outlet~;
#X msg 96 422 1 10;
#X obj 154 102 tgl 15 0 empty empty empty 17 7 0 10 -262144 -1 -1 1
1;
#X obj 176 231 line~;
#X msg 222 208 0 100;
#X msg 176 208 1 100;
#X obj 161 284 *~;
#X obj 154 165 sel 1 0;
#X obj 76 231 line~;
#X msg 122 208 0 100;
#X msg 76 208 1 100;
#X obj 61 285 *~;
#X obj 116 510 *~;
#X obj 195 423 tgl 15 0 empty empty empty 17 7 0 10 -262144 -1 -1 1
1;
#X msg 61 422 0 50;
#X floatatom 104 133 5 0 0 2 corte - -;
#X obj 61 356 > 50;
#X floatatom 144 133 5 0 0 2 ruído - -;
#X obj 131 312 env~;
#X obj 263 346 outlet;
#X obj 183 132 switch~;
#X obj 78 597 dac~;
#X obj 230 76 inlet;
#X obj 195 446 metro 1;
#X connect 0 0 1 0;
#X connect 1 0 24 0;
#X connect 2 0 5 0;
#X connect 4 0 14 0;
#X connect 4 0 20 0;
#X connect 4 0 19 0;
#X connect 4 0 26 0;
#X connect 5 0 22 0;
#X connect 5 1 9 0;
#X connect 6 0 3 0;
#X connect 7 0 20 1;
#X connect 7 0 6 0;
#X connect 9 0 7 0;
#X connect 10 0 15 0;
#X connect 10 0 28 0;
#X connect 10 0 21 0;
#X connect 11 0 14 1;
#X connect 12 0 11 0;
#X connect 13 0 11 0;
#X connect 14 0 8 0;
#X connect 15 0 12 0;
#X connect 15 0 18 0;
#X connect 15 1 13 0;
#X connect 15 1 17 0;
#X connect 16 0 19 1;
#X connect 17 0 16 0;
#X connect 18 0 16 0;
#X connect 19 0 0 0;
#X connect 20 0 8 0;
#X connect 21 0 31 0;
#X connect 22 0 7 0;
#X connect 23 0 24 1;
#X connect 24 0 2 0;
#X connect 25 0 27 0;
#X connect 26 0 25 0;
#X connect 30 0 10 0;
#X connect 31 0 6 0;
#X coords 0 -1 1 1 80 50 1 100 100;
